<?xml version="1.0" standalone="no"?>
<!DOCTYPE svg PUBLIC "-//W3C//DTD SVG 1.1//EN" "http://www.w3.org/Graphics/SVG/1.1/DTD/svg11.dtd" >
<svg>
<metadata>
Created by FontForge 20110222 at Thu May 15 14:57:09 2014
 By Orthosie Webhosting
Copyright (c) 1985, 1987, 1990, 1991, 2002 Adobe Systems Incorporated.  All Rights Reserved.
</metadata>
<defs>
<font id="ITCAmericanTypewriterStdMedium" horiz-adv-x="660" >
  <font-face 
    font-family="ITCAmericanTypewriterStdMedium"
    font-weight="500"
    font-stretch="normal"
    units-per-em="1000"
    panose-1="2 9 5 4 3 5 5 2 3 4"
    ascent="693"
    descent="-307"
    x-height="509"
    cap-height="686"
    bbox="-213 -250 1240 892"
    underline-thickness="50"
    underline-position="-50"
    unicode-range="U+0020-FB02"
  />
<missing-glyph horiz-adv-x="500" 
d="M0 0v700h500v-700h-500zM250 395l170 255h-340zM280 350l170 -255v510zM80 50h340l-170 255zM50 605v-510l170 255z" />
    <glyph glyph-name="f_i" unicode="fi" horiz-adv-x="640" 
d="M191 357v-248q0 -56 29 -56q9 0 24 3t22 3q15 0 24.5 -9.5t9.5 -23.5q0 -16 -13 -26.5t-30 -10.5q-13 0 -43 5.5t-60 5.5q-23 0 -56.5 -5.5t-49.5 -5.5q-17 0 -30 11.5t-13 25.5t9.5 23.5t24.5 9.5q7 0 22 -3t24 -3q29 0 29 57v283q0 24 -6 29t-36 5q-34 0 -48 6.5
t-14 28.5q0 36 33 36h27q33 0 39.5 6.5t11.5 40.5q10 73 39 107q43 48 141 48q75 0 137 -23q32 -12 55 -39.5t23 -60.5q0 -19 -15 -34.5t-34 -15.5q-21 0 -37 15.5t-16 36.5q0 13 13 28q-43 35 -118 35q-116 0 -116 -117q0 -18 7 -22.5t28 -4.5q19 0 55 -2.5t54 -2.5
q20 0 79 2.5t84 2.5q23 0 28.5 -5.5t5.5 -26.5v-372q0 -41 26 -41q3 0 19 3.5t30 2.5q15 0 24.5 -9.5t9.5 -23.5q0 -16 -13 -26.5t-30 -10.5q-22 0 -56 5.5t-56 5.5t-55.5 -5.5t-50.5 -5.5q-13 0 -23.5 11.5t-10.5 25.5t9.5 23.5t24.5 9.5q7 0 22 -3t24 -3q17 0 23 18.5
t6 65.5v173q0 70 -7.5 90.5t-33.5 24.5q-48 6 -124 6q-38 0 -62 -4t-31.5 -18.5t-7.5 -51.5z" />
    <glyph glyph-name="f_l" unicode="fl" horiz-adv-x="640" 
d="M115 110v283q0 18 -4 24.5t-17 6.5h-45q-42 0 -42 38q0 17 10 26.5t25 9.5h39q25 0 29.5 3t4.5 18q0 181 171 181q28 0 88 -10q55 -11 83 -11q11 0 33 2q6 0 16.5 0.5t15.5 0.5q11 0 17.5 -5.5t6.5 -11.5q0 -7 -4.5 -30t-4.5 -43v-455q0 -51 7 -67.5t22 -16.5q9 0 24 3
t22 3q15 0 24.5 -9.5t9.5 -23.5q0 -16 -13 -26.5t-30 -10.5q-15 0 -46 5.5t-57 5.5q-24 0 -57 -5.5t-49 -5.5q-17 0 -30 10.5t-13 26.5q0 14 9.5 23.5t24.5 9.5q7 0 22 -3t24 -3q17 0 23 19.5t6 64.5v408q0 39 -10 50.5t-63 27.5q-39 13 -94 13q-101 0 -101 -113
q0 -17 3 -21t12 -4h67q46 0 46 -36q0 -38 -47 -38h-63q-18 0 -18 -17v-298q0 -56 29 -56q9 0 24 3t22 3q15 0 24.5 -9.5t9.5 -23.5q0 -16 -13 -26.5t-30 -10.5q-13 0 -43 5.5t-60 5.5q-23 0 -56.5 -5.5t-49.5 -5.5q-17 0 -30 11.5t-13 25.5t9.5 23.5t24.5 9.5q7 0 22 -3
t24 -3q29 0 29 57z" />
    <glyph glyph-name=".notdef" horiz-adv-x="500" 
d="M0 0v700h500v-700h-500zM250 395l170 255h-340zM280 350l170 -255v510zM80 50h340l-170 255zM50 605v-510l170 255z" />
    <glyph glyph-name=".null" horiz-adv-x="0" 
 />
    <glyph glyph-name="nonmarkingreturn" horiz-adv-x="333" 
 />
    <glyph glyph-name="space" unicode=" " horiz-adv-x="380" 
 />
    <glyph glyph-name="exclam" unicode="!" horiz-adv-x="340" 
d="M165 117q26 0 45 -19t19 -45q0 -27 -19 -46t-45 -19q-27 0 -46 19t-19 46q0 26 19 45t46 19zM128 205l-4 440q0 55 43 55t43 -55l-4 -440q0 -16 -2 -25.5t-10.5 -17.5t-24.5 -8q-26 0 -33.5 13.5t-7.5 37.5z" />
    <glyph glyph-name="quotedbl" unicode="&#x22;" 
d="M217 426l-2 243q0 31 30 31t30 -31l-2 -243q0 -28 -28 -28t-28 28zM387 426l-2 243q0 31 30 31t30 -31l-2 -243q0 -28 -28 -28t-28 28z" />
    <glyph glyph-name="numbersign" unicode="#" 
d="M518 485h117q24 0 24 -17q0 -19 -14.5 -31.5t-32.5 -12.5h-116l-61 -163h143q24 0 24 -17q0 -19 -14 -31.5t-31 -12.5h-145l-62 -169q-14 -36 -40 -36q-22 0 -22 17q0 10 10 33l58 154h-158l-63 -168q-14 -36 -40 -36q-22 0 -22 17q0 7 11 33l58 154h-119q-22 0 -22 17
q0 20 13.5 32.5t31.5 12.5h119l59 163h-142q-22 0 -22 16q0 20 13.5 32.5t30.5 12.5h143l63 165q10 36 41 36q19 0 19 -17q0 -7 -5 -17l-61 -167h158l60 165q15 36 43 36q20 0 20 -17q0 -7 -11 -33zM438 424h-157l-62 -164h158z" />
    <glyph glyph-name="dollar" unicode="$" 
d="M369 629v-241l26 -6q37 -8 52.5 -12t44 -15t47.5 -25q70 -52 70 -140q0 -49 -23 -91.5t-64 -69.5q-46 -33 -153 -54v-78q0 -41 -31 -41q-19 0 -25 10.5t-6 30.5v78q-61 1 -117.5 20.5t-98 64t-41.5 105.5q0 39 20.5 67.5t59.5 28.5q25 0 41.5 -15.5t16.5 -39.5
q0 -22 -17 -35.5t-40 -12.5q2 -54 58 -82.5t118 -28.5v270l-6 2q-37 8 -54 12.5t-48 14.5t-47 21.5t-34 29t-26 42.5t-8 57q0 94 75 153q42 32 148 51v73q0 14 1.5 22t8.5 15.5t21 7.5q31 0 31 -45v-73q47 -3 94 -20.5t83 -54t36 -83.5q0 -28 -16.5 -47.5t-43.5 -19.5
q-22 0 -37.5 14t-15.5 35t24 35q-10 36 -46 53t-78 17zM307 401v228q-54 1 -96.5 -32t-42.5 -85q0 -22 9.5 -40t20 -28t34.5 -19.5t35.5 -13t39.5 -10.5zM369 303v-256q59 -2 107 35.5t48 94.5q0 34 -12.5 57.5t-36 37t-48 20.5t-58.5 11z" />
    <glyph glyph-name="percent" unicode="%" horiz-adv-x="860" 
d="M664 368q-114 0 -114 -179q0 -64 25.5 -112t83.5 -48q34 0 58 16t36 43t17.5 55.5t5.5 61.5q0 163 -112 163zM670 422q83 0 125.5 -62.5t42.5 -151.5q0 -99 -35 -154q-23 -38 -61 -58.5t-82 -20.5q-87 0 -129.5 63.5t-42.5 156.5q0 99 45 163t137 64zM669 687l-418 -692
q-11 -18 -15 -19q-3 -1 -18 -1q-1 0 -5.5 -0.5t-8 -0.5t-7.5 0.5t-6 2.5t-2 6q0 5 8 18l416 686q10 17 13.5 19.5t21.5 2.5h9h8t5.5 -0.5t4 -2t1 -4t-1.5 -6t-5 -9.5zM207 700q83 0 126 -63t43 -152q0 -95 -35 -155q-49 -77 -143 -77q-87 0 -129.5 62.5t-42.5 156.5
q0 99 44.5 163.5t136.5 64.5zM201 646q-113 0 -113 -179q0 -65 25.5 -112.5t83.5 -47.5q34 0 58 16t36 43t17.5 55.5t5.5 61.5q0 163 -113 163z" />
    <glyph glyph-name="ampersand" unicode="&#x26;" horiz-adv-x="860" 
d="M337 376l114 -171l7 -9l11 29l31 82q15 41 31.5 72.5t41 63t58.5 48.5t76 17q61 0 101 -34t40 -94q0 -53 -35.5 -91t-88.5 -38q-36 0 -63.5 17.5t-27.5 51.5q0 22 11.5 36t33.5 14q13 0 24 -9.5t11 -21.5q0 -10 -4 -18q10 -2 16 -2q21 0 34.5 17t13.5 38q0 32 -20 49.5
t-52 17.5q-56 0 -96 -75l-58 -140q-27 -70 -40 -92q40 -45 70 -64.5t79 -19.5q10 0 28 2t27 2q17 0 29 -10t12 -26q0 -17 -11 -27t-29 -10h-72q-29 1 -41.5 2t-31.5 6.5t-39 16.5q-33 20 -71 60q-72 -91 -196 -91q-91 0 -150.5 56.5t-59.5 146.5q0 83 42.5 132.5t128.5 94.5
q-40 88 -47 127q-3 19 -3 39q0 55 47 95q41 34 107 34q68 0 113.5 -33t45.5 -99q0 -107 -148 -192zM304 440q98 44 98 124q0 30 -20.5 49t-50.5 19q-33 0 -53 -17t-20 -50q0 -40 46 -125zM408 125l-49 67q-16 21 -32.5 46t-35.5 55.5t-30 47.5q-56 -19 -89 -60.5t-33 -99.5
q0 -60 36.5 -96t96.5 -36q86 0 136 76z" />
    <glyph glyph-name="quotesingle" unicode="'" horiz-adv-x="440" 
d="M192 426l-2 243q0 31 30 31t30 -31l-2 -243q0 -28 -28 -28t-28 28z" />
    <glyph glyph-name="parenleft" unicode="(" horiz-adv-x="460" 
d="M422 686q6 0 10.5 -4t4.5 -10q0 -11 -26 -23q-51 -23 -102 -61t-84 -79q-81 -101 -81 -235q0 -123 71 -221q32 -42 85.5 -85t102.5 -65q1 -1 6.5 -3t9.5 -3.5t8.5 -4.5t7 -6t2.5 -7q0 -6 -7 -9.5t-14 -3.5q-23 0 -72 21.5t-77 39.5q-91 58 -144.5 150t-53.5 197
q0 77 30.5 150t84.5 129q55 56 125 93q80 40 113 40z" />
    <glyph glyph-name="parenright" unicode=")" horiz-adv-x="460" 
d="M36 686q29 0 113 -40q71 -37 124 -93q116 -121 116 -279q0 -105 -53.5 -197t-144.5 -150q-28 -18 -77 -39.5t-72 -21.5q-16 0 -16 13q0 11 29 24q48 21 102.5 64.5t85.5 85.5q71 98 71 221q0 134 -81 235q-73 88 -186 140q-21 9 -21 23t10 14z" />
    <glyph glyph-name="asterisk" unicode="*" horiz-adv-x="480" 
d="M223 543l-17 83q-4 22 -4 28q0 46 35 46t35 -44q0 -11 -5 -29l-17 -84l9 -6l64 60q29 27 51 27q14 0 23.5 -7.5t9.5 -21.5t-9 -25t-17.5 -15t-25.5 -10l-82 -31v-11l87 -28q49 -14 49 -44q0 -14 -9.5 -23.5t-23.5 -9.5q-18 0 -52 27l-64 54l-8 -5l17 -82q0 -2 2 -11
t2 -14q0 -20 -8.5 -35t-26.5 -15q-17 0 -26 12.5t-9 30.5q0 10 4 32l16 81l-7 6l-67 -58q-27 -23 -47 -23q-14 0 -24 9.5t-10 23.5q0 29 55 47l77 25v11l-82 28q-49 17 -49 47q0 13 9.5 21.5t22.5 8.5q23 0 49 -24l65 -58z" />
    <glyph glyph-name="plus" unicode="+" horiz-adv-x="620" 
d="M265 309v213h76v-213h214v-76h-214v-216h-76v216h-214v76h214z" />
    <glyph glyph-name="comma" unicode="," horiz-adv-x="340" 
d="M155 -23q-67 0 -67 62q0 31 21 50t52 19q38 0 59.5 -31t21.5 -71q0 -69 -44 -138q-1 -1 -5.5 -8.5t-7.5 -11t-8.5 -11t-10 -12t-10 -9.5t-11 -7.5t-10.5 -2.5q-7 0 -13.5 6t-6.5 14q0 4 32.5 55t32.5 80q0 8 -4 11.5t-7.5 4t-13.5 0.5z" />
    <glyph glyph-name="hyphen" unicode="-" horiz-adv-x="320" 
d="M87 306h146q53 0 53 -36q0 -37 -53 -37h-146q-53 0 -53 37q0 36 53 36z" />
    <glyph glyph-name="period" unicode="." horiz-adv-x="340" 
d="M165 117q26 0 45 -19t19 -45q0 -27 -19 -46t-45 -19q-27 0 -46 19t-19 46q0 26 19 45t46 19z" />
    <glyph glyph-name="slash" unicode="/" horiz-adv-x="520" 
d="M427 681l-282 -730q-6 -18 -13 -22t-28 -4q-1 0 -7 -0.5t-9.5 0t-8.5 1t-7.5 3.5t-2.5 7q0 6 7 20l160 402l96 250l42 115q7 23 13 26.5t32 3.5q2 0 7 0.5t8.5 0t7.5 -1t6 -3.5t2 -8q0 -3 -5 -16t-11 -27.5t-7 -16.5z" />
    <glyph glyph-name="zero" unicode="0" 
d="M48 330q0 152 60 247q38 60 97.5 91.5t130.5 31.5q72 0 127 -30.5t86 -81.5t46.5 -111.5t15.5 -128.5q0 -62 -15 -131.5t-44 -116.5q-38 -60 -98 -92.5t-132 -32.5q-135 0 -210 109q-64 93 -64 246zM140 326q0 -116 35 -181q51 -93 148 -93q57 0 98 28t61 75t28.5 95
t8.5 101q0 51 -8.5 95t-28 86t-58.5 66.5t-94 24.5q-46 0 -81 -19.5t-55 -49t-33 -71t-17 -79t-4 -78.5z" />
    <glyph glyph-name="one" unicode="1" 
d="M373 617v-457q0 -63 11 -84.5t43 -21.5q8 0 24 2.5t24 2.5q14 0 23 -10t9 -24q0 -17 -12.5 -26.5t-30.5 -9.5q-24 0 -67 5.5t-69 5.5t-70 -5.5t-64 -5.5q-16 0 -28.5 9.5t-12.5 26.5q0 14 9 24t23 10q8 0 24 -2.5t24 -2.5q33 0 43.5 20.5t10.5 79.5v306q0 103 -5 124
q-9 37 -49 37q-8 0 -24 -2.5t-24 -2.5q-14 0 -23 10t-9 24q0 36 30 36q13 0 40.5 -5.5t41.5 -5.5t40 5.5t39 5.5q32 0 32 -31q0 -7 -1.5 -19.5t-1.5 -18.5z" />
    <glyph glyph-name="two" unicode="2" 
d="M308 347l51 16q62 21 98.5 50t36.5 79q0 70 -47.5 104t-119.5 34q-71 0 -116 -30q-18 -11 -33 -29t-15 -36q0 -8 13.5 -11.5t27 -13t13.5 -33.5q0 -26 -20 -44.5t-47 -18.5q-37 0 -57.5 24.5t-20.5 62.5q0 89 87 150q73 49 173 49t167 -46q83 -60 83 -160q0 -82 -66 -136
q-9 -7 -18.5 -13.5t-22 -12.5t-21 -10t-24.5 -10t-22.5 -8t-24.5 -8t-22 -7q-113 -38 -156 -65q-71 -43 -76 -102l2 -2q41 50 112 50q36 0 70.5 -17.5t57.5 -39t53 -39t58 -17.5q30 0 47 21t17 51q0 7 -5 19q-12 -17 -34 -17q-20 0 -33 12t-13 32q0 25 18 40t44 15
q43 0 64 -29t21 -74q0 -59 -39 -105.5t-97 -46.5q-38 0 -73.5 18.5t-59.5 40t-59 40t-71 18.5q-64 0 -73 -42q2 0 5.5 0.5t5.5 0.5q13 0 22 -8t9 -21q0 -21 -14 -34t-35 -13q-41 0 -60 32.5t-19 77.5q0 55 21.5 99t61 74.5t81 51t94.5 37.5z" />
    <glyph glyph-name="three" unicode="3" 
d="M558 594l-173 -173h17q91 0 148 -54.5t57 -145.5q0 -111 -85 -182q-77 -64 -201 -64q-63 0 -122 20t-102.5 67t-43.5 112q0 45 27 79t71 34q26 0 42.5 -16.5t16.5 -42.5q0 -24 -15 -36.5t-39 -12.5q-18 0 -18 -14q0 -19 16 -42t34 -36q55 -41 138 -41t138.5 47.5
t55.5 129.5q0 60 -39 96q-36 35 -112 35l-58 -5q-1 0 -18.5 -3t-25.5 -3q-11 0 -17.5 8.5t-6.5 19.5q0 5 3 10.5t6.5 9t8.5 9t7 7.5l188 193h-209q-1 0 -15.5 0.5t-18.5 0l-16 -2t-17 -4.5t-12 -8t-9.5 -13.5t-2.5 -19.5q0 -9 1.5 -28.5t1.5 -30.5q0 -44 -37 -44
q-17 0 -25 13t-8 31v139q0 26 10 36.5t36 10.5h395q62 0 62 -37q0 -15 -34 -49z" />
    <glyph glyph-name="four" unicode="4" 
d="M469 615v-343h101q46 0 46 -35q0 -22 -12.5 -29.5t-35.5 -7.5h-99v-53q0 -52 10 -70.5t36 -18.5q7 0 28 2t38 2q14 0 23 -11t9 -26q0 -17 -12.5 -26.5t-28.5 -9.5q-27 0 -68 5.5t-66 5.5q-26 0 -68 -5.5t-66 -5.5q-68 0 -68 36q0 15 9 26t23 11q18 0 39.5 -2t28.5 -2
q47 0 47 85v57h-292q-29 0 -39 4q-23 11 -23 36q0 15 21 43l241 322q21 28 34.5 44t38.5 33.5t48 17.5q36 0 46.5 -22.5t10.5 -62.5zM383 272v335h-2l-250 -335h252z" />
    <glyph glyph-name="five" unicode="5" 
d="M98 360l15 204q4 83 6 92q6 24 44 24h332q30 0 38.5 -14.5t8.5 -59.5q0 -21 6 -44.5t6 -34.5q0 -15 -10 -24.5t-25 -9.5q-34 0 -34 49q0 32 -14.5 45t-48.5 13h-190q-24 0 -30.5 -4.5t-8.5 -21.5l-14 -168q78 56 178 56q105 0 170 -52q37 -30 57 -77t20 -97
q0 -123 -83 -192t-208 -69q-91 0 -160 41q-89 56 -89 136q0 37 22 63.5t58 26.5q26 0 43.5 -15t17.5 -40q0 -18 -11 -31.5t-28 -14.5q-12 0 -12 -4q0 -22 26 -46q23 -21 65.5 -33t79.5 -12q73 0 130 45q65 50 65 135q0 78 -46 121.5t-126 43.5q-96 0 -152 -55
q-3 -2 -13.5 -12.5t-14.5 -13.5t-13.5 -7t-19.5 -4q-39 0 -37 61z" />
    <glyph glyph-name="six" unicode="6" 
d="M353 454q106 0 178 -64t72 -167q0 -112 -77.5 -180t-192.5 -68q-130 0 -207 92q-71 84 -71 230q0 59 9.5 115t32.5 109t57 92t86.5 63t117.5 24q77 0 132 -34q75 -44 75 -113q0 -29 -19.5 -50t-47.5 -21q-22 0 -37 16t-15 38q0 34 28 41q-13 28 -49.5 41.5t-72.5 13.5
q-44 0 -79.5 -18t-58.5 -47t-39.5 -67.5t-24 -77t-10.5 -78.5l2 -2q28 57 84.5 84.5t126.5 27.5zM335 379q-79 0 -127 -44t-48 -120t48.5 -123t126.5 -47q83 0 130 50q49 51 49 120q0 77 -49 120.5t-130 43.5z" />
    <glyph glyph-name="seven" unicode="7" 
d="M606 604q0 -64 -39 -124q-5 -8 -10.5 -15t-9.5 -12t-10.5 -12t-9.5 -10t-11 -10.5t-10.5 -9.5t-12.5 -11t-13 -11q-76 -66 -101 -124q-31 -71 -31 -168q0 -9 1 -28t1 -28q0 -66 -51 -66q-53 0 -53 84q0 51 13 115t36 110q18 36 49.5 72.5t54.5 57t67 57.5q1 1 10 8
t11.5 9.5t10 9t10.5 10.5t7.5 10.5t7 12.5t3.5 12l-2 2q-27 -30 -83 -30q-41 0 -76.5 15t-56 33.5t-44.5 33.5t-45 15q-68 0 -68 -87q0 -17 6 -50.5t6 -50.5t-12.5 -29t-29.5 -12t-28.5 12.5t-10.5 29.5q2 17 3.5 36t3 42t2.5 36q0 21 -4.5 60t-4.5 57q2 44 37 44
q30 0 30 -37q0 -5 -6 -38l2 -2q19 34 40.5 52t55.5 18q36 0 60.5 -12t61.5 -41q77 -59 116 -59q17 0 34 8t20 23q-18 -4 -32 8t-14 31q0 18 15.5 32.5t33.5 14.5q70 0 70 -94z" />
    <glyph glyph-name="eight" unicode="8" 
d="M199 384q-96 48 -96 132q0 88 71.5 136t162.5 48q89 0 154.5 -44.5t65.5 -130.5q0 -95 -106 -141q67 -21 109 -71t42 -116q0 -101 -86 -166q-76 -56 -191 -56q-108 0 -188 58t-80 164q0 68 37.5 116t104.5 71zM327 424q56 0 99 25.5t43 76.5q0 50 -43 75.5t-95 25.5
q-55 0 -98 -27.5t-43 -80.5q0 -47 42.5 -71t94.5 -24zM325 345q-79 0 -126 -39q-52 -45 -52 -103q0 -77 54.5 -116t133.5 -39q74 0 124.5 40t50.5 114q0 71 -55 107t-130 36z" />
    <glyph glyph-name="nine" unicode="9" 
d="M65 451q0 109 74 179t185 70q70 0 124 -27.5t85 -75.5t46.5 -106t15.5 -124q0 -61 -10 -116t-33 -106t-57.5 -88.5t-87 -59.5t-117.5 -22q-47 0 -94 15t-83 51t-36 85q0 29 19 49t48 20q20 0 36.5 -15t16.5 -36q0 -33 -30 -44q14 -29 53 -43.5t76 -14.5q56 0 98 25.5
t65.5 68.5t35.5 90.5t13 100.5l-2 2q-25 -53 -82 -79t-122 -26q-102 0 -169.5 63t-67.5 164zM157 456q0 -72 44 -115t117 -43q77 0 124 41.5t47 116.5q0 76 -45 123.5t-122 47.5q-75 0 -120 -48.5t-45 -122.5z" />
    <glyph glyph-name="colon" unicode=":" horiz-adv-x="340" 
d="M165 117q26 0 45 -19t19 -45q0 -27 -19 -46t-45 -19q-27 0 -46 19t-19 46q0 26 19 45t46 19zM165 455q26 0 45 -19t19 -46t-19 -45.5t-45 -18.5q-27 0 -46 18.5t-19 45.5t19 46t46 19z" />
    <glyph glyph-name="semicolon" unicode=";" horiz-adv-x="340" 
d="M155 -23q-67 0 -67 62q0 31 21 50t52 19q38 0 59.5 -31t21.5 -71q0 -69 -44 -138q-1 -1 -5.5 -8.5t-7.5 -11t-8.5 -11t-10 -12t-10 -9.5t-11 -7.5t-10.5 -2.5q-7 0 -13.5 6t-6.5 14q0 4 32.5 55t32.5 80q0 8 -4 11.5t-7.5 4t-13.5 0.5zM158 454q26 0 45 -18.5t19 -45.5
t-19 -46t-45 -19q-27 0 -46 19t-19 46q0 26 19 45t46 19z" />
    <glyph glyph-name="less" unicode="&#x3c;" horiz-adv-x="620" 
d="M144 270l414 -191v-73l-509 232v64l509 232v-73z" />
    <glyph glyph-name="equal" unicode="=" horiz-adv-x="620" 
d="M555 405v-75h-504v75h504zM555 210v-75h-504v75h504z" />
    <glyph glyph-name="greater" unicode="&#x3e;" horiz-adv-x="620" 
d="M48 79l414 191l-414 191v73l509 -232v-64l-509 -232v73z" />
    <glyph glyph-name="question" unicode="?" horiz-adv-x="600" 
d="M38 503q0 92 84 150q70 47 177 47q104 0 169 -41q40 -25 62.5 -65.5t22.5 -86.5q0 -70 -41 -111.5t-115 -73.5q-27 -11 -40 -18t-31 -20.5t-25.5 -31t-7.5 -41.5q0 -16 -1.5 -26t-10.5 -18.5t-25 -8.5q-45 0 -45 50q0 62 35.5 100t102.5 73q3 1 17 9t17.5 9.5t16 9
t16 10.5t13.5 10.5t13 13t9.5 14t8.5 16.5t4 18t2 21q0 62 -50.5 92.5t-117.5 30.5q-68 0 -113 -26q-70 -39 -70 -98q0 -29 26 -43l-1 9q0 16 12 25t29 9q19 0 31 -13.5t12 -32.5q0 -32 -25.5 -50t-58.5 -18q-45 0 -73.5 31t-28.5 75zM263 117q26 0 45 -19t19 -45
q0 -27 -19 -46t-45 -19q-27 0 -46 19t-19 46q0 26 19 45t46 19z" />
    <glyph glyph-name="at" unicode="@" horiz-adv-x="740" 
d="M570 493l-7 -25l-59 -214q-6 -18 -6 -33q0 -22 22 -22q20 0 44 19.5t38 39.5q47 74 47 165q0 96 -60.5 158.5t-157.5 62.5q-136 0 -233 -107t-97 -243q0 -110 71 -184.5t181 -74.5q104 0 208 74q29 18 37 18q22 0 22 -21q0 -28 -70 -71q-99 -60 -207 -60
q-136 0 -228.5 89.5t-92.5 223.5q0 169 123 290.5t294 121.5q123 0 204.5 -73.5t81.5 -193.5q0 -102 -64 -190q-30 -44 -73 -74t-90 -30q-26 0 -46.5 14t-20.5 38q0 6 3 12l-2 2q-16 -29 -55 -47t-76 -18q-59 0 -91 37.5t-32 96.5q0 97 74.5 176.5t172.5 79.5q26 0 62 -9
q12 -6 25 -6q7 0 22 6.5t22 6.5q18 0 18 -14q0 -3 -2 -11.5t-2 -9.5zM459 356l28 99q-34 18 -67 18q-71 0 -117.5 -61t-46.5 -134q0 -34 17 -54t51 -20q94 0 135 152z" />
    <glyph glyph-name="A" unicode="A" horiz-adv-x="780" 
d="M449 234h-155q-27 0 -37 -5t-19 -30l-30 -79q-8 -24 -8 -34q0 -32 38 -32q9 0 29.5 2.5t34.5 2.5t23 -10t9 -24q0 -17 -12.5 -26.5t-30.5 -9.5q-11 0 -58 5.5t-76 5.5t-76 -5.5t-58 -5.5q-10 0 -21 10t-11 26q0 14 9 24t23 10q11 0 25.5 -2t19.5 -2q20 0 31 21q6 9 27 63
l183 493q11 30 25 42t44 12q29 0 42 -12t24 -42l177 -487q15 -45 28 -65q17 -26 50 -26q7 0 24 2t27 3q14 0 23 -10t9 -24q0 -17 -12.5 -26.5t-30.5 -9.5q-11 0 -58 5.5t-76 5.5t-76 -5.5t-58 -5.5q-57 0 -57 36q0 14 9 24t23 10q17 -1 38.5 -3t29.5 -2q13 0 22.5 7t9.5 20
q0 7 -12 39l-27 76q-12 30 -18.5 34t-39.5 4zM372 598l-88 -270q-6 -20 -3 -23t25 -3h135q24 0 24 8q0 6 -4 18l-87 270h-2z" />
    <glyph glyph-name="B" unicode="B" horiz-adv-x="720" 
d="M151 215v245q0 103 -5 124q-9 37 -49 37q-8 0 -24 -2.5t-24 -2.5q-14 0 -23 10t-9 24q0 36 43 36q17 0 60.5 -5.5t83.5 -5.5q44 0 109.5 5.5t95.5 5.5q101 0 154 -32q74 -45 74 -136q0 -55 -32.5 -92.5t-86.5 -52.5v-2q154 -42 154 -178q0 -94 -85 -157q-66 -47 -185 -47
q-37 0 -101.5 5.5t-103.5 5.5q-34 0 -83 -5.5t-61 -5.5q-33 0 -36 36q0 14 9 24t23 10q8 0 24 -2.5t24 -2.5q40 0 49 37q5 21 5 124zM237 508q0 -78 5 -91q8 -18 46 -20q12 -1 48 -1q33 0 55.5 1.5t55 8t52.5 18.5t34.5 35.5t14.5 56.5q0 106 -156 106q-70 0 -119 -10
q-28 -6 -34 -28q-2 -10 -2 -76zM381 331h-61q-22 0 -34.5 -0.5t-23 -5t-14.5 -7.5t-7 -16t-3 -22t-1 -33v-81v-14v-18.5t1 -17.5t2.5 -18t5 -14.5t8.5 -11.5q27 -21 132 -21q94 0 138 31q56 39 56 117q0 132 -199 132z" />
    <glyph glyph-name="C" unicode="C" 
d="M350 45q99 0 150 67q33 43 33 111q0 47 39 47q42 0 42 -46q0 -112 -78 -180.5t-193 -68.5q-100 0 -171 50.5t-103 128.5t-32 174q0 154 70 251q41 58 103 89.5t134 31.5q123 0 186 -84l2 2q0 5 -2 21t-2 25q0 15 8.5 24.5t23.5 9.5q17 0 26 -12.5t9 -30.5q0 -20 -3.5 -61
t-3.5 -61q0 -22 3.5 -56.5t3.5 -48.5q0 -39 -38 -39q-25 0 -32 12t-7 50q0 68 -25 107q-22 35 -61.5 53.5t-83.5 18.5q-60 0 -104.5 -25.5t-68.5 -68.5t-35 -92t-11 -105q0 -55 11.5 -104.5t35.5 -93.5t69 -70t105 -26z" />
    <glyph glyph-name="D" unicode="D" horiz-adv-x="740" 
d="M151 215v245q0 105 -5 124q-9 37 -49 37q-8 0 -24 -2.5t-24 -2.5q-14 0 -23 10t-9 24q0 15 12 25.5t31 10.5t58.5 -5.5t71.5 -5.5q35 0 92.5 5.5t92.5 5.5q160 0 245 -94q43 -47 65 -115t22 -138q0 -154 -80 -252q-81 -98 -248 -98q-35 0 -91.5 5.5t-93.5 5.5
q-30 0 -70 -5.5t-60 -5.5t-33.5 9.5t-13.5 26.5q0 14 9 24t23 10q8 0 24 -2.5t24 -2.5q40 0 49 37q5 21 5 124zM237 535v-399q0 -39 3.5 -50t13.5 -17q25 -13 115 -13q69 0 113.5 16.5t79.5 65.5q53 73 53 194q0 138 -65 212q-59 68 -194 68q-91 0 -109 -15q-10 -10 -10 -62
z" />
    <glyph glyph-name="E" unicode="E" horiz-adv-x="680" 
d="M237 261v-74l3 -70q1 -39 16 -49t68 -10h118q69 0 95.5 16.5t26.5 70.5q0 15 -3 45t-3 45q0 47 38 47q39 0 39 -46q0 -17 -2 -50.5t-2 -50.5t2 -50t2 -50q0 -46 -65 -46q-52 0 -163.5 5.5t-174.5 5.5q-41 0 -96 -5.5t-76 -5.5q-43 0 -43 36q0 14 9 24t23 10q8 0 24 -2.5
t24 -2.5q40 0 49 37q5 21 5 124v245q0 103 -5 124q-9 37 -49 37q-8 0 -24 -2.5t-24 -2.5q-14 0 -23 10t-9 24q0 17 12.5 26.5t30.5 9.5q21 0 76 -5.5t96 -5.5q63 0 174.5 5.5t163.5 5.5q53 0 53 -48q0 -18 -4 -55t-4 -55q0 -17 4 -50t4 -49q0 -17 -10.5 -27.5t-27.5 -10.5
q-22 0 -29.5 15.5t-7.5 58.5q0 65 -3.5 88t-18.5 39q-12 13 -41 17t-118 4q-92 0 -112 -14q-11 -8 -14.5 -22t-3.5 -49v-81q0 -35 5 -41q2 -2 4 -3q10 -7 58 -7t67 10t19 35q0 10 -3 31.5t-3 32.5q0 42 36 42q38 0 38 -46q0 -5 -5.5 -56t-4.5 -92q-1 -39 4.5 -85.5
t5.5 -57.5q0 -16 -10.5 -25.5t-26.5 -9.5q-37 0 -37 43q0 11 3 33t3 33q0 26 -16 35t-64 9q-52 0 -63 -8q-10 -9 -10 -59z" />
    <glyph glyph-name="F" unicode="F" horiz-adv-x="640" 
d="M237 273v-133q0 -44 11 -64t40 -20q8 0 25.5 2t26.5 2q44 0 44 -36q0 -35 -52 -35q-17 0 -55 5.5t-65 5.5q-37 0 -82 -5.5t-66 -5.5q-20 0 -33.5 9.5t-13.5 25.5q0 36 44 36q9 0 24.5 -2t23.5 -2q29 0 37 35q5 19 5 124v245q0 95 -5 124q-6 37 -49 37q-8 0 -24 -2.5
t-24 -2.5q-14 0 -23 10t-9 24t12 25t31 11q21 0 76 -5.5t96 -5.5q63 0 174.5 5.5t163.5 5.5q48 0 48 -48q0 -18 -4 -55t-4 -55q0 -17 4 -50t4 -49q0 -17 -11 -27.5t-27 -10.5q-23 0 -30 15t-7 59v67q0 32 -7.5 47t-28.5 22q-38 12 -143 12h-52q-53 -4 -64 -16t-11 -68v-91
q0 -35 6.5 -45t28.5 -10h58q61 0 61 50q0 11 -2 31t-2 31q0 15 10 26.5t25 11.5q36 0 36 -46q0 -23 -4 -69t-4 -69q0 -24 4 -73t4 -74q0 -17 -10.5 -28t-27.5 -11q-14 0 -24 12t-10 30q0 11 2 33t2 32q0 47 -50 47h-57q-29 0 -37.5 -8.5t-8.5 -35.5z" />
    <glyph glyph-name="G" unicode="G" horiz-adv-x="720" 
d="M341 630q-56 0 -99 -26t-66.5 -69t-35 -91.5t-11.5 -100.5q0 -42 6.5 -82t22.5 -80t40 -69.5t62 -48t86 -18.5q83 0 125 48t42 131q0 62 -45 62q-10 0 -29.5 -2t-29.5 -2q-14 0 -23 10t-9 25q0 16 12.5 26t30.5 10q20 0 61 -5.5t63 -5.5q21 0 62.5 5.5t61.5 5.5
q18 0 30.5 -9.5t12.5 -26.5q0 -15 -9 -25t-23 -10q-5 0 -16.5 2.5t-17.5 2.5q-26 0 -36.5 -26t-10.5 -96q0 -24 3.5 -72t3.5 -75q0 -17 -10.5 -27.5t-27.5 -10.5q-16 0 -26 10t-10 26q0 9 2 28.5t2 29.5h-2q-28 -50 -82 -74.5t-118 -24.5q-96 0 -165 52t-100 130t-31 170
q0 66 17.5 135t51.5 118q40 58 102.5 89t133.5 31q113 0 185 -78l2 2q-4 22 -4 39q0 33 36 33q15 0 24.5 -11t9.5 -29q0 -19 -3.5 -56.5t-3.5 -55.5q0 -26 3.5 -59t3.5 -44q0 -43 -40 -43t-40 50v31q0 71 -49.5 111t-124.5 40z" />
    <glyph glyph-name="H" unicode="H" horiz-adv-x="800" 
d="M237 394h323v66q0 103 -5 124q-9 37 -49 37q-8 0 -24 -2.5t-24 -2.5q-14 0 -23 10t-9 24q0 17 12.5 26.5t30.5 9.5q19 0 63 -5.5t71 -5.5t72 5.5t62 5.5q18 0 30.5 -9.5t12.5 -26.5q0 -14 -9 -24t-23 -10q-8 0 -24 2.5t-24 2.5q-40 0 -49 -37q-5 -24 -5 -124v-245
q0 -103 5 -124q10 -37 49 -37q8 0 24 2.5t24 2.5q14 0 23 -10t9 -24q0 -17 -12.5 -26.5t-30.5 -9.5q-24 0 -66 5.5t-68 5.5q-25 0 -65.5 -5.5t-68.5 -5.5q-18 0 -30.5 9.5t-12.5 26.5q0 14 9 24t23 10q8 0 24 -2.5t24 -2.5q40 0 49 37q5 21 5 124v108h-323v-108
q0 -100 5 -124q9 -37 49 -37q8 0 24 2.5t24 2.5q14 0 23 -10t9 -24q0 -17 -12.5 -26.5t-30.5 -9.5q-24 0 -66 5.5t-68 5.5t-68 -5.5t-66 -5.5q-43 0 -43 36q0 14 9 24t23 10q8 0 24 -2.5t24 -2.5q40 0 49 37q5 21 5 124v245q0 103 -5 124q-9 37 -49 37q-8 0 -24 -2.5
t-24 -2.5q-14 0 -23 10t-9 24q0 17 12.5 26.5t30.5 9.5q21 0 64.5 -5.5t69.5 -5.5q27 0 71.5 5.5t62.5 5.5t30.5 -9.5t12.5 -26.5q0 -14 -9 -24t-23 -10q-8 0 -24 2.5t-24 2.5q-40 0 -49 -37q-5 -24 -5 -124v-66z" />
    <glyph glyph-name="I" unicode="I" horiz-adv-x="380" 
d="M151 215v245q0 103 -5 124q-9 37 -49 37q-8 0 -24 -2.5t-24 -2.5q-14 0 -23 10t-9 24q0 17 12.5 26.5t30.5 9.5q22 0 65 -5.5t69 -5.5q27 0 71 5.5t63 5.5q18 0 30.5 -9.5t12.5 -26.5q0 -14 -9 -24t-23 -10q-8 0 -24 2.5t-24 2.5q-40 0 -49 -37q-5 -24 -5 -124v-245
q0 -103 5 -124q10 -37 49 -37q8 0 24 2.5t24 2.5q14 0 23 -10t9 -24q0 -17 -12.5 -26.5t-30.5 -9.5q-24 0 -66 5.5t-68 5.5t-68 -5.5t-66 -5.5q-18 0 -30.5 9.5t-12.5 26.5q0 14 9 24t23 10q8 0 24 -2.5t24 -2.5q40 0 49 37q5 21 5 124z" />
    <glyph glyph-name="J" unicode="J" horiz-adv-x="620" 
d="M400 297v163q0 103 -5 124q-9 37 -49 37q-8 0 -24 -2.5t-24 -2.5q-14 0 -23 10t-9 24q0 17 12 26.5t27 9.5q21 0 64 -5.5t70 -5.5q26 0 68 5.5t66 5.5q21 0 34 -9.5t13 -26.5q0 -14 -9 -24t-23 -10q-8 0 -24 2.5t-24 2.5q-40 0 -49 -37q-5 -21 -5 -124v-62q0 -3 1 -63
t0 -86.5t-6.5 -69.5t-16.5 -66q-31 -66 -96.5 -102t-142.5 -36q-101 0 -173 52.5t-72 150.5q0 65 41.5 109.5t105.5 44.5q41 0 69.5 -22.5t28.5 -62.5q0 -23 -16.5 -42t-38.5 -19q-19 0 -34.5 12t-15.5 31q0 18 14 27q-7 5 -17 5q-23 0 -39 -26t-16 -51q0 -63 46.5 -101
t109.5 -38q106 0 150 72q15 25 22.5 59.5t8.5 56t1 64.5z" />
    <glyph glyph-name="K" unicode="K" horiz-adv-x="800" 
d="M237 345l282 239q20 16 20 25q0 12 -19 12q-10 0 -33.5 -2.5t-38.5 -2.5q-14 0 -23 10t-9 24q0 36 58 36q28 0 74.5 -5.5t71.5 -5.5q26 0 69 5.5t65 5.5q18 0 30.5 -9.5t12.5 -26.5q0 -14 -9 -24t-23 -10q-15 0 -35.5 2.5t-29.5 2.5q-10 0 -20 -4t-15.5 -7.5t-16.5 -13
t-15 -12.5l-177 -147q-21 -19 -21 -25q0 -7 15 -28l17 -24l164 -223l50 -62q17 -21 44 -21q6 0 22.5 2.5t29.5 2.5q14 0 23 -10t9 -24q0 -17 -12.5 -26.5t-30.5 -9.5q-17 0 -62 5.5t-72 5.5q-26 0 -70 -5.5t-64 -5.5q-74 0 -74 36q0 14 9 24t23 10q20 0 49 -2.5t41 -2.5
q25 0 25 12q0 6 -16 28l-178 241q-13 18 -18 18q-2 0 -6.5 -3.5t-9 -7.5t-6.5 -5l-100 -87v-35q0 -103 5 -124q10 -37 49 -37q8 0 24 2.5t24 2.5q14 0 23 -10t9 -24q0 -17 -12 -26.5t-31 -9.5q-25 0 -66.5 5.5t-67.5 5.5t-67.5 -5.5t-66.5 -5.5q-18 0 -30.5 9.5t-12.5 26.5
q0 14 9 24t23 10q8 0 24 -2.5t24 -2.5q40 0 49 37q5 21 5 124v245q0 103 -5 124q-9 37 -49 37q-8 0 -24 -2.5t-24 -2.5q-14 0 -23 10t-9 24q0 17 12.5 26.5t30.5 9.5q19 0 63 -5.5t71 -5.5q26 0 69 5.5t65 5.5q18 0 30.5 -9.5t12.5 -26.5q0 -14 -9 -24t-23 -10q-8 0 -24 2.5
t-24 2.5q-39 0 -49 -37q-5 -21 -5 -124v-115z" />
    <glyph glyph-name="L" unicode="L" horiz-adv-x="640" 
d="M152 215v245q0 103 -5 124q-9 37 -49 37q-8 0 -24 -2.5t-24 -2.5q-14 0 -23 10t-9 24q0 36 39 36q24 0 66 -5.5t68 -5.5t68 5.5t66 5.5q21 0 34 -9.5t13 -26.5q0 -14 -9 -24t-23 -10q-8 0 -24 2.5t-24 2.5q-39 0 -49 -37q-5 -21 -5 -124v-329q0 -49 12.5 -62.5
t57.5 -13.5h114q71 0 97 13q16 8 24 23t9 26.5t1 33.5q0 14 -2 42t-2 43q0 44 36 44q43 0 43 -40q0 -17 -4 -50.5t-4 -50.5q0 -16 4 -47t4 -46q0 -57 -56 -57q-63 0 -178 5t-146 6q-26 0 -87.5 -5.5t-98.5 -5.5q-45 0 -45 34q0 15 9.5 25.5t23.5 10.5q8 0 24 -3.5t24 -3.5
q34 0 44 33t10 130z" />
    <glyph glyph-name="M" unicode="M" horiz-adv-x="960" 
d="M338 597l140 -509h2l151 538q5 18 9.5 28.5t15.5 21t26 10.5q19 0 51 -5.5t52 -5.5t53.5 5.5t49.5 5.5q20 0 33.5 -9.5t13.5 -26.5q0 -14 -9 -24t-23 -10q-8 0 -24 2.5t-24 2.5q-40 0 -49 -37q-5 -21 -5 -124v-245q0 -103 5 -124q9 -37 49 -37q8 0 24 2.5t24 2.5
q14 0 23 -10t9 -24q0 -17 -13.5 -26.5t-33.5 -9.5t-63.5 5.5t-70.5 5.5q-25 0 -66.5 -5.5t-67.5 -5.5q-15 0 -27 9.5t-12 26.5q0 14 9 24t23 10q8 0 24 -2.5t24 -2.5q40 0 49 37q5 21 5 124v401q-3 0 -9 -18l-169 -562q-9 -29 -20 -39.5t-38 -10.5q-33 0 -44.5 10t-20.5 40
l-167 562q-6 18 -10 18v-401q0 -103 5 -124q9 -37 49 -37q8 0 24 2.5t24 2.5q14 0 23 -10t9 -24q0 -36 -43 -36q-21 0 -64.5 5.5t-69.5 5.5t-67.5 -5.5t-66.5 -5.5q-18 0 -30.5 9.5t-12.5 26.5q0 14 9 24t23 10q8 0 24 -2.5t24 -2.5q40 0 49 37q5 21 5 124v245q0 103 -5 124
q-9 37 -49 37q-8 0 -24 -2.5t-24 -2.5q-14 0 -23 10t-9 24q0 36 51 36q18 0 50.5 -5.5t52.5 -5.5t54 5.5t49 5.5q7 0 13.5 -1.5t11.5 -6t9 -8t8 -11t6 -11.5t5 -13.5t4 -12.5t4 -13.5t3 -11.5z" />
    <glyph glyph-name="N" unicode="N" horiz-adv-x="760" 
d="M151 215v245q0 103 -5 124q-9 37 -49 37q-8 0 -24 -2.5t-24 -2.5q-14 0 -23 10t-9 24q0 36 52 36q13 0 42 -5.5t48 -5.5t49.5 5.5t44.5 5.5q6 0 10.5 -1t9 -3.5t7.5 -4t6.5 -6.5t5.5 -7.5t5 -9t4 -9t4.5 -10.5t4.5 -10l245 -559h2v394q0 103 -5 124q-9 37 -49 37
q-8 0 -24 -2.5t-24 -2.5q-14 0 -23 10t-9 24q0 36 52 36q21 0 64.5 -5.5t69.5 -5.5q27 0 72 5.5t62 5.5q16 0 25 -10t9 -26q0 -14 -9 -24t-23 -10q-8 0 -24 2.5t-24 2.5q-39 0 -49 -37q-5 -18 -5 -124v-344q0 -28 -1.5 -46t-8 -43.5t-23.5 -38.5t-43 -13q-24 0 -42.5 14.5
t-26.5 29.5t-21 43l-238 544h-2v-391q0 -103 5 -124q10 -37 49 -37q8 0 24 2.5t24 2.5q14 0 23 -10t9 -24q0 -36 -52 -36q-22 0 -62 5.5t-66 5.5q-24 0 -64.5 -5.5t-57.5 -5.5q-52 0 -52 36q0 14 9 24t23 10q8 0 24 -2.5t24 -2.5q40 0 49 37q5 21 5 124z" />
    <glyph glyph-name="O" unicode="O" horiz-adv-x="680" 
d="M331 -25q-76 0 -134.5 31t-92 83t-50.5 115t-17 133q0 74 17.5 137.5t52 115t94 81t137.5 29.5q143 0 222 -102q35 -46 54 -114t19 -130q0 -64 -15.5 -132.5t-46.5 -117.5q-39 -62 -102 -95.5t-138 -33.5zM331 45q56 0 101.5 30.5t71.5 81.5q37 71 37 192q0 120 -43 189
q-54 89 -160 92q-49 -1 -86.5 -19.5t-60 -47t-37 -69t-20 -79.5t-5.5 -82q0 -119 43 -192q59 -96 159 -96z" />
    <glyph glyph-name="P" unicode="P" 
d="M151 215v245q0 103 -5 124q-9 37 -49 37q-8 0 -24 -2.5t-24 -2.5q-14 0 -23 10t-9 24q0 17 13.5 26.5t34.5 9.5q16 0 57 -5.5t73 -5.5q49 0 113 5.5t72 5.5q115 0 170 -32q88 -52 88 -163q0 -56 -26.5 -101t-75.5 -69q-29 -14 -72.5 -21t-66 -7.5t-77.5 -0.5h-57
q-14 0 -20 -4t-6 -18v-55q0 -100 5 -124q9 -37 49 -37q8 0 24 2.5t24 2.5q14 0 23 -10t9 -24q0 -17 -13 -26.5t-31 -9.5q-17 0 -62 5.5t-72 5.5t-70 -5.5t-64 -5.5q-17 0 -29.5 9.5t-12.5 26.5q0 14 9 24t23 10q8 0 24 -2.5t24 -2.5q40 0 49 37q5 21 5 124zM237 530v-147
q0 -22 24 -22h96q42 0 71.5 4t58.5 17t44 41t15 71q0 39 -18 71t-53 43t-136 11q-79 0 -95 -21q-7 -10 -7 -68z" />
    <glyph glyph-name="Q" unicode="Q" 
d="M457 10v-71q-2 -39 9 -62t47 -23q30 0 39.5 15t12.5 47q1 17 2.5 24.5t9.5 16.5t23 9q24 0 32.5 -13t8.5 -38q0 -45 -26 -79q-37 -47 -108 -47q-61 0 -93.5 33t-31.5 93v67q-20 -4 -30 -5q-20 -2 -30 -2q-74 0 -130.5 30.5t-89.5 82t-49 113t-16 129.5q0 152 60 248
q36 59 97.5 90.5t132.5 31.5q60 0 109 -20t81.5 -54t54.5 -80t32 -97t10 -106q0 -105 -37 -194t-120 -139zM450 110v-24q72 84 72 258q0 51 -8.5 96.5t-28 90.5t-59 72t-94.5 27q-48 0 -84.5 -18.5t-58.5 -48t-36 -70t-19 -79.5t-5 -82q0 -120 27 -179q31 -68 60 -85l2 2
q-26 38 -26 89t41.5 83.5t93.5 32.5q33 0 62.5 -16t44.5 -44q14 -26 16 -105zM382 56v67q0 92 -63 92q-34 0 -54.5 -22.5t-20.5 -56.5q0 -39 22 -65t60 -26q26 0 56 11z" />
    <glyph glyph-name="R" unicode="R" horiz-adv-x="740" 
d="M596 182v-48q0 -21 1 -31.5t6.5 -21.5t17.5 -15.5t32 -4.5q7 0 22.5 1.5t23.5 1.5q17 0 28.5 -9.5t11.5 -26.5q0 -16 -11 -27.5t-27 -11.5q-15 0 -42 1.5t-47 1.5q-103 0 -103 134v63q0 27 -1 42t-10 34.5t-26 30.5q-19 12 -43 15t-96 3q-55 0 -75.5 -9.5t-20.5 -38.5
v-51q0 -101 5 -124q9 -37 49 -37q8 0 24 2.5t24 2.5q14 0 23 -10t9 -24q0 -17 -12.5 -26.5t-30.5 -9.5q-19 0 -63 5.5t-71 5.5q-26 0 -67.5 -5.5t-66.5 -5.5q-18 0 -30.5 9.5t-12.5 26.5q0 14 9 24t23 10q8 0 24 -2.5t24 -2.5q40 0 49 37q5 21 5 124v245q0 103 -5 124
q-9 37 -49 37q-8 0 -24 -2.5t-24 -2.5q-14 0 -23 10t-9 24q0 17 12.5 26.5t30.5 9.5q30 0 83 -5.5t77 -5.5q48 0 108 5.5t77 5.5q106 0 153 -31q73 -47 73 -141q0 -75 -40 -113.5t-116 -51.5v-2q72 -8 96.5 -47t24.5 -118zM237 572v-163q0 -18 5 -22t26 -4h82q97 0 138 21
q51 26 51 103q0 121 -158 121q-80 0 -112 -13.5t-32 -42.5z" />
    <glyph glyph-name="S" unicode="S" horiz-adv-x="600" 
d="M317 388q116 -19 159 -46q78 -48 78 -150q0 -101 -72.5 -159t-175.5 -58q-126 0 -193 74l-2 -2l3 -35q0 -37 -37 -37q-21 0 -30.5 15.5t-9.5 54.5q0 25 4 60t4 49q0 18 -4 51t-4 48q0 20 10.5 33t29.5 13q40 0 40 -44q0 -8 -1 -22.5t-1 -22.5q0 -77 52 -121t130 -44
q72 0 115 28q26 17 41 46.5t15 61.5q0 34 -11 57t-35 36t-45.5 19t-57.5 12q-126 21 -173 45q-43 21 -67.5 61.5t-24.5 84.5q0 94 72 153q63 51 167 51q106 0 163 -64v14q0 41 31 41q36 0 36 -45q0 -17 -4 -50.5t-4 -50.5t4 -47t4 -41q0 -50 -39 -50q-18 0 -29 11.5
t-11 29.5q0 8 1.5 24.5t1.5 25.5q0 66 -45 99t-114 33q-61 0 -104.5 -31.5t-43.5 -90.5q0 -54 39 -79t138 -41z" />
    <glyph glyph-name="T" unicode="T" horiz-adv-x="640" 
d="M359 541v-326q0 -95 5 -124q7 -37 49 -37q8 0 24 2.5t24 2.5q14 0 23 -10t9 -24q0 -36 -42 -36q-21 0 -60.5 5.5t-74.5 5.5t-74.5 -5.5t-60.5 -5.5q-42 0 -42 36q0 14 9 24t23 10q8 0 24 -2.5t24 -2.5q42 0 49 37q5 29 5 124v326q0 53 -27 69q-21 12 -67 12t-68.5 -13.5
t-22.5 -57.5q0 -25 3 -58t3 -53q0 -31 -8.5 -40t-30.5 -9q-38 0 -38 49q0 18 4 44.5t4 43.5q0 18 -4 55t-4 55q0 48 42 48q32 0 115.5 -5.5t141.5 -5.5t141.5 5.5t115.5 5.5q42 0 42 -48q0 -18 -4 -55t-4 -55q0 -17 4 -43.5t4 -44.5q0 -49 -38 -49q-22 0 -30.5 9t-8.5 40
q0 20 3 53t3 58q0 44 -22.5 57.5t-68.5 13.5t-67 -12q-27 -16 -27 -69z" />
    <glyph glyph-name="U" unicode="U" horiz-adv-x="720" 
d="M117 203v256q0 95 -5 125q-6 37 -49 37q-8 0 -24 -2.5t-24 -2.5q-14 0 -23 10t-9 24q0 16 11 26t27 10q24 0 66 -5.5t68 -5.5q27 0 71 5.5t63 5.5q21 0 34.5 -9.5t13.5 -26.5q0 -14 -9 -24t-23 -10q-8 0 -24 2.5t-24 2.5q-42 0 -49 -37q-5 -30 -5 -125v-229
q0 -100 28 -136q38 -49 131 -49q86 0 129 46q33 35 33 139v229q0 95 -5 125q-6 37 -49 37q-8 0 -24 -2.5t-24 -2.5q-14 0 -23 10t-9 24q0 16 11 26t27 10q24 0 66 -5.5t68 -5.5q27 0 71 5.5t63 5.5q21 0 34.5 -9.5t13.5 -26.5q0 -14 -9 -24t-23 -10q-8 0 -24 2.5t-24 2.5
q-42 0 -49 -37q-5 -30 -5 -125v-205q0 -48 -1.5 -74.5t-13 -64.5t-34.5 -65q-63 -75 -198 -75q-112 0 -179 49q-41 30 -54 73.5t-13 105.5z" />
    <glyph glyph-name="V" unicode="V" horiz-adv-x="740" 
d="M238 539l150 -458h2l133 419q19 54 19 80q0 19 -11 29.5t-30 10.5q-6 0 -24 -2t-32 -2t-23 10t-9 24q0 17 12.5 26.5t30.5 9.5q20 0 56 -5.5t59 -5.5q22 0 58 5.5t57 5.5q18 0 30.5 -9.5t12.5 -26.5q0 -14 -8.5 -24t-17.5 -10q-5 0 -15.5 2t-16.5 2q-18 0 -26 -25
l-190 -552q-11 -32 -25 -46.5t-45 -14.5q-32 0 -45 13.5t-25 47.5l-176 496l-5 15l-5.5 16.5t-6 14.5t-9 14.5t-10.5 10t-14 8t-18 2.5q-7 0 -23.5 -2t-28.5 -2q-14 0 -23 10t-9 24q0 36 55 36q22 0 65 -5.5t69 -5.5q25 0 66.5 5.5t67.5 5.5q18 0 30.5 -9.5t12.5 -26.5
q0 -14 -9 -24t-23 -10t-31.5 2t-24.5 2q-38 0 -38 -31q0 -19 11 -50z" />
    <glyph glyph-name="W" unicode="W" horiz-adv-x="960" 
d="M828 519l-110 -468q-7 -33 -21 -51t-44 -18q-33 0 -48.5 22t-22.5 60l-100 523h-2l-112 -551q-6 -28 -17.5 -41t-38.5 -13q-34 0 -47 16t-22 53l-114 477q-9 45 -20 68q-11 24 -38 24q-6 0 -22 -2t-29 -2q-14 0 -23 10t-9 24q0 36 59 36q21 0 64.5 -5.5t69.5 -5.5t68 5.5
t66 5.5q18 0 30.5 -9.5t12.5 -26.5q0 -14 -9 -24t-23 -10q-15 0 -40.5 2t-38.5 2q-36 0 -36 -33q0 -12 12 -75l83 -413h2l103 513q10 48 25 65t47 17q58 0 71 -74l99 -529h2l84 406q13 62 13 83q0 42 -42 42q-8 0 -29.5 -3t-37.5 -3q-14 0 -23 10t-9 24q0 16 11 26t30 10
q24 0 66 -5.5t68 -5.5t68.5 5.5t65.5 5.5q18 0 30.5 -9.5t12.5 -26.5q0 -14 -9 -24t-23 -10q-7 0 -22.5 2.5t-23.5 2.5q-22 0 -35 -23q-5 -11 -22 -79z" />
    <glyph glyph-name="X" unicode="X" horiz-adv-x="800" 
d="M270 595l137 -180l135 172q15 17 15 27q0 8 -24 8q-10 0 -31 -3t-35 -3t-23 10t-9 24q0 16 10.5 26t27.5 10q24 0 66 -5.5t68 -5.5q27 0 70.5 5.5t63.5 5.5q21 0 32 -10.5t11 -25.5q0 -14 -9 -24t-23 -10q-12 0 -29 2.5t-23 2.5q-14 0 -28 -11t-40 -42l-175 -214
l232 -277q17 -21 45 -21q5 0 15 1.5t14 1.5q18 0 30.5 -9.5t12.5 -26.5q0 -14 -9 -24t-23 -10q-22 0 -65 5.5t-69 5.5q-22 0 -64 -5.5t-70 -5.5q-62 0 -62 37q0 15 12 24t30 9q12 0 34.5 -2t33.5 -2q23 0 23 11q0 12 -26 44l-148 185l-143 -185q-26 -33 -26 -44
q0 -10 26 -10q12 0 35.5 1.5t34.5 1.5q18 0 30.5 -9.5t12.5 -26.5q0 -14 -9 -24t-23 -10q-19 0 -61.5 5.5t-72.5 5.5q-29 0 -77.5 -5.5t-81.5 -5.5q-55 0 -55 34q0 17 12.5 26.5t30.5 9.5q8 0 22 -1.5t22 -1.5q27 0 49 22l50 59l176 217l-183 214q-27 32 -40 42.5t-28 10.5
q-8 0 -27 -2.5t-31 -2.5q-14 0 -23 10t-9 24q0 36 54 36q22 0 65 -5.5t69 -5.5t68 5.5t66 5.5q18 0 30.5 -9.5t12.5 -26.5q0 -14 -9 -24t-23 -10q-18 0 -42.5 3.5t-34.5 3.5q-14 0 -14 -7q0 -2 14 -21z" />
    <glyph glyph-name="Y" unicode="Y" horiz-adv-x="760" 
d="M237 586l152 -258l154 258q12 19 12 27q0 9 -24 9q-13 0 -38 -3t-38 -3q-14 0 -23 10t-9 24q0 15 12.5 25.5t32.5 10.5q24 0 66 -5.5t68 -5.5q27 0 71.5 5.5t62.5 5.5q43 0 43 -36q0 -14 -9 -24t-23 -10q-9 0 -29 3.5t-27 3.5q-13 0 -22.5 -5t-14 -10t-13.5 -19
l-213 -335v-44q0 -89 5 -119q7 -37 49 -37q8 0 24 2.5t24 2.5q18 0 30.5 -9.5t12.5 -26.5q0 -14 -9 -24t-23 -10q-21 0 -68.5 5.5t-87.5 5.5q-33 0 -74.5 -5.5t-64.5 -5.5q-49 0 -49 34q0 17 12.5 26.5t30.5 9.5q9 0 25.5 -2.5t25.5 -2.5q17 0 29.5 9t15.5 24q6 28 6 113v48
l-207 328q-27 44 -56 44q-8 0 -26.5 -2t-30.5 -2q-14 0 -23 10t-9 24q0 15 11.5 25.5t30.5 10.5q21 0 64.5 -5.5t69.5 -5.5t69.5 5.5t64.5 5.5q43 0 43 -36q0 -14 -9 -24t-23 -10q-16 0 -38 3t-28 3q-21 0 -21 -10q0 -3 13 -26z" />
    <glyph glyph-name="Z" unicode="Z" horiz-adv-x="620" 
d="M59 121l423 500h-237q-69 0 -95.5 -19.5t-26.5 -86.5q0 -12 1 -35t1 -34q0 -41 -40 -41q-37 0 -37 46q0 17 4 49t4 49q0 15 -4 44t-4 43q0 50 58 50h404q47 0 62.5 -11t15.5 -40q0 -15 -4.5 -24t-24.5 -33l-443 -517h242q81 0 111 9q45 13 45 77q0 14 -3.5 43.5
t-3.5 44.5q0 41 40 41q37 0 37 -46q0 -16 -4 -49t-4 -49q0 -15 4 -44t4 -43q0 -50 -58 -50h-417q-46 0 -64 14t-18 43q0 30 32 69z" />
    <glyph glyph-name="bracketleft" unicode="[" horiz-adv-x="340" 
d="M192 561v-570q0 -39 5.5 -52t22.5 -13q8 0 22 5t22 5q14 0 23 -10t9 -24q0 -36 -37 -36q-13 0 -37 5.5t-37 5.5t-28.5 -5.5t-23.5 -5.5q-16 0 -21.5 9t-5.5 37v728q0 46 27 46q8 0 23.5 -5.5t28.5 -5.5t39 5.5t39 5.5q33 0 33 -36q0 -14 -9 -24t-23 -10q-4 0 -22 5
q-12 5 -22 5q-17 0 -22.5 -13t-5.5 -52z" />
    <glyph glyph-name="backslash" unicode="\" horiz-adv-x="560" 
d="M366 -5l-288 691h66l287 -691h-65z" />
    <glyph glyph-name="bracketright" unicode="]" horiz-adv-x="340" 
d="M141 -9v570q0 39 -5.5 52t-22.5 13q-10 0 -22 -5q-17 -5 -22 -5q-14 0 -23 10t-9 24q0 36 33 36q13 0 39 -5.5t39 -5.5t28.5 5.5t23.5 5.5q27 0 27 -46v-728q0 -28 -5.5 -37t-21.5 -9q-8 0 -23.5 5.5t-28.5 5.5t-37 -5.5t-37 -5.5q-37 0 -37 36q0 14 9 24t23 10
q7 0 22 -5t22 -5q17 0 22.5 13t5.5 52z" />
    <glyph glyph-name="asciicircum" unicode="^" horiz-adv-x="620" 
d="M134 295h-82l212 405h78l212 -405h-82l-169 310z" />
    <glyph glyph-name="underscore" unicode="_" horiz-adv-x="500" 
d="M0 -75h500v-50h-500v50z" />
    <glyph glyph-name="grave" unicode="`" horiz-adv-x="340" 
d="M136 694l106 -91q19 -17 19 -26q0 -11 -14 -11q-1 0 -22 6l-138 51q-38 14 -38 44q0 19 13 33.5t32 14.5t42 -21z" />
    <glyph glyph-name="a" unicode="a" horiz-adv-x="600" 
d="M456 331l-4 -181q0 -1 -0.5 -15.5t-0.5 -20t0.5 -19.5t3 -21t6.5 -16t11.5 -13t17.5 -4q9 0 15.5 3.5t10.5 10.5t6.5 13.5t3 17t1 17t0 17.5t-0.5 14v9v10t0.5 9t1 8.5t2 7.5t4 7t6 4.5t8 3.5t10.5 1q35 0 35 -41q0 -65 -3 -92t-18 -46q-26 -36 -88 -36q-39 0 -67 18
t-35 54q-48 -76 -162 -76q-73 0 -119 29q-67 42 -67 119q0 87 68 127q42 25 134 36q4 0 22.5 2t25 2.5t22.5 3.5t22.5 6t17.5 9t16 13.5t9 18.5t4 24q0 47 -32 68.5t-81 21.5q-40 0 -77 -22q-23 -14 -23 -26q0 -1 6 -4.5t12 -12.5t6 -24q0 -22 -16 -34.5t-38 -12.5
q-26 0 -44 18.5t-18 45.5q0 59 62 103q53 37 132 37q85 0 137 -40q57 -44 55 -152zM117 127q0 -42 30 -63t74 -21q85 0 126 53q25 35 25 97q0 22 2 64q-7 -7 -15 -12t-15 -9t-18 -7t-17 -5t-19.5 -4t-18 -2.5t-19.5 -2t-18 -1.5q-24 -2 -41.5 -6t-36.5 -13t-29 -26t-10 -42z
" />
    <glyph glyph-name="b" unicode="b" horiz-adv-x="580" 
d="M312 455q-72 0 -115 -61q-31 -45 -31 -128q0 -97 21 -148q15 -36 47.5 -55.5t72.5 -19.5q80 0 118 61t38 148q0 86 -35.5 144.5t-115.5 58.5zM89 37v506v12v16t-0.5 15.5t-2.5 16.5t-5 13t-8.5 10t-12.5 3q-9 0 -24 -3t-22 -3q-15 0 -24.5 9.5t-9.5 23.5q0 15 11 26
t28 11q14 0 32.5 -5.5t31.5 -5.5q12 0 31 5.5t33 5.5q12 0 15.5 -6t3.5 -22v-216h2q58 74 150 74q111 0 169.5 -73t58.5 -188q0 -120 -61 -203.5t-176 -83.5q-111 0 -153 79l-2 -2q5 -22 5 -31q0 -35 -36 -35q-10 0 -17 3t-10 6t-5 12t-2 13.5v16.5z" />
    <glyph glyph-name="c" unicode="c" horiz-adv-x="500" 
d="M275 43q46 0 79.5 26t45.5 71q1 2 3 11.5t3 13t4 11t5.5 11t7 8t10.5 6t13 1.5q16 0 27.5 -11.5t11.5 -27.5q0 -28 -17 -64.5t-38 -58.5q-59 -65 -160 -65q-109 0 -170.5 76.5t-61.5 187.5q0 123 63 203.5t183 80.5q70 0 121 -36q29 -20 48 -53t19 -67q0 -38 -19 -64.5
t-56 -26.5q-24 0 -41.5 15.5t-17.5 39.5q0 21 15 33t37 13q-1 36 -36 57t-74 21q-53 0 -90.5 -32t-53 -77t-15.5 -97q0 -85 37 -145.5t117 -60.5z" />
    <glyph glyph-name="d" unicode="d" horiz-adv-x="600" 
d="M499 650v-513q0 -50 6.5 -67t22.5 -17q9 0 24 3t22 3q15 0 24.5 -9.5t9.5 -23.5q0 -17 -10 -27t-23 -10q-8 0 -27.5 5.5t-31.5 5.5q-11 0 -26.5 -5.5t-27.5 -5.5q-20 0 -27.5 10t-7.5 38v10h-2q-22 -36 -64 -54t-90 -18q-113 0 -173 80t-60 197q0 114 58.5 192.5
t168.5 78.5q107 0 155 -75h2v97q0 52 -6.5 68t-22.5 16q-9 0 -24 -3t-22 -3q-15 0 -24.5 9.5t-9.5 23.5q0 16 11.5 26.5t26.5 10.5q14 0 35.5 -5.5t35.5 -5.5t32.5 5.5t27.5 5.5q17 0 17 -43zM270 455q-54 0 -89 -33t-47.5 -77t-12.5 -98q0 -83 39 -143.5t116 -60.5
q89 0 123 69q23 46 23 141q0 101 -32 145q-41 57 -120 57z" />
    <glyph glyph-name="e" unicode="e" horiz-adv-x="540" 
d="M460 238h-339q-3 -81 39.5 -138t121.5 -57q52 0 88 25.5t50 73.5q4 12 5 16.5t5.5 13t11 11.5t16.5 3q17 0 28.5 -10.5t11.5 -27.5q0 -29 -17.5 -61t-41.5 -54q-61 -58 -163 -58q-114 0 -176 74.5t-62 190.5q0 119 59 195q69 88 184 88q101 0 164 -65t63 -166
q0 -38 -6.5 -46t-41.5 -8zM130 310h295q-4 64 -40.5 104.5t-100.5 40.5t-106.5 -40.5t-47.5 -104.5z" />
    <glyph glyph-name="f" unicode="f" horiz-adv-x="420" 
d="M127 110v283q0 18 -4 24.5t-17 6.5h-45q-42 0 -42 38q0 17 10 26.5t25 9.5h39q25 0 29.5 3t4.5 18q0 181 171 181q53 0 96.5 -23.5t43.5 -71.5q0 -24 -14 -38t-38 -14q-18 0 -32 13t-14 31q0 13 10 26q-15 16 -52 16q-49 0 -71.5 -32t-22.5 -84q0 -17 3 -21t12 -4h67
q46 0 46 -36q0 -38 -47 -38h-63q-18 0 -18 -17v-298q0 -56 29 -56q9 0 24 3t22 3q15 0 24.5 -9.5t9.5 -23.5q0 -16 -13 -26.5t-30 -10.5q-13 0 -43 5.5t-60 5.5q-23 0 -56.5 -5.5t-49.5 -5.5q-17 0 -30 11.5t-13 25.5t9.5 23.5t24.5 9.5q7 0 22 -3t24 -3q29 0 29 57z" />
    <glyph glyph-name="g" unicode="g" horiz-adv-x="560" 
d="M228 124h37q107 0 167 -20q51 -17 84 -53t33 -87q0 -45 -25.5 -78.5t-67 -50t-82.5 -24t-83 -7.5t-82 6.5t-81 22.5t-65.5 48.5t-24.5 77.5q0 43 26 74t68 44v2q-84 29 -84 95q0 38 23 64t61 37q-28 32 -28 87q0 74 57.5 117.5t133.5 43.5q37 0 60 -7q-2 47 32.5 75
t82.5 28q45 0 79 -24t34 -67q0 -23 -15.5 -40.5t-38.5 -17.5q-16 0 -28 11.5t-12 27.5q0 17 22 33q-14 20 -42 20t-42.5 -19.5t-12.5 -48.5q36 -22 57 -60t21 -81q0 -77 -56.5 -123t-133.5 -46q-53 0 -115 27q-16 7 -27 7q-16 0 -26.5 -13.5t-10.5 -29.5q0 -51 105 -51z
M297 251q48 0 82.5 27.5t35.5 76.5q-1 46 -35.5 74.5t-81.5 28.5t-80 -29t-33 -75q0 -48 32 -75.5t80 -27.5zM296 53q-81 0 -122 -20q-53 -26 -53 -73q0 -26 19 -46t46 -30q42 -15 106 -15q26 0 52 3.5t55.5 13t48 29t18.5 47.5t-17.5 47.5t-46 28t-54 12t-52.5 3.5z" />
    <glyph glyph-name="h" unicode="h" 
d="M553 332v-195q0 -50 6 -67t23 -17q9 0 24 3t22 3q15 0 24.5 -9.5t9.5 -23.5q0 -17 -12 -27t-31 -10q-15 0 -46.5 5.5t-56.5 5.5q-24 0 -57 -5.5t-49 -5.5q-17 0 -30 10.5t-13 26.5q0 14 9.5 23.5t24.5 9.5q7 0 22 -3t24 -3q18 0 23.5 17.5t5.5 66.5v100q0 109 -9 140
q-11 38 -42 58t-72 20q-84 0 -121 -53q-26 -38 -26 -131v-134q0 -50 6 -67t23 -17q9 0 24 3t22 3q15 0 24.5 -9.5t9.5 -23.5q0 -17 -12 -27t-31 -10q-15 0 -46.5 5.5t-56.5 5.5q-24 0 -57 -5.5t-49 -5.5q-17 0 -30 10.5t-13 26.5q0 14 9.5 23.5t24.5 9.5q7 0 22 -3t24 -3
q18 0 23.5 17.5t5.5 66.5v408q0 38 -5 58t-10 23t-14 3t-24 -3t-22 -3q-15 0 -24.5 9.5t-9.5 23.5q0 16 12.5 26.5t25.5 10.5q16 0 36.5 -5.5t29.5 -5.5q14 0 29.5 5.5t24.5 5.5q18 0 23 -11.5t5 -40.5v-183q65 65 153 65q83 0 141 -50q53 -46 53 -141z" />
    <glyph glyph-name="i" unicode="i" horiz-adv-x="320" 
d="M132 137v224q0 51 -6 67.5t-23 16.5q-9 0 -24 -3t-22 -3q-15 0 -24.5 9.5t-9.5 23.5q0 17 10 27t25 10q14 0 34 -5.5t32 -5.5q13 0 30.5 5.5t26.5 5.5q28 0 28 -43v-372q0 -41 26 -41q4 0 18 3.5t22 2.5q15 0 24.5 -9.5t9.5 -23.5q0 -16 -13 -26.5t-30 -10.5
q-16 0 -48 5.5t-55 5.5q-22 0 -55.5 -5.5t-50.5 -5.5q-13 0 -23.5 11.5t-10.5 25.5t9.5 23.5t24.5 9.5q7 0 22 -3t24 -3q17 0 23 18.5t6 65.5zM153 675q24 0 41 -16.5t17 -40.5t-17 -41t-41 -17q-23 0 -40 17t-17 41t17 40.5t40 16.5z" />
    <glyph glyph-name="j" unicode="j" horiz-adv-x="280" 
d="M116 13v348q0 50 -7 67t-22 17q-9 0 -24 -3t-22 -3q-15 0 -24.5 9.5t-9.5 23.5q0 16 13 26.5t30 10.5q12 0 31.5 -5.5t32.5 -5.5t32 5.5t29 5.5q25 0 25 -34q0 -22 -3.5 -67t-3.5 -68v-320q0 -102 -30 -149q-47 -73 -150 -73q-55 0 -99 26.5t-44 77.5q0 22 14.5 39
t36.5 17q19 0 33.5 -11t14.5 -30q0 -24 -16 -37q25 -21 57 -21q35 0 57.5 12.5t32.5 36.5t13 47.5t3 57.5zM143 676q24 0 40.5 -17t16.5 -41q0 -23 -16.5 -40t-40.5 -17t-41 17t-17 40q0 24 17 41t41 17z" />
    <glyph glyph-name="k" unicode="k" horiz-adv-x="640" 
d="M473 413l-115 -106l138 -178q59 -76 79 -76q8 0 20.5 3t18.5 3q12 0 21 -9.5t9 -23.5q0 -16 -13 -26.5t-30 -10.5q-16 0 -45.5 5.5t-57.5 5.5q-26 0 -55.5 -5.5t-44.5 -5.5q-16 0 -28 10t-12 27q0 14 9.5 23.5t24.5 9.5q8 0 22 -3t20 -3q8 0 8 7q0 6 -16 28l-126 168
l-94 -84q0 -119 28 -119q7 0 20.5 3t20.5 3q33 0 33 -31q0 -17 -11.5 -28t-28.5 -11q-16 0 -46 5.5t-53 5.5q-24 0 -57 -5.5t-49 -5.5q-17 0 -30 10.5t-13 26.5q0 14 9.5 23.5t24.5 9.5q7 0 22 -3t24 -3q18 0 23.5 17.5t5.5 66.5v408q0 38 -5 58t-10 23t-14 3t-24 -3t-22 -3
q-15 0 -24.5 9.5t-9.5 23.5q0 16 12.5 26.5t25.5 10.5q16 0 36.5 -5.5t29.5 -5.5q14 0 29.5 5.5t24.5 5.5q18 0 23 -11.5t5 -40.5v-385l169 157q19 18 19 26t-16 8q-7 0 -23.5 -4t-27.5 -4q-15 0 -24 10t-9 23q0 37 54 37q19 0 55.5 -5.5t60.5 -5.5q18 0 51.5 5.5t49.5 5.5
q17 0 26.5 -10t9.5 -27q0 -14 -8 -23.5t-21 -9.5q-6 0 -19 3t-20 3q-16 0 -26.5 -6t-33.5 -26z" />
    <glyph glyph-name="l" unicode="l" horiz-adv-x="320" 
d="M138 137v408q0 38 -5 58t-10 23t-14 3q-8 0 -25.5 -3t-29.5 -3q-15 0 -24.5 9.5t-9.5 23.5q0 17 13.5 27t32.5 10q17 0 37.5 -5.5t29.5 -5.5q14 0 29.5 5.5t24.5 5.5q18 0 23 -11.5t5 -40.5v-504q0 -51 7 -67.5t22 -16.5q9 0 24 3t22 3q15 0 24.5 -9.5t9.5 -23.5
q0 -16 -13 -26.5t-30 -10.5q-15 0 -46 5.5t-57 5.5q-24 0 -57 -5.5t-49 -5.5q-17 0 -30 10.5t-13 26.5q0 14 9.5 23.5t24.5 9.5q7 0 22 -3t24 -3q17 0 23 19.5t6 64.5z" />
    <glyph glyph-name="m" unicode="m" horiz-adv-x="960" 
d="M765 138v123q-1 105 -12 129q-28 65 -107 65q-33 0 -62 -16.5t-42 -45.5q-18 -41 -18 -140v-115q0 -47 6 -66t23 -19q9 0 24 3t22 3q15 0 24.5 -9.5t9.5 -23.5q0 -37 -43 -37q-15 0 -46.5 5.5t-55.5 5.5q-26 0 -58 -5.5t-49 -5.5q-43 0 -43 37q0 14 9.5 23.5t24.5 9.5
q7 0 22 -3t24 -3q18 0 23.5 17.5t5.5 67.5v151q0 80 -7 102q-8 26 -36 45t-62 19q-77 0 -111 -59q-15 -27 -20 -52.5t-5 -87.5v-118q0 -47 6 -66t23 -19q9 0 24 3t22 3q15 0 24.5 -9.5t9.5 -23.5q0 -37 -43 -37q-15 0 -46.5 5.5t-55.5 5.5q-26 0 -58 -5.5t-49 -5.5
q-43 0 -43 37q0 14 9.5 23.5t24.5 9.5q7 0 22 -3t24 -3q18 0 23.5 17.5t5.5 67.5v222q0 51 -6 68t-23 17q-9 0 -24 -3t-22 -3q-15 0 -24.5 9.5t-9.5 23.5q0 13 12 25t25 12q10 0 25 -5.5t29 -5.5q15 0 33 5.5t30 5.5q14 0 18 -13.5t4 -46.5h2q55 74 148 74q104 0 147 -74
q53 74 159 74q105 0 150 -56q19 -23 28 -52.5t10.5 -50t1.5 -60.5v-166q0 -47 6 -66t23 -19q9 0 24 3t22 3q15 0 24.5 -9.5t9.5 -23.5q0 -37 -43 -37q-15 0 -46.5 5.5t-55.5 5.5q-25 0 -57.5 -5.5t-49.5 -5.5q-43 0 -43 37q0 14 9.5 23.5t24.5 9.5q7 0 22 -3t24 -3
q18 0 23.5 17.5t5.5 67.5z" />
    <glyph glyph-name="n" unicode="n" 
d="M129 138v222q0 51 -6 68t-23 17q-9 0 -24 -3t-22 -3q-15 0 -24.5 9.5t-9.5 23.5q0 13 12 25t25 12q10 0 25 -5.5t29 -5.5q15 0 33 5.5t30 5.5q14 0 18 -13.5t4 -46.5h2q54 74 167 74q85 0 145 -54q30 -27 38 -60.5t8 -85.5v-186q0 -47 6 -66t23 -19q9 0 24 3t22 3
q15 0 24.5 -9.5t9.5 -23.5q0 -36 -43 -36q-15 0 -46.5 5.5t-55.5 5.5q-26 0 -58 -5.5t-49 -5.5q-43 0 -43 36q0 14 9.5 23.5t24.5 9.5q7 0 22 -3t24 -3q18 0 23.5 17.5t5.5 67.5v148q0 53 -2.5 73t-13.5 42q-14 27 -44.5 41t-64.5 14q-36 0 -70 -15t-52 -43
q-26 -41 -26 -141v-118q0 -47 6 -66t23 -19q9 0 24 3t22 3q15 0 24.5 -9.5t9.5 -23.5q0 -37 -43 -37q-15 0 -46.5 5.5t-55.5 5.5q-26 0 -58 -5.5t-49 -5.5q-43 0 -43 37q0 14 9.5 23.5t24.5 9.5q7 0 22 -3t24 -3q18 0 23.5 17.5t5.5 67.5z" />
    <glyph glyph-name="o" unicode="o" horiz-adv-x="560" 
d="M38 248q0 118 61.5 196.5t176.5 78.5q122 0 183 -76q63 -77 63 -196t-65 -197.5t-182 -78.5q-114 0 -175.5 78.5t-61.5 194.5zM121 251q0 -54 13.5 -98.5t50 -77t91.5 -32.5q85 0 124 61t39 151q0 87 -36 142q-37 58 -121 58q-87 0 -127 -68q-34 -58 -34 -136z" />
    <glyph glyph-name="p" unicode="p" horiz-adv-x="620" 
d="M356 455q-45 0 -82 -21.5t-51 -61.5q-17 -51 -17 -148q0 -88 27 -127q37 -54 110 -54q85 0 122.5 59t37.5 150q0 40 -7 73.5t-22.5 64t-45.5 48t-72 17.5zM129 -40v401q0 46 -6 65t-23 19q-9 0 -24 -3t-22 -3q-15 0 -24.5 9.5t-9.5 23.5q0 17 13.5 27t30.5 10
q8 0 26.5 -5.5t28.5 -5.5q9 0 28 5.5t29 5.5q26 0 26 -31v-33h2q23 38 64.5 58t88.5 20q113 0 171 -73t58 -190q0 -116 -51 -190q-31 -46 -81 -70.5t-107 -24.5q-97 0 -139 62h-2v-79q0 -48 7 -65t22 -17q9 0 24 3t22 3q15 0 24.5 -9.5t9.5 -23.5q0 -17 -13.5 -27t-30.5 -10
q-19 0 -54 5.5t-52 5.5q-19 0 -53 -5.5t-48 -5.5q-17 0 -30.5 10t-13.5 27q0 14 9.5 23.5t24.5 9.5q7 0 22 -3t24 -3q17 0 23 17.5t6 66.5z" />
    <glyph glyph-name="q" unicode="q" horiz-adv-x="600" 
d="M417 -43v76q-51 -58 -144 -58q-113 0 -174 80t-61 198q0 114 52 186q61 84 181 84q102 0 157 -71l2 2q-7 55 34 55q16 0 23 -10t7 -37v-502q0 -50 7 -67t22 -17q9 0 24 3t22 3q15 0 24.5 -9.5t9.5 -23.5q0 -16 -13 -26.5t-30 -10.5q-14 0 -47.5 5.5t-51.5 5.5t-53.5 -5.5
t-52.5 -5.5q-20 0 -33.5 10t-13.5 27q0 14 9.5 23.5t24.5 9.5q7 0 22 -3t24 -3q18 0 23.5 17.5t5.5 63.5zM270 455q-40 0 -70.5 -17.5t-47 -47t-24 -63t-7.5 -70.5q0 -54 13 -100t49 -80t90 -34q78 0 119 61q25 38 25 122q0 113 -22 155q-19 35 -52 54.5t-73 19.5z" />
    <glyph glyph-name="r" unicode="r" horiz-adv-x="520" 
d="M142 137v224q0 50 -6.5 67t-23.5 17q-7 0 -25.5 -3t-32.5 -3q-15 0 -24.5 9.5t-9.5 23.5q0 17 13.5 27t31.5 10q9 0 27 -5.5t31 -5.5t30.5 5.5t26.5 5.5q18 0 23.5 -14t4.5 -47h2q46 75 141 75q67 0 114 -38t47 -103q0 -43 -20.5 -73t-63.5 -30q-21 0 -37.5 13.5
t-16.5 34.5q0 17 12 30t29 13q1 0 13 -3q6 12 6 23q0 32 -28 51t-61 19q-61 0 -93.5 -43t-32.5 -146v-134q0 -50 8 -67t24 -17q9 0 24 3t22 3q15 0 24.5 -9.5t9.5 -23.5q0 -16 -13 -26.5t-30 -10.5q-16 0 -49 5.5t-54 5.5t-53.5 -5.5t-52.5 -5.5q-18 0 -31.5 10t-13.5 27
q0 14 9.5 23.5t24.5 9.5q7 0 22 -3t24 -3q17 0 22.5 16t5.5 68z" />
    <glyph glyph-name="s" unicode="s" horiz-adv-x="520" 
d="M283 213q-33 4 -50.5 6.5t-48 9t-47.5 16.5t-36 25t-27.5 38t-8.5 53q0 76 58 119t137 43q77 0 118 -35q-5 42 32 42q34 0 34 -33q0 -13 -3 -37t-3 -37t3 -37.5t3 -36.5q0 -16 -9.5 -26.5t-26.5 -10.5q-32 0 -32 48q0 28 -4 38.5t-18 20.5q-49 36 -94 36q-44 0 -78 -23
t-34 -65q0 -36 26.5 -52.5t92.5 -24.5q111 -15 159 -46t48 -105q0 -79 -61.5 -121.5t-145.5 -42.5q-89 0 -146 47q4 -26 -6 -41t-28 -15q-19 0 -28.5 12t-9.5 30q0 15 4 42.5t4 41.5q0 13 -4 39.5t-4 40.5q0 36 35 36q30 0 31 -33q3 -36 4.5 -47t6.5 -22t16 -21
q23 -20 61 -31t72 -11q53 0 82 23q34 27 34 65q0 42 -30 59t-78 23z" />
    <glyph glyph-name="t" unicode="t" horiz-adv-x="400" 
d="M93 181v221q0 23 -6 29t-29 6q-31 0 -44.5 7.5t-13.5 29.5q0 13 11.5 24.5t26.5 11.5h35q13 0 16.5 5.5t3.5 26.5v82q0 25 8 38t31 13q38 0 38 -50v-99q0 -11 3 -13.5t14 -2.5h100q29 0 40 -9t11 -28q0 -36 -54 -36h-88q-17 0 -21.5 -3.5t-4.5 -16.5v-242q0 -67 16.5 -93
t56.5 -26q71 0 71 99v32q0 34 9 48.5t31 14.5q37 0 37 -48q0 -49 -5.5 -83.5t-21.5 -67t-49 -49t-84 -16.5q-86 0 -118 60q-12 23 -16 49t-4 86z" />
    <glyph glyph-name="u" unicode="u" horiz-adv-x="640" 
d="M106 147v214q0 84 -34 84q-9 0 -24 -3t-22 -3q-15 0 -24.5 9.5t-9.5 23.5q0 17 14 27t35 10q9 0 28.5 -5.5t29.5 -5.5q9 0 28 5.5t29 5.5q19 0 26 -10.5t7 -30.5q0 -44 -3 -93t-3 -81v-45q0 -97 11 -134q11 -36 42 -54t71 -18q47 0 82.5 21.5t48.5 64.5q16 50 16 164v68
q0 84 -36 84q-9 0 -24 -3t-22 -3q-15 0 -24.5 9.5t-9.5 23.5q0 17 13.5 27t33.5 10q12 0 32 -5.5t30 -5.5q9 0 28 5.5t29 5.5q30 0 30 -34q0 -25 -1.5 -74t-1.5 -76v-188q0 -50 7 -67t22 -17q9 0 24 3t22 3q15 0 24.5 -9.5t9.5 -23.5q0 -16 -13 -26.5t-30 -10.5
q-9 0 -28 5.5t-29 5.5t-29.5 -5.5t-28.5 -5.5q-26 0 -24 61h-2q-49 -75 -162 -75q-79 0 -133 41q-53 41 -55 131z" />
    <glyph glyph-name="v" unicode="v" horiz-adv-x="640" 
d="M202 403l125 -335l111 310q15 39 15 49q0 21 -15 21q-3 0 -15 -4q-10 -5 -24 -5q-13 0 -23 10t-10 27q0 14 9.5 23.5t24.5 9.5q10 0 43 -5.5t52 -5.5q18 0 51 5.5t46 5.5q19 0 29.5 -9t10.5 -24q0 -16 -11.5 -26.5t-23.5 -10.5q-9 0 -21 5q-14 4 -19 4q-2 0 -3 -0.5
t-2.5 -2l-3 -3t-3 -4.5t-2.5 -6t-3.5 -8.5t-4 -10t-4.5 -12t-6 -14.5l-136 -348q-11 -28 -26 -43t-42 -15q-42 0 -65 58l-139 359q-20 50 -38 50q-7 0 -19 -4q-10 -5 -20 -5q-11 0 -19 10t-8 27q0 33 40 33q15 0 44 -5.5t48 -5.5q18 0 51.5 5.5t48.5 5.5q44 0 44 -33
q0 -16 -12 -26.5t-23 -10.5q-9 0 -21 5q-16 4 -23 4q-16 0 -16 -16q0 -5 8 -29z" />
    <glyph glyph-name="w" unicode="w" horiz-adv-x="840" 
d="M500 78l-74 354h-2l-77 -348q-13 -60 -29 -82.5t-50 -22.5q-25 0 -41 17.5t-26 57.5l-89 335q-12 46 -21 53q-5 4 -13 4q-7 0 -20 -3.5t-19 -3.5q-14 0 -26.5 10.5t-12.5 26.5q0 33 59 33q17 0 52.5 -5.5t53.5 -5.5t52 5.5t51 5.5q15 0 24.5 -9.5t9.5 -23.5
q0 -16 -12.5 -26.5t-26.5 -10.5q-8 0 -23 3.5t-24 3.5q-27 0 -27 -31q0 -11 11 -61l71 -301h2l76 350q14 66 30 87t45 21q33 0 48 -21.5t29 -86.5l74 -350h2l77 323q6 26 6 43q0 27 -24 27q-9 0 -25.5 -3.5t-24.5 -3.5q-15 0 -26 10t-11 27q0 33 55 33q17 0 52.5 -5.5
t53.5 -5.5t52 5.5t51 5.5q15 0 24.5 -9.5t9.5 -23.5q0 -16 -12 -26.5t-23 -10.5q-7 0 -18.5 3.5t-16.5 3.5q-16 0 -28 -25t-33 -102l-64 -241q-15 -58 -30 -78.5t-47 -20.5q-30 0 -46 21t-29 78z" />
    <glyph glyph-name="x" unicode="x" 
d="M237 428l72 -86q15 -19 21 -19t22 19l69 79q13 14 13 22q0 5 -8 5q-2 0 -10 -4q-7 -5 -12 -5q-15 0 -26 11t-11 26q0 14 9.5 23.5t25.5 9.5q17 0 52.5 -5.5t53.5 -5.5t52 5.5t51 5.5q15 0 24.5 -9.5t9.5 -23.5q0 -16 -12 -26.5t-25 -10.5q-10 0 -22 5q-16 4 -23 4
q-15 0 -28.5 -10t-47.5 -48l-91 -105q-15 -17 -15 -22q0 -4 15 -23l133 -157q22 -27 41 -27q6 0 19.5 2t21.5 2q15 0 24.5 -10t9.5 -24q0 -16 -13 -26.5t-30 -10.5t-51 5.5t-52 5.5q-19 0 -52.5 -5.5t-47.5 -5.5q-19 0 -30 10t-11 27q0 14 9.5 24t24.5 10q9 0 23.5 -2
t19.5 -2q12 0 12 7q0 1 -5 8l-98 115q-11 16 -18 16q-3 0 -19 -16l-89 -103q-15 -15 -15 -22q0 -5 9 -5q7 0 22.5 2t23.5 2q15 0 24.5 -10t9.5 -24q0 -16 -13 -26.5t-30 -10.5t-51 5.5t-52 5.5q-19 0 -52.5 -5.5t-45.5 -5.5q-39 0 -39 37q0 14 9.5 24t24.5 10q7 0 20.5 -2
t20.5 -2q18 0 61 51l115 133q15 15 15 20q0 2 -14 20l-119 141q-23 27 -41 27q-7 0 -21 -4q-12 -5 -26 -5t-24.5 10.5t-10.5 26.5q0 14 9.5 23.5t24.5 9.5q18 0 53 -5.5t55 -5.5t53.5 5.5t49.5 5.5q15 0 24.5 -9.5t9.5 -23.5q0 -13 -11 -25t-26 -12q-6 0 -13 5q-8 4 -11 4
q-12 0 -12 -4q0 -3 12 -16z" />
    <glyph glyph-name="y" unicode="y" horiz-adv-x="640" 
d="M206 424l120 -359h2l121 331q9 25 9 35q0 17 -24 17q-6 0 -22 -4q-12 -5 -25 -5q-12 0 -21 9.5t-9 23.5q0 16 12.5 26.5t25.5 10.5q17 0 50.5 -5.5t55.5 -5.5q21 0 54 5.5t49 5.5q15 0 24.5 -9.5t9.5 -23.5t-10 -25.5t-21 -11.5q-10 0 -20 5q-12 4 -17 4q-12 0 -20 -12
t-23 -50l-127 -318q-19 -48 -33 -78.5t-39 -71t-51 -63.5t-65.5 -40t-86.5 -17q-54 0 -99.5 30t-45.5 81q0 29 18.5 50t47.5 21q24 0 40 -13.5t16 -36.5q0 -15 -8.5 -26.5t-21.5 -13.5q12 -25 57 -25q58 0 97 39q46 46 46 92q0 13 -4 28.5t-8.5 26.5t-12.5 29t-11 26
l-109 277q-15 39 -25 52.5t-21 13.5q-6 0 -22.5 -5t-29.5 -5q-11 0 -19.5 9.5t-8.5 23.5q0 16 12.5 26.5t26.5 10.5q17 0 51 -5.5t55 -5.5q20 0 53.5 5.5t49.5 5.5q17 0 30 -10.5t13 -26.5q0 -14 -8 -23.5t-18 -9.5q-11 0 -26 5q-18 4 -25 4q-17 0 -9 -24z" />
    <glyph glyph-name="z" unicode="z" horiz-adv-x="540" 
d="M68 112l327 327h-236q-38 0 -38 -27q0 -10 3.5 -32t3.5 -33q0 -17 -8.5 -29t-24.5 -12q-37 0 -37 44q0 13 3 37t3 36q0 10 -3 29.5t-3 28.5q0 17 9.5 22.5t41.5 5.5h329q35 0 48.5 -10.5t13.5 -35.5q0 -15 -8 -27.5t-38 -42.5l-327 -328h256q27 0 39 9t12 36q0 12 -2 38
t-2 39q0 18 10.5 30t27.5 12q31 0 31 -42q0 -14 -2.5 -43.5t-2.5 -44.5q0 -11 2.5 -33t2.5 -33q0 -38 -50 -38h-344q-71 0 -71 55q0 17 7 29t27 33z" />
    <glyph glyph-name="braceleft" unicode="{" horiz-adv-x="280" 
d="M186 576v-166q0 -59 -16.5 -89.5t-67.5 -40.5v-2q51 -10 67.5 -40.5t16.5 -89.5v-166q0 -61 30 -73q1 -1 6.5 -3t9.5 -3.5t8.5 -4.5t7 -6t2.5 -7q0 -6 -7 -9.5t-14 -3.5q-73 0 -101 29.5t-28 97.5v175q0 33 -9.5 51t-20.5 22q-34 14 -34 24v16q0 10 34 24q11 4 20.5 22
t9.5 51v175q0 68 28.5 97.5t100.5 29.5q7 0 14 -3.5t7 -9.5q0 -4 -2.5 -7t-7 -6t-8.5 -4.5t-9.5 -3.5t-6.5 -3q-30 -15 -30 -73z" />
    <glyph glyph-name="bar" unicode="|" horiz-adv-x="620" 
d="M283 -250v1000h59v-1000h-59z" />
    <glyph glyph-name="braceright" unicode="}" horiz-adv-x="280" 
d="M100 410v166q0 58 -30 73q-1 1 -6.5 3t-9.5 3.5t-8.5 4.5t-7 6t-2.5 7q0 6 7 9.5t14 3.5q72 0 100.5 -29.5t28.5 -97.5v-175q0 -33 9.5 -51t20.5 -22q34 -14 34 -24v-16q0 -10 -34 -24q-11 -4 -20.5 -22t-9.5 -51v-175q0 -68 -28 -97.5t-101 -29.5q-7 0 -14 3.5t-7 9.5
q0 4 2.5 7t7 6t8.5 4.5t9.5 3.5t6.5 3q30 12 30 73v166q0 59 16.5 89.5t67.5 40.5v2q-51 10 -67.5 40.5t-16.5 89.5z" />
    <glyph glyph-name="asciitilde" unicode="~" horiz-adv-x="620" 
d="M513 359l42 -47q-62 -111 -142 -111q-11 0 -24.5 3t-30.5 9t-27.5 10t-30 12.5t-22.5 9.5q-59 25 -84 25q-19 0 -34 -7t-29 -24.5t-19.5 -26t-19.5 -32.5l-41 48q30 54 62.5 86t80.5 32q41 0 117 -35q82 -35 103 -35q55 0 99 83z" />
    <glyph glyph-name="uni00A0" unicode="&#xa0;" horiz-adv-x="380" 
 />
    <glyph glyph-name="exclamdown" unicode="&#xa1;" horiz-adv-x="340" 
d="M165 394q-26 0 -45 19t-19 45q0 27 19 46t45 19q27 0 46 -19t19 -46q0 -26 -19 -45t-46 -19zM202 307l4 -440q0 -55 -43 -55t-43 55l4 440q0 16 2 25.5t10.5 17.5t24.5 8q26 0 33.5 -13.5t7.5 -37.5z" />
    <glyph glyph-name="cent" unicode="&#xa2;" 
d="M370 546v-396q34 2 63.5 23.5t39.5 53.5q15 52 19 59q10 16 34 16q16 0 28 -12.5t12 -29.5q0 -35 -23 -74.5t-53 -61.5q-39 -31 -120 -46v-104q0 -13 -1.5 -20.5t-8.5 -13.5t-20 -6q-20 0 -25.5 9.5t-5.5 30.5v104q-104 12 -160 84.5t-56 179.5t56.5 183t159.5 88v95
q0 42 30 42q31 0 31 -42v-93q76 -5 132 -46.5t56 -113.5q0 -34 -22.5 -61t-55.5 -27q-24 0 -42 14.5t-18 37.5q0 20 11.5 35.5t29.5 15.5h9q-1 31 -34 53.5t-66 22.5zM309 150v396q-68 -15 -100.5 -72t-32.5 -132q0 -73 32.5 -129.5t100.5 -62.5z" />
    <glyph glyph-name="sterling" unicode="&#xa3;" 
d="M253 95q-60 47 -118 47q-22 0 -39.5 -11.5t-17.5 -35.5q0 -28 23 -41t50 -13q30 0 58.5 14t43.5 40zM269 443l13 -31h170q19 0 25 -7q9 -9 9 -21q0 -32 -33 -32h-142q38 -73 38 -144q0 -52 -11 -86q92 -75 158 -75q41 0 65 27t24 74q0 35 -18.5 59t-48.5 24
q-48 0 -60 -51q-6 -34 -32 -34q-30 0 -30 39q0 30 19 59q36 54 102 54q58 0 96 -42t38 -110q0 -72 -45 -121.5t-108 -49.5q-62 0 -128 42l-59 40q-66 -82 -162 -82q-55 0 -97 29t-42 87q0 57 39.5 88.5t90.5 31.5q63 0 142 -52q3 18 3 35q0 20 -6 44t-11 36.5t-19 43.5
t-16 35h-119q-12 0 -19 1.5t-13 8.5t-6 20q0 29 37 29h90q-20 48 -20 96q0 89 53.5 140.5t132.5 51.5q61 0 105 -31q26 -20 43 -50.5t17 -63.5q0 -32 -14.5 -55.5t-41.5 -23.5q-17 0 -29 14.5t-12 34.5q0 14 4.5 23.5t10.5 12.5t10.5 7t4.5 8q0 11 -24 32q-34 27 -78 27
q-48 0 -81 -34.5t-33 -89.5q0 -25 18 -68z" />
    <glyph glyph-name="currency" unicode="&#xa4;" 
d="M50 72l53 53q-48 65 -48 144q0 91 49 148l-54 54l51 52l54 -55q63 51 151 51q83 0 144 -49l53 53l51 -52l-54 -52q52 -61 52 -148q0 -86 -50 -146l53 -53l-50 -51l-53 53q-63 -52 -147 -52q-87 0 -151 52l-53 -53zM306 438q-71 0 -120.5 -48.5t-49.5 -120.5
q0 -70 49.5 -118t119.5 -48q69 0 117.5 49.5t48.5 118.5q0 68 -48.5 117.5t-116.5 49.5z" />
    <glyph glyph-name="yen" unicode="&#xa5;" 
d="M208 584l124 -257l128 257q10 17 10 27q0 9 -12 9q-11 0 -34.5 -2t-35.5 -2t-19.5 10t-7.5 24q0 17 10.5 26.5t25.5 9.5q9 0 48.5 -5.5t63.5 -5.5q23 0 63 5.5t49 5.5q14 0 24.5 -9.5t10.5 -26.5q0 -14 -7.5 -24t-18.5 -10q-13 0 -28.5 2t-19.5 2q-15 0 -22.5 -5.5
t-15.5 -20.5l-58 -116h100q35 0 35 -28q0 -27 -34 -27h-133l-64 -126h196q35 0 35 -27q0 -28 -34 -28h-222v-24q0 -101 5 -126q7 -37 40 -37q7 0 20.5 2.5t19.5 1.5q12 0 19.5 -10t7.5 -24q0 -17 -10.5 -26.5t-25.5 -9.5q-12 0 -50 5.5t-61 5.5q-22 0 -59.5 -5.5t-52.5 -5.5
t-25.5 9.5t-10.5 26.5q0 14 8 24t19 10q6 1 19.5 -1.5t19.5 -2.5q34 0 41 37q4 24 4 126v24h-219q-34 0 -34 27q0 28 31 28h196l-64 126h-129q-34 0 -34 27q0 28 31 28h102l-49 94q-20 39 -29 44q-6 4 -16 4q-6 0 -21.5 -2t-25.5 -2q-12 0 -19.5 10t-7.5 24q0 17 10.5 26.5
t24.5 9.5q8 0 48 -5.5t63 -5.5q24 0 64 5.5t48 5.5q15 0 25 -9.5t10 -26.5q0 -15 -7 -24.5t-19 -9.5t-34.5 2t-32.5 2q-9 0 -9 -10z" />
    <glyph glyph-name="brokenbar" unicode="&#xa6;" horiz-adv-x="620" 
d="M283 325v350h59v-350h-59zM283 -175v350h59v-350h-59z" />
    <glyph glyph-name="section" unicode="&#xa7;" 
d="M347 104l-57 28q-83 42 -110 64q-51 44 -51 102q0 38 26.5 75.5t62.5 65.5q-28 26 -41 49.5t-13 57.5q0 76 54 115t132 39q69 0 127.5 -33.5t58.5 -97.5q0 -28 -17 -45.5t-45 -17.5q-21 0 -36 14t-15 35q0 30 36 46q-11 17 -44 24.5t-61 7.5q-40 0 -71 -19t-31 -57
q0 -40 40 -67q14 -10 106 -54q35 -16 52.5 -25.5t45 -29.5t40 -44t12.5 -53q0 -39 -26.5 -79.5t-62.5 -66.5q34 -28 49.5 -55.5t15.5 -68.5q0 -74 -60 -121q-49 -39 -131 -39q-81 0 -135 31q-34 20 -55 51.5t-21 68.5q0 38 17.5 62.5t53.5 24.5q24 0 41.5 -18t17.5 -42
q0 -19 -11 -31.5t-22.5 -18.5t-11.5 -11q0 -13 28 -27q42 -21 88 -21q47 0 80.5 21t33.5 65q0 19 -7 33.5t-24 27t-26.5 18t-32.5 16.5zM267 404q-5 -5 -15 -16.5t-23.5 -36t-13.5 -41.5q0 -33 36.5 -58.5t88.5 -47.5t68 -35q20 16 37.5 44t17.5 51q0 32 -36.5 58t-90.5 49
t-69 33z" />
    <glyph glyph-name="dieresis" unicode="&#xa8;" horiz-adv-x="440" 
d="M127 681q24 0 41 -17t17 -41t-17 -40.5t-41 -16.5q-23 0 -40 16.5t-17 40.5t16.5 41t40.5 17zM311 681q23 0 40 -17t17 -41t-17 -40.5t-40 -16.5q-24 0 -41 16.5t-17 40.5t17 41t41 17z" />
    <glyph glyph-name="copyright" unicode="&#xa9;" horiz-adv-x="840" 
d="M790 337q0 -150 -108.5 -256t-260.5 -106q-151 0 -258 106t-107 255q0 150 106.5 257t257.5 107q153 0 261.5 -106t108.5 -257zM745 337q0 133 -95 226.5t-230 93.5q-132 0 -226 -94.5t-94 -226.5q0 -130 94.5 -223.5t226.5 -93.5q134 0 229 93.5t95 224.5zM579 516v-108
h-27q-1 51 -29 79.5t-81 28.5q-71 0 -110 -50.5t-39 -122.5q0 -71 40 -127.5t109 -56.5q88 0 125 78l21 -9q-18 -46 -64.5 -72.5t-100.5 -26.5q-89 0 -144 58t-55 146q0 93 58 151t153 58q59 0 144 -26z" />
    <glyph glyph-name="ordfeminine" unicode="&#xaa;" horiz-adv-x="440" 
d="M56 467q0 47 43 72q24 14 84 22q2 0 14.5 1t16.5 1.5t14 2.5t14.5 5t10.5 7.5t8.5 12t2.5 16.5q0 48 -65 48q-12 0 -35 -7t-23 -17q0 -1 3.5 -3.5t7.5 -8.5t4 -15q0 -14 -11 -22.5t-26 -8.5q-17 0 -29 12t-12 29q0 42 40.5 64t85.5 22q58 0 91 -32q25 -26 25 -89
q0 -19 -1 -56.5t-1 -57.5q0 -28 4.5 -37t14.5 -9q5 0 8.5 1.5t5.5 5t3 7t1.5 9t0.5 8.5v8.5v7.5v6.5v7.5t0.5 6.5t1.5 6.5l2.5 5t4 4.5t6 2.5t8.5 1q6 0 10 -1.5t7 -5t4.5 -6.5t2 -9t0.5 -8.5v-10v-8.5q-2 -48 -15 -62q-17 -20 -55 -20q-49 0 -63 38q-32 -40 -99 -40
q-48 0 -81.5 23.5t-33.5 70.5zM263 520v14q-20 -15 -81 -21q-68 -7 -68 -46q0 -23 17.5 -34t41.5 -11q53 0 76 32q4 5 6.5 10.5t3.5 10t2 11.5t1 10.5t0.5 12t0.5 11.5zM404 332v-34h-348v34h348z" />
    <glyph glyph-name="guillemotleft" unicode="&#xab;" horiz-adv-x="340" 
d="M97 271l51 -149q7 -24 7 -25q0 -14 -15 -14q-10 0 -22 20l-92 150l-9 18q0 2 2 6t4.5 8t3.5 5l90 143q12 21 21 21q17 0 17 -15q0 -2 -10 -27zM223 271l51 -149q7 -19 7 -25q0 -14 -15 -14q-10 0 -22 20l-92 151q-8 16 -8 17q0 6 10 19l89 143q12 21 21 21q17 0 17 -15
q0 -4 -1.5 -8.5t-4 -9.5t-3.5 -9z" />
    <glyph glyph-name="logicalnot" unicode="&#xac;" horiz-adv-x="620" 
d="M480 135v195h-429v75h504v-270h-75z" />
    <glyph glyph-name="uni00AD" unicode="&#xad;" horiz-adv-x="320" 
d="M87 306h146q53 0 53 -36q0 -37 -53 -37h-146q-53 0 -53 37q0 36 53 36z" />
    <glyph glyph-name="registered" unicode="&#xae;" horiz-adv-x="840" 
d="M425 -25q-152 0 -260 106t-108 257q0 150 108 256t260 106t259 -106t107 -256q0 -151 -107 -257t-259 -106zM425 18q133 0 227.5 94t94.5 226q0 131 -94.5 224.5t-227.5 93.5t-228 -93.5t-95 -224.5q0 -132 95 -226t228 -94zM303 198v303q-1 20 -11 25t-39 5v17h159
q82 0 116 -21q41 -27 41 -78q0 -45 -32.5 -72t-79.5 -32v-2q7 -1 14 -3.5t13.5 -7.5t11.5 -10t10.5 -13t9.5 -13t9 -15l7 -14t7 -14.5t6 -12.5q19 -46 33 -61q11 -12 39 -12v-16h-28q-47 0 -62 12q-13 9 -43 76q-30 70 -42 82q-5 4 -10.5 7t-14 4t-12.5 1h-15.5h-12.5h-18
v-135q0 -14 5.5 -20.5t13.5 -8t31 -2.5v-16h-155v16q18 1 24.5 1.5t14 3.5t9 9t1.5 17zM359 353h28q125 0 125 91q0 42 -25.5 63.5t-69.5 21.5h-29q-15 0 -21.5 -7t-7 -13t-0.5 -23v-133z" />
    <glyph glyph-name="macron" unicode="&#xaf;" horiz-adv-x="460" 
d="M122 643h220q52 0 52 -38q0 -39 -52 -39h-220q-53 0 -53 38q0 39 53 39z" />
    <glyph glyph-name="degree" unicode="&#xb0;" horiz-adv-x="400" 
d="M350 550q0 -62 -44 -106t-106 -44t-106 44t-44 106q-1 62 43.5 106t106.5 44t106 -44t44 -106zM310 550q0 45 -32.5 77.5t-78.5 32.5q-45 0 -77.5 -32.5t-31.5 -77.5q0 -46 32 -78t78 -32q45 0 77.5 32t32.5 78z" />
    <glyph glyph-name="plusminus" unicode="&#xb1;" horiz-adv-x="620" 
d="M265 372v150h76v-150h214v-76h-214v-150h-76v150h-214v76h214zM51 -5v76h504v-76h-504z" />
    <glyph glyph-name="two.superior" unicode="&#xb2;" horiz-adv-x="396" 
d="M225 343q2 -1 8 -5.5l8 -6t7.5 -5t8 -5t7.5 -4t8.5 -3.5t8 -2.5t8.5 -2t9 -0.5q19 0 30 12.5t11 30.5q0 5 -3 11q-8 -10 -22 -10q-13 0 -21.5 7.5t-8.5 19.5q0 15 11.5 24t28.5 9q28 0 41.5 -17.5t13.5 -44.5q0 -35 -25 -63t-63 -28q-36 0 -87 35q-47 35 -84 35
q-42 0 -47 -25h7q20 0 20 -17q0 -13 -9 -20.5t-23 -7.5q-51 0 -51 66q0 49 29.5 81.5t72 48.5t85 29.5t72 35t29.5 54.5q0 42 -31 62.5t-77 20.5q-45 0 -76 -18.5t-31 -38.5q0 -4 17.5 -10t17.5 -25q0 -15 -13 -26.5t-30 -11.5q-24 0 -37.5 15t-13.5 38q0 55 53 87t116 32
q64 0 113.5 -31t49.5 -93q0 -45 -27.5 -73t-67.5 -40.5t-81.5 -23.5t-75.5 -32.5t-43 -57.5l2 -2q27 30 72 30q37 0 83 -34z" />
    <glyph glyph-name="three.superior" unicode="&#xb3;" horiz-adv-x="396" 
d="M71 688h257q40 0 40 -22q0 -15 -22 -35l-112 -104h11q59 0 96 -33t37 -87q0 -62 -49 -104.5t-137 -42.5q-66 0 -120 31t-54 88q0 27 17 47.5t46 20.5q17 0 28 -10t11 -26q0 -29 -35 -29q-12 0 -12 -8q0 -22 32.5 -47t89.5 -25q54 0 90 28.5t36 77.5q0 38 -26 58.5
t-72 20.5q-18 0 -42 -3l-24 -4q-16 0 -16 17q0 9 16 22l129 121h-142h-9.5h-10t-9.5 -0.5t-10 -1.5t-7.5 -3t-7 -5t-4 -7.5t-1.5 -10.5t1 -17.5t1 -18.5q0 -31 -24 -31q-22 0 -22 26v89q0 15 6.5 21.5t23.5 6.5z" />
    <glyph glyph-name="acute" unicode="&#xb4;" horiz-adv-x="340" 
d="M262 623l-139 -51q-21 -6 -22 -6q-13 0 -13 11q0 10 18 26l106 91q23 21 43 21q18 0 31.5 -14.5t13.5 -33.5q0 -29 -38 -44z" />
    <glyph glyph-name="mu" unicode="&#xb5;" horiz-adv-x="640" 
d="M531 325v-188q0 -50 7 -67t22 -17q9 0 24 3t22 3q15 0 24.5 -9.5t9.5 -23.5q0 -16 -13 -26.5t-30 -10.5q-9 0 -28 5.5t-29 5.5t-29.5 -5.5t-28.5 -5.5q-26 0 -24 61h-2q-49 -75 -162 -75q-60 0 -107 25q0 -28 0.5 -78.5t0.5 -70.5q0 -53 -43 -53t-43 56q0 44 2 143t2 150
v214q0 84 -34 84q-9 0 -24 -3t-22 -3q-15 0 -24.5 9.5t-9.5 23.5q0 17 14 27t35 10q9 0 28.5 -5.5t29.5 -5.5q9 0 28 5.5t29 5.5q19 0 26 -10.5t7 -30.5q0 -44 -3 -93t-3 -81v-45q0 -97 11 -134q11 -36 42 -54t71 -18q47 0 82.5 21.5t48.5 64.5q16 50 16 164v68q0 84 -36 84
q-9 0 -24 -3t-22 -3q-15 0 -24.5 9.5t-9.5 23.5q0 17 13.5 27t33.5 10q12 0 32 -5.5t30 -5.5q9 0 28 5.5t29 5.5q30 0 30 -34q0 -25 -1.5 -74t-1.5 -76z" />
    <glyph glyph-name="paragraph" unicode="&#xb6;" 
d="M447 -135v703v8.5v9t-0.5 7.5t-1.5 7.5t-2.5 6t-4.5 5t-7.5 2.5t-9.5 1q-6 0 -11 -1t-7.5 -4.5t-4.5 -5.5t-2.5 -8t-0.5 -8v-10v-10v-723q0 -33 -31 -33q-7 0 -12 1.5t-8.5 2.5t-6 5.5t-4 6t-2 8.5t-0.5 8.5v10.5v10v403q-6 11 -35 11h-29q-107 0 -160 46t-53 153t50 157
q49 51 154 51q29 0 82.5 -5t75.5 -6q22 1 73.5 6t79.5 5q18 0 31 -10.5t13 -27.5q0 -14 -9.5 -23.5t-24.5 -9.5q-7 0 -19 3t-18 3q-11 0 -18 -8.5t-9.5 -27.5t-3 -32t-0.5 -38v-8v-642v-6q0 -16 -1 -24t-8 -15.5t-22 -7.5q-7 0 -12.5 1t-9 2.5t-6 5.5t-3.5 6t-1.5 8
t-0.5 8.5v10.5v11zM331 420v126q0 44 -13 54q-16 14 -68 14q-74 0 -102 -40q-27 -37 -27 -99q0 -74 37 -103t110 -29q45 0 54 12t9 52v13z" />
    <glyph glyph-name="periodcentered" unicode="&#xb7;" horiz-adv-x="340" 
d="M165 334q26 0 45 -19t19 -46q0 -26 -19 -45t-45 -19q-27 0 -46 19t-19 45q0 27 19 46t46 19z" />
    <glyph glyph-name="cedilla" unicode="&#xb8;" horiz-adv-x="340" 
d="M183 -5l-15 -39q5 0 13 1t12 1q31 0 56.5 -19.5t25.5 -50.5q0 -39 -33 -59t-75 -20q-29 0 -63.5 15t-34.5 40q0 8 6.5 15t14.5 7q10 0 21 -11q24 -25 54 -25q19 0 35 8.5t16 26.5q0 17 -12.5 25.5t-30.5 8.5q-14 0 -32 -7q-21 -6 -24 -6q-11 0 -11 10q0 4 9 27l22 52h46z
" />
    <glyph glyph-name="one.superior" unicode="&#xb9;" horiz-adv-x="396" 
d="M170 405v147q0 65 -5.5 81t-29.5 16q-5 0 -15 -1.5t-16 -1.5q-9 0 -15 6t-6 14q0 10 7 16t13 6q8 0 26 -3.5t27 -3.5t26.5 3.5t25.5 3.5q20 0 20 -16q0 -3 -1 -12t-1 -13v-242q0 -64 6.5 -80t28.5 -16q5 0 16 1.5t16 1.5q20 0 20 -21t-27 -21q-8 0 -39.5 3t-49.5 3
t-49 -3t-38 -3q-11 0 -19 5.5t-8 15.5q0 9 6 15t15 6q6 0 16 -1.5t15 -1.5q24 0 29.5 15.5t5.5 80.5z" />
    <glyph glyph-name="ordmasculine" unicode="&#xba;" horiz-adv-x="440" 
d="M219 700q70 0 107 -40q44 -47 44 -120q0 -76 -40.5 -123t-115.5 -47q-69 0 -107 47.5t-38 118.5q0 72 39.5 118t110.5 46zM218 654q-47 0 -69 -34.5t-22 -83.5q0 -48 21 -83t67 -35q50 0 73.5 32.5t23.5 84.5q0 119 -94 119zM384 333v-34h-329v34h329z" />
    <glyph glyph-name="guillemotright" unicode="&#xbb;" horiz-adv-x="340" 
d="M252 271l-48 141q-7 17 -7 27q0 15 15 15q8 0 20 -21l90 -143q10 -13 10 -19l-9 -18l-92 -150q0 -1 -2.5 -5t-4 -5.5t-4 -4.5t-5.5 -4t-6 -1q-14 0 -14 14q0 4 6 25zM126 271l-49 141q-6 20 -6 27q0 15 14 15q9 0 21 -21l90 -143q1 -1 3.5 -5t4.5 -8t2 -6q0 -8 -9 -17
l-92 -151q-1 -1 -3.5 -5t-3.5 -6t-3.5 -4.5t-5.5 -3.5t-7 -1q-14 0 -14 14q0 6 7 25z" />
    <glyph glyph-name="onequarter" unicode="&#xbc;" horiz-adv-x="990" 
d="M735 123h-189q-41 0 -41 24q0 10 14 26l157 193q43 57 78 57q16 0 25 -8.5t10.5 -17.5t1.5 -25v-206h66q30 0 30 -21q0 -22 -31 -22h-65v-18q0 -47 6.5 -59t23.5 -12q4 0 18 1t25 1q9 0 15 -6.5t6 -14.5q0 -22 -27 -22q-6 0 -37 3.5t-50 3.5q-18 0 -49 -3.5t-38 -3.5
q-44 0 -44 22q0 9 6 15t15 6q11 0 25 -1t19 -1q6 0 10 1.5t7.5 5t5.5 7t3.5 9t2.5 9.5t1 11v10v9.5v8.5v18zM735 166v201h-2l-162 -201h164zM186 405v147q0 65 -5.5 81t-29.5 16q-5 0 -15 -1.5t-16 -1.5q-9 0 -15 6t-6 14q0 10 7 16t13 6q8 0 26 -3.5t27 -3.5t26.5 3.5
t25.5 3.5q20 0 20 -16q0 -3 -1 -12t-1 -13v-242q0 -64 6.5 -80t28.5 -16q5 0 16 1.5t16 1.5q20 0 20 -21t-27 -21q-8 0 -39.5 3t-49.5 3t-49 -3t-38 -3q-11 0 -19 5.5t-8 15.5q0 9 6 15t15 6q6 0 16 -1.5t15 -1.5q24 0 29.5 15.5t5.5 80.5zM727 666l-418 -653q-2 -2 -4 -6
q-6 -9 -9 -10.5t-17 -1.5h-3t-5.5 -0.5t-8 -0.5t-7.5 0.5t-6 2.5t-2 6q0 3 8 16l416 647q10 16 13.5 18t21.5 2q25 0 27 -3q2 -4 -6 -17z" />
    <glyph glyph-name="onehalf" unicode="&#xbd;" horiz-adv-x="990" 
d="M170 405v147q0 65 -5.5 81t-29.5 16q-5 0 -15 -1.5t-16 -1.5q-9 0 -15 6t-6 14q0 10 7 16t13 6q8 0 26 -3.5t27 -3.5t26.5 3.5t25.5 3.5q20 0 20 -16q0 -3 -1 -12t-1 -13v-242q0 -64 6.5 -80t28.5 -16q5 0 16 1.5t16 1.5q20 0 20 -21t-27 -21q-8 0 -39.5 3t-49.5 3
t-49 -3t-38 -3q-11 0 -19 5.5t-8 15.5q0 9 6 15t15 6q6 0 16 -1.5t15 -1.5q24 0 29.5 15.5t5.5 80.5zM832 298q0 42 -31 62.5t-77 20.5q-45 0 -76 -18.5t-31 -38.5q0 -4 17.5 -10t17.5 -25q0 -15 -13 -26.5t-30 -11.5q-24 0 -37.5 15t-13.5 38q0 55 53 87t116 32
q64 0 113.5 -31t49.5 -93q0 -45 -27.5 -73t-67.5 -40.5t-81.5 -23.5t-75.5 -32.5t-43 -57.5l2 -2q27 30 72 30q37 0 83 -34q2 -1 8 -5.5l8 -6t7.5 -5t8 -5t7.5 -4t8.5 -3.5t8 -2.5t8.5 -2t9 -0.5q19 0 30 12.5t11 30.5q0 5 -3 11q-8 -10 -22 -10q-13 0 -21.5 7.5t-8.5 19.5
q0 15 11.5 24t28.5 9q28 0 41.5 -17.5t13.5 -44.5q0 -35 -25 -63t-63 -28q-36 0 -87 35q-47 35 -84 35q-42 0 -47 -25h7q20 0 20 -17q0 -13 -9 -20.5t-23 -7.5q-51 0 -51 66q0 49 29.5 81.5t72 48.5t85 29.5t72 35t29.5 54.5zM687 666l-418 -653q-2 -2 -4 -6q-6 -9 -9 -10.5
t-17 -1.5h-3t-5.5 -0.5t-8 -0.5t-7.5 0.5t-6 2.5t-2 6q0 3 8 16l416 647q10 16 13.5 18t21.5 2q25 0 27 -3q2 -4 -6 -17z" />
    <glyph glyph-name="threequarters" unicode="&#xbe;" horiz-adv-x="990" 
d="M736 -7q-44 0 -44 22q0 9 6 15t15 6q11 0 25 -1t19 -1q6 0 10 1.5t7.5 5t5.5 7t3.5 9t2.5 9.5t1 11v10v9.5v8.5v18h-189q-41 0 -41 24q0 10 14 26l157 193q43 57 78 57q16 0 25 -8.5t10.5 -17.5t1.5 -25v-206h66q30 0 30 -21q0 -22 -31 -22h-65v-18q0 -47 6.5 -59
t23.5 -12q4 0 18 1t25 1q9 0 15 -6.5t6 -14.5q0 -22 -27 -22q-6 0 -37 3.5t-50 3.5q-18 0 -49 -3.5t-38 -3.5zM787 166v201h-2l-162 -201h164zM781 666l-418 -653q-2 -2 -4 -6q-6 -9 -9 -10.5t-17 -1.5h-3t-5.5 -0.5t-8 -0.5t-7.5 0.5t-6 2.5t-2 6q0 3 8 16l416 647
q10 16 13.5 18t21.5 2q25 0 27 -3q2 -4 -6 -17zM123 688h257q40 0 40 -22q0 -15 -22 -35l-112 -104h11q59 0 96 -33t37 -87q0 -62 -49 -104.5t-137 -42.5q-66 0 -120 31t-54 88q0 27 17 47.5t46 20.5q17 0 28 -10t11 -26q0 -29 -35 -29q-12 0 -12 -8q0 -22 32.5 -47
t89.5 -25q54 0 90 28.5t36 77.5q0 38 -26 58.5t-72 20.5q-13 0 -28 -1.5t-25.5 -3.5t-12.5 -2q-16 0 -16 17q0 9 16 22l129 121h-142h-9.5h-10t-9.5 -0.5t-10 -1.5t-7.5 -3t-7 -5t-4 -7.5t-1.5 -10.5t1 -17.5t1 -18.5q0 -31 -24 -31q-22 0 -22 26v89q0 15 6.5 21.5t23.5 6.5
z" />
    <glyph glyph-name="questiondown" unicode="&#xbf;" horiz-adv-x="600" 
d="M554 9q0 -92 -84 -150q-70 -47 -177 -47q-104 0 -169 41q-40 25 -62.5 65.5t-22.5 86.5q0 70 41 111.5t115 73.5q27 11 40 18t31 20.5t25.5 31t7.5 41.5q0 16 1.5 26t10.5 18.5t25 8.5q45 0 45 -50q0 -62 -35.5 -100t-102.5 -73q-3 -1 -17 -9t-17.5 -9.5t-16 -9
t-16 -10.5t-13.5 -10.5t-13 -13t-9.5 -14t-8.5 -16.5t-4 -18t-2 -21q0 -62 50.5 -92.5t117.5 -30.5q68 0 113 26q70 39 70 98q0 29 -26 43l1 -9q0 -16 -12 -25t-29 -9q-19 0 -31 13.5t-12 32.5q0 32 25.5 50t58.5 18q45 0 73.5 -31t28.5 -75zM329 394q-26 0 -45 19t-19 45
q0 27 19 46t45 19q27 0 46 -19t19 -46q0 -26 -19 -45t-46 -19z" />
    <glyph glyph-name="Agrave" unicode="&#xc0;" horiz-adv-x="780" 
d="M449 234h-155q-27 0 -37 -5t-19 -30l-30 -79q-8 -24 -8 -34q0 -32 38 -32q9 0 29.5 2.5t34.5 2.5t23 -10t9 -24q0 -17 -12.5 -26.5t-30.5 -9.5q-11 0 -58 5.5t-76 5.5t-76 -5.5t-58 -5.5q-10 0 -21 10t-11 26q0 14 9 24t23 10q11 0 25.5 -2t19.5 -2q20 0 31 21q6 9 27 63
l183 493q11 30 25 42t44 12q29 0 42 -12t24 -42l177 -487q15 -45 28 -65q17 -26 50 -26q7 0 24 2t27 3q14 0 23 -10t9 -24q0 -17 -12.5 -26.5t-30.5 -9.5q-11 0 -58 5.5t-76 5.5t-76 -5.5t-58 -5.5q-57 0 -57 36q0 14 9 24t23 10q17 -1 38.5 -3t29.5 -2q13 0 22.5 7t9.5 20
q0 7 -12 39l-27 76q-12 30 -18.5 34t-39.5 4zM372 598l-88 -270q-6 -20 -3 -23t25 -3h135q24 0 24 8q0 6 -4 18l-87 270h-2zM341 871l106 -91q19 -17 19 -26q0 -11 -14 -11q-1 0 -22 6l-138 51q-38 14 -38 44q0 19 13 33.5t32 14.5t42 -21z" />
    <glyph glyph-name="Aacute" unicode="&#xc1;" horiz-adv-x="780" 
d="M449 234h-155q-27 0 -37 -5t-19 -30l-30 -79q-8 -24 -8 -34q0 -32 38 -32q9 0 29.5 2.5t34.5 2.5t23 -10t9 -24q0 -17 -12.5 -26.5t-30.5 -9.5q-11 0 -58 5.5t-76 5.5t-76 -5.5t-58 -5.5q-10 0 -21 10t-11 26q0 14 9 24t23 10q11 0 25.5 -2t19.5 -2q20 0 31 21q6 9 27 63
l183 493q11 30 25 42t44 12q29 0 42 -12t24 -42l177 -487q15 -45 28 -65q17 -26 50 -26q7 0 24 2t27 3q14 0 23 -10t9 -24q0 -17 -12.5 -26.5t-30.5 -9.5q-11 0 -58 5.5t-76 5.5t-76 -5.5t-58 -5.5q-57 0 -57 36q0 14 9 24t23 10q17 -1 38.5 -3t29.5 -2q13 0 22.5 7t9.5 20
q0 7 -12 39l-27 76q-12 30 -18.5 34t-39.5 4zM372 598l-88 -270q-6 -20 -3 -23t25 -3h135q24 0 24 8q0 6 -4 18l-87 270h-2zM482 800l-139 -51q-21 -6 -22 -6q-13 0 -13 11q0 10 18 26l106 91q23 21 43 21q18 0 31.5 -14.5t13.5 -33.5q0 -29 -38 -44z" />
    <glyph glyph-name="Acircumflex" unicode="&#xc2;" horiz-adv-x="780" 
d="M449 234h-155q-27 0 -37 -5t-19 -30l-30 -79q-8 -24 -8 -34q0 -32 38 -32q9 0 29.5 2.5t34.5 2.5t23 -10t9 -24q0 -17 -12.5 -26.5t-30.5 -9.5q-11 0 -58 5.5t-76 5.5t-76 -5.5t-58 -5.5q-10 0 -21 10t-11 26q0 14 9 24t23 10q11 0 25.5 -2t19.5 -2q20 0 31 21q6 9 27 63
l183 493q11 30 25 42t44 12q29 0 42 -12t24 -42l177 -487q15 -45 28 -65q17 -26 50 -26q7 0 24 2t27 3q14 0 23 -10t9 -24q0 -17 -12.5 -26.5t-30.5 -9.5q-11 0 -58 5.5t-76 5.5t-76 -5.5t-58 -5.5q-57 0 -57 36q0 14 9 24t23 10q17 -1 38.5 -3t29.5 -2q13 0 22.5 7t9.5 20
q0 7 -12 39l-27 76q-12 30 -18.5 34t-39.5 4zM372 598l-88 -270q-6 -20 -3 -23t25 -3h135q24 0 24 8q0 6 -4 18l-87 270h-2zM219 765l138 98q16 12 21 12q2 0 20 -12l140 -98q16 -11 16 -20q0 -12 -13 -12q-10 0 -75 23q-80 29 -91 35q-30 -14 -88.5 -36.5t-72.5 -22.5
q-15 0 -15 13q0 4 3.5 7.5t9.5 7.5z" />
    <glyph glyph-name="Atilde" unicode="&#xc3;" horiz-adv-x="780" 
d="M449 234h-155q-27 0 -37 -5t-19 -30l-30 -79q-8 -24 -8 -34q0 -32 38 -32q9 0 29.5 2.5t34.5 2.5t23 -10t9 -24q0 -17 -12.5 -26.5t-30.5 -9.5q-11 0 -58 5.5t-76 5.5t-76 -5.5t-58 -5.5q-10 0 -21 10t-11 26q0 14 9 24t23 10q11 0 25.5 -2t19.5 -2q20 0 31 21q6 9 27 63
l183 493q11 30 25 42t44 12q29 0 42 -12t24 -42l177 -487q15 -45 28 -65q17 -26 50 -26q7 0 24 2t27 3q14 0 23 -10t9 -24q0 -17 -12.5 -26.5t-30.5 -9.5q-11 0 -58 5.5t-76 5.5t-76 -5.5t-58 -5.5q-57 0 -57 36q0 14 9 24t23 10q17 -1 38.5 -3t29.5 -2q13 0 22.5 7t9.5 20
q0 7 -12 39l-27 76q-12 30 -18.5 34t-39.5 4zM372 598l-88 -270q-6 -20 -3 -23t25 -3h135q24 0 24 8q0 6 -4 18l-87 270h-2zM425 821q43 -16 59 -16q21 0 36.5 16.5t19.5 16.5q12 0 12 -14q0 -24 -15 -50q-27 -41 -80 -41q-25 0 -81.5 19.5t-79.5 19.5q-25 0 -40 -21
q-11 -12 -14 -13q-13 0 -13 16q0 24 19 54q26 38 80 38q27 0 97 -25z" />
    <glyph glyph-name="Adieresis" unicode="&#xc4;" horiz-adv-x="780" 
d="M449 234h-155q-27 0 -37 -5t-19 -30l-30 -79q-8 -24 -8 -34q0 -32 38 -32q9 0 29.5 2.5t34.5 2.5t23 -10t9 -24q0 -17 -12.5 -26.5t-30.5 -9.5q-11 0 -58 5.5t-76 5.5t-76 -5.5t-58 -5.5q-10 0 -21 10t-11 26q0 14 9 24t23 10q11 0 25.5 -2t19.5 -2q20 0 31 21q6 9 27 63
l183 493q11 30 25 42t44 12q29 0 42 -12t24 -42l177 -487q15 -45 28 -65q17 -26 50 -26q7 0 24 2t27 3q14 0 23 -10t9 -24q0 -17 -12.5 -26.5t-30.5 -9.5q-11 0 -58 5.5t-76 5.5t-76 -5.5t-58 -5.5q-57 0 -57 36q0 14 9 24t23 10q17 -1 38.5 -3t29.5 -2q13 0 22.5 7t9.5 20
q0 7 -12 39l-27 76q-12 30 -18.5 34t-39.5 4zM372 598l-88 -270q-6 -20 -3 -23t25 -3h135q24 0 24 8q0 6 -4 18l-87 270h-2zM287 858q24 0 41 -17t17 -41t-17 -40.5t-41 -16.5q-23 0 -40 16.5t-17 40.5t16.5 41t40.5 17zM471 858q23 0 40 -17t17 -41t-17 -40.5t-40 -16.5
q-24 0 -41 16.5t-17 40.5t17 41t41 17z" />
    <glyph glyph-name="Aring" unicode="&#xc5;" horiz-adv-x="780" 
d="M449 234h-155q-27 0 -37 -5t-19 -30l-30 -79q-8 -24 -8 -34q0 -32 38 -32q9 0 29.5 2.5t34.5 2.5t23 -10t9 -24q0 -17 -12.5 -26.5t-30.5 -9.5q-11 0 -58 5.5t-76 5.5t-76 -5.5t-58 -5.5q-10 0 -21 10t-11 26q0 14 9 24t23 10q11 0 25.5 -2t19.5 -2q20 0 31 21q6 9 27 63
l183 493q11 30 25 42t44 12q29 0 42 -12t24 -42l177 -487q15 -45 28 -65q17 -26 50 -26q7 0 24 2t27 3q14 0 23 -10t9 -24q0 -17 -12.5 -26.5t-30.5 -9.5q-11 0 -58 5.5t-76 5.5t-76 -5.5t-58 -5.5q-57 0 -57 36q0 14 9 24t23 10q17 -1 38.5 -3t29.5 -2q13 0 22.5 7t9.5 20
q0 7 -12 39l-27 76q-12 30 -18.5 34t-39.5 4zM372 598l-88 -270q-6 -20 -3 -23t25 -3h135q24 0 24 8q0 6 -4 18l-87 270h-2zM379 874q33 0 56.5 -23.5t23.5 -56.5q0 -34 -23.5 -57.5t-56.5 -23.5t-56.5 23.5t-23.5 57.5q0 33 23.5 56.5t56.5 23.5zM379 835q-17 0 -29.5 -12
t-12.5 -29q0 -18 12.5 -30t29.5 -12t29.5 12t12.5 30q0 17 -12.5 29t-29.5 12z" />
    <glyph glyph-name="AE" unicode="&#xc6;" horiz-adv-x="1060" 
d="M546 190v93q0 19 -6.5 24t-27.5 5h-146q-18 0 -27 -11q-8 -9 -31 -50l-77 -136q-25 -45 -25 -49q0 -12 19 -12q7 0 20 2.5t20 2.5q14 0 23 -10t9 -24q0 -36 -32 -36q-14 0 -54 5.5t-64 5.5q-20 0 -58.5 -5.5t-59.5 -5.5q-32 0 -32 36q0 14 9 24t23 10q9 0 22.5 -3
t19.5 -3q16 0 26 11t38 54l334 529q9 14 14.5 21t15.5 12.5t23 5.5q31 0 83.5 -5.5t85.5 -5.5q43 0 135 5.5t140 5.5q21 0 34 -12.5t13 -32.5q0 -12 -3 -52t-3 -65q0 -15 3 -44.5t3 -44.5q0 -17 -11.5 -27.5t-28.5 -10.5q-36 0 -36 44q0 10 1.5 32t1.5 31q0 70 -26.5 89.5
t-101.5 19.5h-101q-52 0 -65.5 -12.5t-13.5 -57.5v-140q0 -15 4 -20t15 -5h85q55 0 55 47q0 11 -3 31t-3 30q0 44 36 44q17 0 26 -11.5t9 -29.5q0 -25 -3.5 -76.5t-3.5 -77.5q0 -33 3.5 -76t3.5 -63q0 -17 -9.5 -27.5t-26.5 -10.5t-26.5 11t-9.5 28q0 11 3 33.5t3 34.5
q0 26 -15.5 36t-57.5 10h-57q-17 0 -22.5 -3.5t-5.5 -16.5v-159q0 -45 11 -59t50 -14h153q67 0 88.5 21t21.5 72q0 11 -1.5 43t-1.5 47q0 40 36 40q21 0 29 -11t8 -33q0 -16 -2 -50t-2 -50t2 -49t2 -50q0 -21 -14 -35.5t-41 -14.5q-53 0 -158.5 5.5t-165.5 5.5
q-37 0 -96.5 -5.5t-89.5 -5.5q-47 0 -47 36q0 14 9 24t23 10q8 0 24 -2.5t24 -2.5q36 0 44 24t8 112zM387 379h133h11t7 1.5t4.5 2t2.5 4.5t1 6v9v11v202v18l-2 -3q-2 -4 -4.5 -8t-3.5 -5z" />
    <glyph glyph-name="Ccedilla" unicode="&#xc7;" 
d="M129 339q0 -55 11.5 -104.5t35.5 -93.5t69 -70t105 -26q99 0 150 67q33 43 33 111q0 47 39 47q42 0 42 -46q0 -109 -73.5 -176.5t-184.5 -71.5l-8 -20q5 0 13 1t12 1q31 0 56.5 -19.5t25.5 -50.5q0 -39 -33 -59t-75 -20q-29 0 -63.5 15t-34.5 40q0 8 6.5 15t14.5 7
q10 0 21 -11q24 -25 54 -25q19 0 35 8.5t16 26.5q0 17 -12.5 25.5t-30.5 8.5q-14 0 -32 -7q-21 -6 -24 -6q-11 0 -11 10q0 4 9 27l14 34q-132 12 -202 111.5t-70 239.5q0 154 70 251q41 58 103 89.5t134 31.5q123 0 186 -84l2 2q0 5 -2 21t-2 25q0 15 8.5 24.5t23.5 9.5
q17 0 26 -12.5t9 -30.5q0 -20 -3.5 -61t-3.5 -61q0 -22 3.5 -56.5t3.5 -48.5q0 -39 -38 -39q-25 0 -32 12t-7 50q0 68 -25 107q-22 35 -61.5 53.5t-83.5 18.5q-60 0 -104.5 -25.5t-68.5 -68.5t-35 -92t-11 -105z" />
    <glyph glyph-name="Egrave" unicode="&#xc8;" horiz-adv-x="680" 
d="M237 261v-74l3 -70q1 -39 16 -49t68 -10h118q69 0 95.5 16.5t26.5 70.5q0 15 -3 45t-3 45q0 47 38 47q39 0 39 -46q0 -17 -2 -50.5t-2 -50.5t2 -50t2 -50q0 -46 -65 -46q-52 0 -163.5 5.5t-174.5 5.5q-41 0 -96 -5.5t-76 -5.5q-43 0 -43 36q0 14 9 24t23 10q8 0 24 -2.5
t24 -2.5q40 0 49 37q5 21 5 124v245q0 103 -5 124q-9 37 -49 37q-8 0 -24 -2.5t-24 -2.5q-14 0 -23 10t-9 24q0 17 12.5 26.5t30.5 9.5q21 0 76 -5.5t96 -5.5q63 0 174.5 5.5t163.5 5.5q53 0 53 -48q0 -18 -4 -55t-4 -55q0 -17 4 -50t4 -49q0 -17 -10.5 -27.5t-27.5 -10.5
q-22 0 -29.5 15.5t-7.5 58.5q0 65 -3.5 88t-18.5 39q-12 13 -41 17t-118 4q-92 0 -112 -14q-11 -8 -14.5 -22t-3.5 -49v-81q0 -35 5 -41q2 -2 4 -3q10 -7 58 -7t67 10t19 35q0 10 -3 31.5t-3 32.5q0 42 36 42q38 0 38 -46q0 -5 -5.5 -56t-4.5 -92q-1 -39 4.5 -85.5
t5.5 -57.5q0 -16 -10.5 -25.5t-26.5 -9.5q-37 0 -37 43q0 11 3 33t3 33q0 26 -16 35t-64 9q-52 0 -63 -8q-10 -9 -10 -59zM306 871l106 -91q19 -17 19 -26q0 -11 -14 -11q-1 0 -22 6l-138 51q-38 14 -38 44q0 19 13 33.5t32 14.5t42 -21z" />
    <glyph glyph-name="Eacute" unicode="&#xc9;" horiz-adv-x="680" 
d="M237 261v-74l3 -70q1 -39 16 -49t68 -10h118q69 0 95.5 16.5t26.5 70.5q0 15 -3 45t-3 45q0 47 38 47q39 0 39 -46q0 -17 -2 -50.5t-2 -50.5t2 -50t2 -50q0 -46 -65 -46q-52 0 -163.5 5.5t-174.5 5.5q-41 0 -96 -5.5t-76 -5.5q-43 0 -43 36q0 14 9 24t23 10q8 0 24 -2.5
t24 -2.5q40 0 49 37q5 21 5 124v245q0 103 -5 124q-9 37 -49 37q-8 0 -24 -2.5t-24 -2.5q-14 0 -23 10t-9 24q0 17 12.5 26.5t30.5 9.5q21 0 76 -5.5t96 -5.5q63 0 174.5 5.5t163.5 5.5q53 0 53 -48q0 -18 -4 -55t-4 -55q0 -17 4 -50t4 -49q0 -17 -10.5 -27.5t-27.5 -10.5
q-22 0 -29.5 15.5t-7.5 58.5q0 65 -3.5 88t-18.5 39q-12 13 -41 17t-118 4q-92 0 -112 -14q-11 -8 -14.5 -22t-3.5 -49v-81q0 -35 5 -41q2 -2 4 -3q10 -7 58 -7t67 10t19 35q0 10 -3 31.5t-3 32.5q0 42 36 42q38 0 38 -46q0 -5 -5.5 -56t-4.5 -92q-1 -39 4.5 -85.5
t5.5 -57.5q0 -16 -10.5 -25.5t-26.5 -9.5q-37 0 -37 43q0 11 3 33t3 33q0 26 -16 35t-64 9q-52 0 -63 -8q-10 -9 -10 -59zM432 800l-139 -51q-21 -6 -22 -6q-13 0 -13 11q0 10 18 26l106 91q23 21 43 21q18 0 31.5 -14.5t13.5 -33.5q0 -29 -38 -44z" />
    <glyph glyph-name="Ecircumflex" unicode="&#xca;" horiz-adv-x="680" 
d="M237 261v-74l3 -70q1 -39 16 -49t68 -10h118q69 0 95.5 16.5t26.5 70.5q0 15 -3 45t-3 45q0 47 38 47q39 0 39 -46q0 -17 -2 -50.5t-2 -50.5t2 -50t2 -50q0 -46 -65 -46q-52 0 -163.5 5.5t-174.5 5.5q-41 0 -96 -5.5t-76 -5.5q-43 0 -43 36q0 14 9 24t23 10q8 0 24 -2.5
t24 -2.5q40 0 49 37q5 21 5 124v245q0 103 -5 124q-9 37 -49 37q-8 0 -24 -2.5t-24 -2.5q-14 0 -23 10t-9 24q0 17 12.5 26.5t30.5 9.5q21 0 76 -5.5t96 -5.5q63 0 174.5 5.5t163.5 5.5q53 0 53 -48q0 -18 -4 -55t-4 -55q0 -17 4 -50t4 -49q0 -17 -10.5 -27.5t-27.5 -10.5
q-22 0 -29.5 15.5t-7.5 58.5q0 65 -3.5 88t-18.5 39q-12 13 -41 17t-118 4q-92 0 -112 -14q-11 -8 -14.5 -22t-3.5 -49v-81q0 -35 5 -41q2 -2 4 -3q10 -7 58 -7t67 10t19 35q0 10 -3 31.5t-3 32.5q0 42 36 42q38 0 38 -46q0 -5 -5.5 -56t-4.5 -92q-1 -39 4.5 -85.5
t5.5 -57.5q0 -16 -10.5 -25.5t-26.5 -9.5q-37 0 -37 43q0 11 3 33t3 33q0 26 -16 35t-64 9q-52 0 -63 -8q-10 -9 -10 -59zM179 775l138 98q16 12 21 12q2 0 20 -12l140 -98q16 -11 16 -20q0 -12 -13 -12q-10 0 -75 23q-80 29 -91 35q-30 -14 -88.5 -36.5t-72.5 -22.5
q-15 0 -15 13q0 3 2.5 6t5.5 5.5t7 5t5 3.5z" />
    <glyph glyph-name="Edieresis" unicode="&#xcb;" horiz-adv-x="680" 
d="M237 261v-74l3 -70q1 -39 16 -49t68 -10h118q69 0 95.5 16.5t26.5 70.5q0 15 -3 45t-3 45q0 47 38 47q39 0 39 -46q0 -17 -2 -50.5t-2 -50.5t2 -50t2 -50q0 -46 -65 -46q-52 0 -163.5 5.5t-174.5 5.5q-41 0 -96 -5.5t-76 -5.5q-43 0 -43 36q0 14 9 24t23 10q8 0 24 -2.5
t24 -2.5q40 0 49 37q5 21 5 124v245q0 103 -5 124q-9 37 -49 37q-8 0 -24 -2.5t-24 -2.5q-14 0 -23 10t-9 24q0 17 12.5 26.5t30.5 9.5q21 0 76 -5.5t96 -5.5q63 0 174.5 5.5t163.5 5.5q53 0 53 -48q0 -18 -4 -55t-4 -55q0 -17 4 -50t4 -49q0 -17 -10.5 -27.5t-27.5 -10.5
q-22 0 -29.5 15.5t-7.5 58.5q0 65 -3.5 88t-18.5 39q-12 13 -41 17t-118 4q-92 0 -112 -14q-11 -8 -14.5 -22t-3.5 -49v-81q0 -35 5 -41q2 -2 4 -3q10 -7 58 -7t67 10t19 35q0 10 -3 31.5t-3 32.5q0 42 36 42q38 0 38 -46q0 -5 -5.5 -56t-4.5 -92q-1 -39 4.5 -85.5
t5.5 -57.5q0 -16 -10.5 -25.5t-26.5 -9.5q-37 0 -37 43q0 11 3 33t3 33q0 26 -16 35t-64 9q-52 0 -63 -8q-10 -9 -10 -59zM247 858q24 0 41 -17t17 -41t-17 -40.5t-41 -16.5q-23 0 -40 16.5t-17 40.5t16.5 41t40.5 17zM431 858q23 0 40 -17t17 -41t-17 -40.5t-40 -16.5
q-24 0 -41 16.5t-17 40.5t17 41t41 17z" />
    <glyph glyph-name="Igrave" unicode="&#xcc;" horiz-adv-x="380" 
d="M151 215v245q0 103 -5 124q-9 37 -49 37q-8 0 -24 -2.5t-24 -2.5q-14 0 -23 10t-9 24q0 17 12.5 26.5t30.5 9.5q22 0 65 -5.5t69 -5.5q27 0 71 5.5t63 5.5q18 0 30.5 -9.5t12.5 -26.5q0 -14 -9 -24t-23 -10q-8 0 -24 2.5t-24 2.5q-40 0 -49 -37q-5 -24 -5 -124v-245
q0 -103 5 -124q10 -37 49 -37q8 0 24 2.5t24 2.5q14 0 23 -10t9 -24q0 -17 -12.5 -26.5t-30.5 -9.5q-24 0 -66 5.5t-68 5.5t-68 -5.5t-66 -5.5q-18 0 -30.5 9.5t-12.5 26.5q0 14 9 24t23 10q8 0 24 -2.5t24 -2.5q40 0 49 37q5 21 5 124zM141 871l106 -91q19 -17 19 -26
q0 -11 -14 -11q-1 0 -22 6l-138 51q-38 14 -38 44q0 19 13 33.5t32 14.5t42 -21z" />
    <glyph glyph-name="Iacute" unicode="&#xcd;" horiz-adv-x="380" 
d="M151 215v245q0 103 -5 124q-9 37 -49 37q-8 0 -24 -2.5t-24 -2.5q-14 0 -23 10t-9 24q0 17 12.5 26.5t30.5 9.5q22 0 65 -5.5t69 -5.5q27 0 71 5.5t63 5.5q18 0 30.5 -9.5t12.5 -26.5q0 -14 -9 -24t-23 -10q-8 0 -24 2.5t-24 2.5q-40 0 -49 -37q-5 -24 -5 -124v-245
q0 -103 5 -124q10 -37 49 -37q8 0 24 2.5t24 2.5q14 0 23 -10t9 -24q0 -17 -12.5 -26.5t-30.5 -9.5q-24 0 -66 5.5t-68 5.5t-68 -5.5t-66 -5.5q-18 0 -30.5 9.5t-12.5 26.5q0 14 9 24t23 10q8 0 24 -2.5t24 -2.5q40 0 49 37q5 21 5 124zM292 800l-139 -51q-21 -6 -22 -6
q-13 0 -13 11q0 10 18 26l106 91q23 21 43 21q18 0 31.5 -14.5t13.5 -33.5q0 -29 -38 -44z" />
    <glyph glyph-name="Icircumflex" unicode="&#xce;" horiz-adv-x="380" 
d="M151 215v245q0 103 -5 124q-9 37 -49 37q-8 0 -24 -2.5t-24 -2.5q-14 0 -23 10t-9 24q0 17 12.5 26.5t30.5 9.5q22 0 65 -5.5t69 -5.5q27 0 71 5.5t63 5.5q18 0 30.5 -9.5t12.5 -26.5q0 -14 -9 -24t-23 -10q-8 0 -24 2.5t-24 2.5q-40 0 -49 -37q-5 -24 -5 -124v-245
q0 -103 5 -124q10 -37 49 -37q8 0 24 2.5t24 2.5q14 0 23 -10t9 -24q0 -17 -12.5 -26.5t-30.5 -9.5q-24 0 -66 5.5t-68 5.5t-68 -5.5t-66 -5.5q-18 0 -30.5 9.5t-12.5 26.5q0 14 9 24t23 10q8 0 24 -2.5t24 -2.5q40 0 49 37q5 21 5 124zM34 775l138 98q16 12 21 12
q2 0 20 -12l140 -98q16 -11 16 -20q0 -12 -13 -12q-10 0 -75 23q-80 29 -91 35q-30 -14 -88.5 -36.5t-72.5 -22.5q-15 0 -15 13q0 3 2.5 6t5.5 5.5t7 5t5 3.5z" />
    <glyph glyph-name="Idieresis" unicode="&#xcf;" horiz-adv-x="380" 
d="M151 215v245q0 103 -5 124q-9 37 -49 37q-8 0 -24 -2.5t-24 -2.5q-14 0 -23 10t-9 24q0 17 12.5 26.5t30.5 9.5q22 0 65 -5.5t69 -5.5q27 0 71 5.5t63 5.5q18 0 30.5 -9.5t12.5 -26.5q0 -14 -9 -24t-23 -10q-8 0 -24 2.5t-24 2.5q-40 0 -49 -37q-5 -24 -5 -124v-245
q0 -103 5 -124q10 -37 49 -37q8 0 24 2.5t24 2.5q14 0 23 -10t9 -24q0 -17 -12.5 -26.5t-30.5 -9.5q-24 0 -66 5.5t-68 5.5t-68 -5.5t-66 -5.5q-18 0 -30.5 9.5t-12.5 26.5q0 14 9 24t23 10q8 0 24 -2.5t24 -2.5q40 0 49 37q5 21 5 124zM107 858q24 0 41 -17t17 -41
t-17 -40.5t-41 -16.5q-23 0 -40 16.5t-17 40.5t16.5 41t40.5 17zM291 858q23 0 40 -17t17 -41t-17 -40.5t-40 -16.5q-24 0 -41 16.5t-17 40.5t17 41t41 17z" />
    <glyph glyph-name="Eth" unicode="&#xd0;" horiz-adv-x="740" 
d="M151 323h-102q-14 0 -23 10t-9 24q0 16 9 26.5t23 10.5h102v66q0 105 -5 124q-9 37 -49 37q-8 0 -24 -2.5t-24 -2.5q-14 0 -23 10t-9 24q0 15 12 25.5t31 10.5t58.5 -5.5t71.5 -5.5q35 0 92.5 5.5t92.5 5.5q160 0 245 -94q43 -47 65 -115t22 -138q0 -154 -80 -252
q-81 -98 -248 -98q-35 0 -91.5 5.5t-93.5 5.5q-30 0 -70 -5.5t-60 -5.5t-33.5 9.5t-13.5 26.5q0 14 9 24t23 10q8 0 24 -2.5t24 -2.5q40 0 49 37q5 21 5 124v108zM237 394h189q14 0 23 -10.5t9 -26.5q0 -14 -9 -24t-23 -10h-189v-187q0 -39 3.5 -50t13.5 -17q25 -13 115 -13
q69 0 113.5 16.5t79.5 65.5q53 73 53 194q0 138 -65 212q-59 68 -194 68q-91 0 -109 -15q-10 -10 -10 -62v-141z" />
    <glyph glyph-name="Ntilde" unicode="&#xd1;" horiz-adv-x="760" 
d="M151 215v245q0 103 -5 124q-9 37 -49 37q-8 0 -24 -2.5t-24 -2.5q-14 0 -23 10t-9 24q0 36 52 36q13 0 42 -5.5t48 -5.5t49.5 5.5t44.5 5.5q6 0 10.5 -1t9 -3.5t7.5 -4t6.5 -6.5t5.5 -7.5t5 -9t4 -9t4.5 -10.5t4.5 -10l245 -559h2v394q0 103 -5 124q-9 37 -49 37
q-8 0 -24 -2.5t-24 -2.5q-14 0 -23 10t-9 24q0 36 52 36q21 0 64.5 -5.5t69.5 -5.5q27 0 72 5.5t62 5.5q16 0 25 -10t9 -26q0 -14 -9 -24t-23 -10q-8 0 -24 2.5t-24 2.5q-39 0 -49 -37q-5 -18 -5 -124v-344q0 -28 -1.5 -46t-8 -43.5t-23.5 -38.5t-43 -13q-24 0 -42.5 14.5
t-26.5 29.5t-21 43l-238 544h-2v-391q0 -103 5 -124q10 -37 49 -37q8 0 24 2.5t24 2.5q14 0 23 -10t9 -24q0 -36 -52 -36q-22 0 -62 5.5t-66 5.5q-24 0 -64.5 -5.5t-57.5 -5.5q-52 0 -52 36q0 14 9 24t23 10q8 0 24 -2.5t24 -2.5q40 0 49 37q5 21 5 124zM415 831
q43 -16 59 -16q21 0 36.5 16.5t19.5 16.5q12 0 12 -14q0 -24 -15 -50q-27 -41 -80 -41q-25 0 -81.5 19.5t-79.5 19.5q-25 0 -40 -21q-11 -12 -14 -13q-13 0 -13 16q0 24 19 54q26 38 80 38q27 0 97 -25z" />
    <glyph glyph-name="Ograve" unicode="&#xd2;" horiz-adv-x="680" 
d="M331 -25q-76 0 -134.5 31t-92 83t-50.5 115t-17 133q0 74 17.5 137.5t52 115t94 81t137.5 29.5q143 0 222 -102q35 -46 54 -114t19 -130q0 -64 -15.5 -132.5t-46.5 -117.5q-39 -62 -102 -95.5t-138 -33.5zM331 45q56 0 101.5 30.5t71.5 81.5q37 71 37 192q0 120 -43 189
q-54 89 -160 92q-49 -1 -86.5 -19.5t-60 -47t-37 -69t-20 -79.5t-5.5 -82q0 -119 43 -192q59 -96 159 -96zM296 871l106 -91q19 -17 19 -26q0 -11 -14 -11q-1 0 -22 6l-138 51q-38 14 -38 44q0 19 13 33.5t32 14.5t42 -21z" />
    <glyph glyph-name="Oacute" unicode="&#xd3;" horiz-adv-x="680" 
d="M331 -25q-76 0 -134.5 31t-92 83t-50.5 115t-17 133q0 74 17.5 137.5t52 115t94 81t137.5 29.5q143 0 222 -102q35 -46 54 -114t19 -130q0 -64 -15.5 -132.5t-46.5 -117.5q-39 -62 -102 -95.5t-138 -33.5zM331 45q56 0 101.5 30.5t71.5 81.5q37 71 37 192q0 120 -43 189
q-54 89 -160 92q-49 -1 -86.5 -19.5t-60 -47t-37 -69t-20 -79.5t-5.5 -82q0 -119 43 -192q59 -96 159 -96zM442 800l-139 -51q-21 -6 -22 -6q-13 0 -13 11q0 10 18 26l106 91q23 21 43 21q18 0 31.5 -14.5t13.5 -33.5q0 -29 -38 -44z" />
    <glyph glyph-name="Ocircumflex" unicode="&#xd4;" horiz-adv-x="680" 
d="M331 -25q-76 0 -134.5 31t-92 83t-50.5 115t-17 133q0 74 17.5 137.5t52 115t94 81t137.5 29.5q143 0 222 -102q35 -46 54 -114t19 -130q0 -64 -15.5 -132.5t-46.5 -117.5q-39 -62 -102 -95.5t-138 -33.5zM331 45q56 0 101.5 30.5t71.5 81.5q37 71 37 192q0 120 -43 189
q-54 89 -160 92q-49 -1 -86.5 -19.5t-60 -47t-37 -69t-20 -79.5t-5.5 -82q0 -119 43 -192q59 -96 159 -96zM179 765l138 98q16 12 21 12q2 0 20 -12l140 -98q16 -11 16 -20q0 -12 -13 -12q-10 0 -75 23q-80 29 -91 35q-30 -14 -88.5 -36.5t-72.5 -22.5q-15 0 -15 13
q0 4 3.5 7.5t9.5 7.5z" />
    <glyph glyph-name="Otilde" unicode="&#xd5;" horiz-adv-x="680" 
d="M331 -25q-76 0 -134.5 31t-92 83t-50.5 115t-17 133q0 74 17.5 137.5t52 115t94 81t137.5 29.5q143 0 222 -102q35 -46 54 -114t19 -130q0 -64 -15.5 -132.5t-46.5 -117.5q-39 -62 -102 -95.5t-138 -33.5zM331 45q56 0 101.5 30.5t71.5 81.5q37 71 37 192q0 120 -43 189
q-54 89 -160 92q-49 -1 -86.5 -19.5t-60 -47t-37 -69t-20 -79.5t-5.5 -82q0 -119 43 -192q59 -96 159 -96zM375 831q43 -16 59 -16q21 0 36.5 16.5t19.5 16.5q12 0 12 -14q0 -24 -15 -50q-27 -41 -80 -41q-25 0 -81.5 19.5t-79.5 19.5q-25 0 -40 -21q-11 -12 -14 -13
q-13 0 -13 16q0 24 19 54q26 38 80 38q27 0 97 -25z" />
    <glyph glyph-name="Odieresis" unicode="&#xd6;" horiz-adv-x="680" 
d="M331 -25q-76 0 -134.5 31t-92 83t-50.5 115t-17 133q0 74 17.5 137.5t52 115t94 81t137.5 29.5q143 0 222 -102q35 -46 54 -114t19 -130q0 -64 -15.5 -132.5t-46.5 -117.5q-39 -62 -102 -95.5t-138 -33.5zM331 45q56 0 101.5 30.5t71.5 81.5q37 71 37 192q0 120 -43 189
q-54 89 -160 92q-49 -1 -86.5 -19.5t-60 -47t-37 -69t-20 -79.5t-5.5 -82q0 -119 43 -192q59 -96 159 -96zM247 858q24 0 41 -17t17 -41t-17 -40.5t-41 -16.5q-23 0 -40 16.5t-17 40.5t16.5 41t40.5 17zM431 858q23 0 40 -17t17 -41t-17 -40.5t-40 -16.5q-24 0 -41 16.5
t-17 40.5t17 41t41 17z" />
    <glyph glyph-name="multiply" unicode="&#xd7;" horiz-adv-x="620" 
d="M303 216l-198 -198l-54 54l198 198l-198 198l54 54l198 -198l198 198l54 -54l-198 -198l198 -198l-54 -54z" />
    <glyph glyph-name="Oslash" unicode="&#xd8;" 
d="M92 -47l50 92q-105 100 -105 276q0 64 16.5 134t47.5 120q38 60 99.5 92.5t133.5 32.5q76 0 137 -32l29 56l4.5 7.5t3 5.5t3 4t2.5 3t3.5 2.5t3.5 1t4.5 0.5h5.5h7h8h10.5h9.5h7t5.5 -1.5t2 -4.5t-1 -7.5t-4.5 -10.5l-48 -92q106 -111 106 -295q0 -145 -64 -241
q-38 -58 -97.5 -89.5t-129.5 -31.5q-82 0 -147 31l-27 -52q-3 -7 -5 -10t-4 -6.5t-4 -4.5t-3.5 -2.5t-5.5 -1.5h-6.5h-9.5h-12q-1 0 -6 -0.5t-8.5 -0.5t-8 0.5t-7 2.5t-2.5 6q0 3 3 9zM176 116l263 489q-39 25 -100 25q-60 0 -103 -27.5t-65.5 -74t-32 -96t-9.5 -104.5
q0 -137 47 -212zM488 554l-261 -481q41 -28 98 -28q61 0 104.5 24.5t66.5 67t33.5 89.5t10.5 102q0 155 -52 226z" />
    <glyph glyph-name="Ugrave" unicode="&#xd9;" horiz-adv-x="720" 
d="M117 203v256q0 95 -5 125q-6 37 -49 37q-8 0 -24 -2.5t-24 -2.5q-14 0 -23 10t-9 24q0 16 11 26t27 10q24 0 66 -5.5t68 -5.5q27 0 71 5.5t63 5.5q21 0 34.5 -9.5t13.5 -26.5q0 -14 -9 -24t-23 -10q-8 0 -24 2.5t-24 2.5q-42 0 -49 -37q-5 -30 -5 -125v-229
q0 -100 28 -136q38 -49 131 -49q86 0 129 46q33 35 33 139v229q0 95 -5 125q-6 37 -49 37q-8 0 -24 -2.5t-24 -2.5q-14 0 -23 10t-9 24q0 16 11 26t27 10q24 0 66 -5.5t68 -5.5q27 0 71 5.5t63 5.5q21 0 34.5 -9.5t13.5 -26.5q0 -14 -9 -24t-23 -10q-8 0 -24 2.5t-24 2.5
q-42 0 -49 -37q-5 -30 -5 -125v-205q0 -48 -1.5 -74.5t-13 -64.5t-34.5 -65q-63 -75 -198 -75q-112 0 -179 49q-41 30 -54 73.5t-13 105.5zM326 871l106 -91q19 -17 19 -26q0 -11 -14 -11q-1 0 -22 6l-138 51q-38 14 -38 44q0 19 13 33.5t32 14.5t42 -21z" />
    <glyph glyph-name="Uacute" unicode="&#xda;" horiz-adv-x="720" 
d="M117 203v256q0 95 -5 125q-6 37 -49 37q-8 0 -24 -2.5t-24 -2.5q-14 0 -23 10t-9 24q0 16 11 26t27 10q24 0 66 -5.5t68 -5.5q27 0 71 5.5t63 5.5q21 0 34.5 -9.5t13.5 -26.5q0 -14 -9 -24t-23 -10q-8 0 -24 2.5t-24 2.5q-42 0 -49 -37q-5 -30 -5 -125v-229
q0 -100 28 -136q38 -49 131 -49q86 0 129 46q33 35 33 139v229q0 95 -5 125q-6 37 -49 37q-8 0 -24 -2.5t-24 -2.5q-14 0 -23 10t-9 24q0 16 11 26t27 10q24 0 66 -5.5t68 -5.5q27 0 71 5.5t63 5.5q21 0 34.5 -9.5t13.5 -26.5q0 -14 -9 -24t-23 -10q-8 0 -24 2.5t-24 2.5
q-42 0 -49 -37q-5 -30 -5 -125v-205q0 -48 -1.5 -74.5t-13 -64.5t-34.5 -65q-63 -75 -198 -75q-112 0 -179 49q-41 30 -54 73.5t-13 105.5zM452 800l-139 -51q-21 -6 -22 -6q-13 0 -13 11q0 10 18 26l106 91q23 21 43 21q18 0 31.5 -14.5t13.5 -33.5q0 -29 -38 -44z" />
    <glyph glyph-name="Ucircumflex" unicode="&#xdb;" horiz-adv-x="720" 
d="M117 203v256q0 95 -5 125q-6 37 -49 37q-8 0 -24 -2.5t-24 -2.5q-14 0 -23 10t-9 24q0 16 11 26t27 10q24 0 66 -5.5t68 -5.5q27 0 71 5.5t63 5.5q21 0 34.5 -9.5t13.5 -26.5q0 -14 -9 -24t-23 -10q-8 0 -24 2.5t-24 2.5q-42 0 -49 -37q-5 -30 -5 -125v-229
q0 -100 28 -136q38 -49 131 -49q86 0 129 46q33 35 33 139v229q0 95 -5 125q-6 37 -49 37q-8 0 -24 -2.5t-24 -2.5q-14 0 -23 10t-9 24q0 16 11 26t27 10q24 0 66 -5.5t68 -5.5q27 0 71 5.5t63 5.5q21 0 34.5 -9.5t13.5 -26.5q0 -14 -9 -24t-23 -10q-8 0 -24 2.5t-24 2.5
q-42 0 -49 -37q-5 -30 -5 -125v-205q0 -48 -1.5 -74.5t-13 -64.5t-34.5 -65q-63 -75 -198 -75q-112 0 -179 49q-41 30 -54 73.5t-13 105.5zM199 775l138 98q16 12 21 12q2 0 20 -12l140 -98q16 -11 16 -20q0 -12 -13 -12q-10 0 -75 23q-80 29 -91 35q-30 -14 -88.5 -36.5
t-72.5 -22.5q-15 0 -15 13q0 3 2.5 6t5.5 5.5t7 5t5 3.5z" />
    <glyph glyph-name="Udieresis" unicode="&#xdc;" horiz-adv-x="720" 
d="M117 203v256q0 95 -5 125q-6 37 -49 37q-8 0 -24 -2.5t-24 -2.5q-14 0 -23 10t-9 24q0 16 11 26t27 10q24 0 66 -5.5t68 -5.5q27 0 71 5.5t63 5.5q21 0 34.5 -9.5t13.5 -26.5q0 -14 -9 -24t-23 -10q-8 0 -24 2.5t-24 2.5q-42 0 -49 -37q-5 -30 -5 -125v-229
q0 -100 28 -136q38 -49 131 -49q86 0 129 46q33 35 33 139v229q0 95 -5 125q-6 37 -49 37q-8 0 -24 -2.5t-24 -2.5q-14 0 -23 10t-9 24q0 16 11 26t27 10q24 0 66 -5.5t68 -5.5q27 0 71 5.5t63 5.5q21 0 34.5 -9.5t13.5 -26.5q0 -14 -9 -24t-23 -10q-8 0 -24 2.5t-24 2.5
q-42 0 -49 -37q-5 -30 -5 -125v-205q0 -48 -1.5 -74.5t-13 -64.5t-34.5 -65q-63 -75 -198 -75q-112 0 -179 49q-41 30 -54 73.5t-13 105.5zM272 858q24 0 41 -17t17 -41t-17 -40.5t-41 -16.5q-23 0 -40 16.5t-17 40.5t16.5 41t40.5 17zM456 858q23 0 40 -17t17 -41
t-17 -40.5t-40 -16.5q-24 0 -41 16.5t-17 40.5t17 41t41 17z" />
    <glyph glyph-name="Yacute" unicode="&#xdd;" horiz-adv-x="760" 
d="M237 586l152 -258l154 258q12 19 12 27q0 9 -24 9q-13 0 -38 -3t-38 -3q-14 0 -23 10t-9 24q0 15 12.5 25.5t32.5 10.5q24 0 66 -5.5t68 -5.5q27 0 71.5 5.5t62.5 5.5q43 0 43 -36q0 -14 -9 -24t-23 -10q-9 0 -29 3.5t-27 3.5q-13 0 -22.5 -5t-14 -10t-13.5 -19
l-213 -335v-44q0 -89 5 -119q7 -37 49 -37q8 0 24 2.5t24 2.5q18 0 30.5 -9.5t12.5 -26.5q0 -14 -9 -24t-23 -10q-21 0 -68.5 5.5t-87.5 5.5q-33 0 -74.5 -5.5t-64.5 -5.5q-49 0 -49 34q0 17 12.5 26.5t30.5 9.5q9 0 25.5 -2.5t25.5 -2.5q17 0 29.5 9t15.5 24q6 28 6 113v48
l-207 328q-27 44 -56 44q-8 0 -26.5 -2t-30.5 -2q-14 0 -23 10t-9 24q0 15 11.5 25.5t30.5 10.5q21 0 64.5 -5.5t69.5 -5.5t69.5 5.5t64.5 5.5q43 0 43 -36q0 -14 -9 -24t-23 -10q-16 0 -38 3t-28 3q-21 0 -21 -10q0 -3 13 -26zM472 800l-139 -51q-21 -6 -22 -6
q-13 0 -13 11q0 10 18 26l106 91q23 21 43 21q18 0 31.5 -14.5t13.5 -33.5q0 -29 -38 -44z" />
    <glyph glyph-name="Thorn" unicode="&#xde;" 
d="M237 452v-214q0 -20 24 -22h96q41 -1 71 3t59 17t44 41.5t15 71.5q0 39 -18.5 70.5t-52.5 43.5q-35 11 -118 11h-96q-24 -2 -24 -22zM320 147h-57q-14 0 -20 -4t-6 -18v-14q0 -57 54 -57q8 0 24 2.5t24 2.5q14 0 23 -10t9 -24q0 -17 -13 -26.5t-31 -9.5q-22 0 -65 5.5
t-69 5.5q-27 0 -71 -5.5t-63 -5.5q-17 0 -29.5 9.5t-12.5 26.5q0 14 9 24t23 10q8 0 24 -2.5t24 -2.5q40 0 49 37q5 21 5 124v245q0 103 -5 124q-9 37 -49 37q-8 0 -24 -2.5t-24 -2.5q-14 0 -23 10t-9 24q0 17 13.5 26.5t34.5 9.5q20 0 62.5 -5.5t65.5 -5.5q26 0 69.5 5.5
t64.5 5.5q18 0 31 -9.5t13 -26.5q0 -14 -9 -24t-23 -10q-8 0 -24 2.5t-24 2.5q-54 0 -54 -57q0 -14 6 -18t20 -4h57q94 0 145 -6.5t85 -26.5q88 -52 88 -163q0 -56 -26.5 -101t-75.5 -69q-29 -14 -72.5 -21t-66 -7.5t-77.5 -0.5z" />
    <glyph glyph-name="germandbls" unicode="&#xdf;" horiz-adv-x="640" 
d="M321 185l-4 -32q0 -47 27.5 -73t75.5 -26q45 0 76.5 29.5t31.5 70.5q0 46 -39 77l-87 61l-39 25q-55 34 -55 73q0 23 21 45.5t45.5 38.5t45.5 40t21 50q0 32 -31.5 49t-66.5 17q-90 0 -125 -82q-21 -51 -21 -162l5 -327q0 -70 -47 -70q-12 0 -30.5 5.5t-29.5 5.5
t-29.5 -5.5t-30.5 -5.5q-18 0 -30.5 9.5t-12.5 26.5q0 14 9 24t23 10q8 0 24 -2.5t24 -2.5q40 0 49 37q5 20 5 139q0 133 -5 167t-25 34q-5 0 -14.5 -1.5t-14.5 -1.5q-17 0 -28 9t-11 25q0 15 8.5 24t23.5 9q8 0 24 -3.5t25 -3.5q4 0 7.5 1t6 3t4.5 4t4 6l3 6t2.5 7t2 6.5
t1.5 7t1 6.5q16 73 66 118q52 47 142 47q67 0 121 -38.5t54 -102.5q0 -39 -19 -65.5t-56 -52.5q-44 -31 -44 -46q0 -11 15.5 -24t38 -25t49.5 -30t49.5 -38.5t38 -52t15.5 -67.5q0 -73 -52 -123.5t-129 -50.5q-60 0 -111 39q0 -43 -35 -43t-31 48q0 14 2.5 42t2.5 41
t-2.5 38t-2.5 37q0 18 9.5 30t26.5 12q32 0 32 -43z" />
    <glyph glyph-name="agrave" unicode="&#xe0;" horiz-adv-x="600" 
d="M456 331l-4 -181q0 -1 -0.5 -15.5t-0.5 -20t0.5 -19.5t3 -21t6.5 -16t11.5 -13t17.5 -4q9 0 15.5 3.5t10.5 10.5t6.5 13.5t3 17t1 17t0 17.5t-0.5 14v9v10t0.5 9t1 8.5t2 7.5t4 7t6 4.5t8 3.5t10.5 1q35 0 35 -41q0 -65 -3 -92t-18 -46q-26 -36 -88 -36q-39 0 -67 18
t-35 54q-48 -76 -162 -76q-73 0 -119 29q-67 42 -67 119q0 87 68 127q42 25 134 36q4 0 22.5 2t25 2.5t22.5 3.5t22.5 6t17.5 9t16 13.5t9 18.5t4 24q0 47 -32 68.5t-81 21.5q-40 0 -77 -22q-23 -14 -23 -26q0 -1 6 -4.5t12 -12.5t6 -24q0 -22 -16 -34.5t-38 -12.5
q-26 0 -44 18.5t-18 45.5q0 59 62 103q53 37 132 37q85 0 137 -40q57 -44 55 -152zM117 127q0 -42 30 -63t74 -21q85 0 126 53q25 35 25 97q0 22 2 64q-7 -7 -15 -12t-15 -9t-18 -7t-17 -5t-19.5 -4t-18 -2.5t-19.5 -2t-18 -1.5q-24 -2 -41.5 -6t-36.5 -13t-29 -26t-10 -42z
M266 694l106 -91q19 -17 19 -26q0 -11 -14 -11q-1 0 -22 6l-138 51q-38 14 -38 44q0 19 13 33.5t32 14.5t42 -21z" />
    <glyph glyph-name="aacute" unicode="&#xe1;" horiz-adv-x="600" 
d="M456 331l-4 -181q0 -1 -0.5 -15.5t-0.5 -20t0.5 -19.5t3 -21t6.5 -16t11.5 -13t17.5 -4q9 0 15.5 3.5t10.5 10.5t6.5 13.5t3 17t1 17t0 17.5t-0.5 14v9v10t0.5 9t1 8.5t2 7.5t4 7t6 4.5t8 3.5t10.5 1q35 0 35 -41q0 -65 -3 -92t-18 -46q-26 -36 -88 -36q-39 0 -67 18
t-35 54q-48 -76 -162 -76q-73 0 -119 29q-67 42 -67 119q0 87 68 127q42 25 134 36q4 0 22.5 2t25 2.5t22.5 3.5t22.5 6t17.5 9t16 13.5t9 18.5t4 24q0 47 -32 68.5t-81 21.5q-40 0 -77 -22q-23 -14 -23 -26q0 -1 6 -4.5t12 -12.5t6 -24q0 -22 -16 -34.5t-38 -12.5
q-26 0 -44 18.5t-18 45.5q0 59 62 103q53 37 132 37q85 0 137 -40q57 -44 55 -152zM117 127q0 -42 30 -63t74 -21q85 0 126 53q25 35 25 97q0 22 2 64q-7 -7 -15 -12t-15 -9t-18 -7t-17 -5t-19.5 -4t-18 -2.5t-19.5 -2t-18 -1.5q-24 -2 -41.5 -6t-36.5 -13t-29 -26t-10 -42z
M392 623l-139 -51q-21 -6 -22 -6q-13 0 -13 11q0 10 18 26l106 91q23 21 43 21q18 0 31.5 -14.5t13.5 -33.5q0 -29 -38 -44z" />
    <glyph glyph-name="acircumflex" unicode="&#xe2;" horiz-adv-x="600" 
d="M456 331l-4 -181q0 -1 -0.5 -15.5t-0.5 -20t0.5 -19.5t3 -21t6.5 -16t11.5 -13t17.5 -4q9 0 15.5 3.5t10.5 10.5t6.5 13.5t3 17t1 17t0 17.5t-0.5 14v9v10t0.5 9t1 8.5t2 7.5t4 7t6 4.5t8 3.5t10.5 1q35 0 35 -41q0 -65 -3 -92t-18 -46q-26 -36 -88 -36q-39 0 -67 18
t-35 54q-48 -76 -162 -76q-73 0 -119 29q-67 42 -67 119q0 87 68 127q42 25 134 36q4 0 22.5 2t25 2.5t22.5 3.5t22.5 6t17.5 9t16 13.5t9 18.5t4 24q0 47 -32 68.5t-81 21.5q-40 0 -77 -22q-23 -14 -23 -26q0 -1 6 -4.5t12 -12.5t6 -24q0 -22 -16 -34.5t-38 -12.5
q-26 0 -44 18.5t-18 45.5q0 59 62 103q53 37 132 37q85 0 137 -40q57 -44 55 -152zM117 127q0 -42 30 -63t74 -21q85 0 126 53q25 35 25 97q0 22 2 64q-7 -7 -15 -12t-15 -9t-18 -7t-17 -5t-19.5 -4t-18 -2.5t-19.5 -2t-18 -1.5q-24 -2 -41.5 -6t-36.5 -13t-29 -26t-10 -42z
M129 598l138 98q16 12 21 12q2 0 20 -12l140 -98q16 -11 16 -20q0 -12 -13 -12q-10 0 -75 23q-80 29 -91 35q-30 -14 -88.5 -36.5t-72.5 -22.5q-15 0 -15 13q0 3 2.5 6t5.5 5.5t7 5t5 3.5z" />
    <glyph glyph-name="atilde" unicode="&#xe3;" horiz-adv-x="600" 
d="M456 331l-4 -181q0 -1 -0.5 -15.5t-0.5 -20t0.5 -19.5t3 -21t6.5 -16t11.5 -13t17.5 -4q9 0 15.5 3.5t10.5 10.5t6.5 13.5t3 17t1 17t0 17.5t-0.5 14v9v10t0.5 9t1 8.5t2 7.5t4 7t6 4.5t8 3.5t10.5 1q35 0 35 -41q0 -65 -3 -92t-18 -46q-26 -36 -88 -36q-39 0 -67 18
t-35 54q-48 -76 -162 -76q-73 0 -119 29q-67 42 -67 119q0 87 68 127q42 25 134 36q4 0 22.5 2t25 2.5t22.5 3.5t22.5 6t17.5 9t16 13.5t9 18.5t4 24q0 47 -32 68.5t-81 21.5q-40 0 -77 -22q-23 -14 -23 -26q0 -1 6 -4.5t12 -12.5t6 -24q0 -22 -16 -34.5t-38 -12.5
q-26 0 -44 18.5t-18 45.5q0 59 62 103q53 37 132 37q85 0 137 -40q57 -44 55 -152zM117 127q0 -42 30 -63t74 -21q85 0 126 53q25 35 25 97q0 22 2 64q-7 -7 -15 -12t-15 -9t-18 -7t-17 -5t-19.5 -4t-18 -2.5t-19.5 -2t-18 -1.5q-24 -2 -41.5 -6t-36.5 -13t-29 -26t-10 -42z
M325 654q43 -16 59 -16q21 0 36.5 16.5t19.5 16.5q12 0 12 -14q0 -24 -15 -50q-27 -41 -80 -41q-25 0 -81.5 19.5t-79.5 19.5q-25 0 -40 -21q-11 -12 -14 -13q-13 0 -13 16q0 24 19 54q26 38 80 38q27 0 97 -25z" />
    <glyph glyph-name="adieresis" unicode="&#xe4;" horiz-adv-x="600" 
d="M456 331l-4 -181q0 -1 -0.5 -15.5t-0.5 -20t0.5 -19.5t3 -21t6.5 -16t11.5 -13t17.5 -4q9 0 15.5 3.5t10.5 10.5t6.5 13.5t3 17t1 17t0 17.5t-0.5 14v9v10t0.5 9t1 8.5t2 7.5t4 7t6 4.5t8 3.5t10.5 1q35 0 35 -41q0 -65 -3 -92t-18 -46q-26 -36 -88 -36q-39 0 -67 18
t-35 54q-48 -76 -162 -76q-73 0 -119 29q-67 42 -67 119q0 87 68 127q42 25 134 36q4 0 22.5 2t25 2.5t22.5 3.5t22.5 6t17.5 9t16 13.5t9 18.5t4 24q0 47 -32 68.5t-81 21.5q-40 0 -77 -22q-23 -14 -23 -26q0 -1 6 -4.5t12 -12.5t6 -24q0 -22 -16 -34.5t-38 -12.5
q-26 0 -44 18.5t-18 45.5q0 59 62 103q53 37 132 37q85 0 137 -40q57 -44 55 -152zM117 127q0 -42 30 -63t74 -21q85 0 126 53q25 35 25 97q0 22 2 64q-7 -7 -15 -12t-15 -9t-18 -7t-17 -5t-19.5 -4t-18 -2.5t-19.5 -2t-18 -1.5q-24 -2 -41.5 -6t-36.5 -13t-29 -26t-10 -42z
M187 681q24 0 41 -17t17 -41t-17 -40.5t-41 -16.5q-23 0 -40 16.5t-17 40.5t16.5 41t40.5 17zM371 681q23 0 40 -17t17 -41t-17 -40.5t-40 -16.5q-24 0 -41 16.5t-17 40.5t17 41t41 17z" />
    <glyph glyph-name="aring" unicode="&#xe5;" horiz-adv-x="600" 
d="M456 331l-4 -181q0 -1 -0.5 -15.5t-0.5 -20t0.5 -19.5t3 -21t6.5 -16t11.5 -13t17.5 -4q9 0 15.5 3.5t10.5 10.5t6.5 13.5t3 17t1 17t0 17.5t-0.5 14v9v10t0.5 9t1 8.5t2 7.5t4 7t6 4.5t8 3.5t10.5 1q35 0 35 -41q0 -65 -3 -92t-18 -46q-26 -36 -88 -36q-39 0 -67 18
t-35 54q-48 -76 -162 -76q-73 0 -119 29q-67 42 -67 119q0 87 68 127q42 25 134 36q4 0 22.5 2t25 2.5t22.5 3.5t22.5 6t17.5 9t16 13.5t9 18.5t4 24q0 47 -32 68.5t-81 21.5q-40 0 -77 -22q-23 -14 -23 -26q0 -1 6 -4.5t12 -12.5t6 -24q0 -22 -16 -34.5t-38 -12.5
q-26 0 -44 18.5t-18 45.5q0 59 62 103q53 37 132 37q85 0 137 -40q57 -44 55 -152zM117 127q0 -42 30 -63t74 -21q85 0 126 53q25 35 25 97q0 22 2 64q-7 -7 -15 -12t-15 -9t-18 -7t-17 -5t-19.5 -4t-18 -2.5t-19.5 -2t-18 -1.5q-24 -2 -41.5 -6t-36.5 -13t-29 -26t-10 -42z
M279 717q33 0 56.5 -23.5t23.5 -56.5q0 -34 -23.5 -57.5t-56.5 -23.5t-56.5 23.5t-23.5 57.5q0 33 23.5 56.5t56.5 23.5zM279 678q-17 0 -29.5 -12t-12.5 -29q0 -18 12.5 -30t29.5 -12t29.5 12t12.5 30q0 17 -12.5 29t-29.5 12z" />
    <glyph glyph-name="ae" unicode="&#xe6;" horiz-adv-x="880" 
d="M309 306h74l2 22q0 58 -33 92.5t-91 34.5q-46 0 -80 -20q-19 -9 -19 -21q0 -1 4 -5t8.5 -12.5t4.5 -21.5q0 -24 -17 -37.5t-42 -13.5q-24 0 -40.5 17t-16.5 40q0 60 63 103q56 39 135 39q61 0 109.5 -24t67.5 -76q55 100 182 100q100 0 159.5 -67t59.5 -169q0 -25 -5 -37
q-4 -12 -32 -12h-342q0 -80 38 -137.5t114 -57.5q104 0 139 97q5 13 8 19t10.5 12t19.5 6q17 0 28 -11t11 -30q0 -24 -21.5 -57.5t-44.5 -52.5q-64 -51 -157 -51q-57 0 -105.5 26.5t-75.5 74.5q-26 -51 -77 -76t-112 -25q-84 0 -142.5 39.5t-58.5 119.5q0 48 27 87.5
t70 58.5q58 26 178 26zM468 306h288q-2 65 -40 107t-103 42q-59 0 -100 -44.5t-45 -104.5zM383 238h-94q-80 0 -114 -15q-58 -26 -58 -87q0 -45 35 -69t82 -24q36 0 71 14.5t53 41.5q25 35 25 121v18z" />
    <glyph glyph-name="ccedilla" unicode="&#xe7;" horiz-adv-x="500" 
d="M121 249q0 -85 37 -145.5t117 -60.5q46 0 79.5 26t45.5 71q1 2 3 11.5t3 13t4 11t5.5 11t7 8t10.5 6t13 1.5q16 0 27.5 -11.5t11.5 -27.5q0 -28 -17 -64.5t-38 -58.5q-60 -64 -154 -64l-8 -20q5 0 13 1t12 1q31 0 56.5 -19.5t25.5 -50.5q0 -39 -33 -59t-75 -20
q-29 0 -63.5 15t-34.5 40q0 8 6.5 15t14.5 7q10 0 21 -11q24 -25 54 -25q19 0 35 8.5t16 26.5q0 17 -12.5 25.5t-30.5 8.5q-14 0 -32 -7q-21 -6 -24 -6q-11 0 -11 10q0 4 9 27l15 36q-91 14 -141.5 87t-50.5 173q0 123 63 203.5t183 80.5q70 0 121 -36q29 -20 48 -53t19 -67
q0 -38 -19 -64.5t-56 -26.5q-24 0 -41.5 15.5t-17.5 39.5q0 21 15 33t37 13q-1 36 -36 57t-74 21q-53 0 -90.5 -32t-53 -77t-15.5 -97z" />
    <glyph glyph-name="egrave" unicode="&#xe8;" horiz-adv-x="540" 
d="M460 238h-339q-3 -81 39.5 -138t121.5 -57q52 0 88 25.5t50 73.5q4 12 5 16.5t5.5 13t11 11.5t16.5 3q17 0 28.5 -10.5t11.5 -27.5q0 -29 -17.5 -61t-41.5 -54q-61 -58 -163 -58q-114 0 -176 74.5t-62 190.5q0 119 59 195q69 88 184 88q101 0 164 -65t63 -166
q0 -38 -6.5 -46t-41.5 -8zM130 310h295q-4 64 -40.5 104.5t-100.5 40.5t-106.5 -40.5t-47.5 -104.5zM236 694l106 -91q19 -17 19 -26q0 -11 -14 -11q-1 0 -22 6l-138 51q-38 14 -38 44q0 19 13 33.5t32 14.5t42 -21z" />
    <glyph glyph-name="eacute" unicode="&#xe9;" horiz-adv-x="540" 
d="M460 238h-339q-3 -81 39.5 -138t121.5 -57q52 0 88 25.5t50 73.5q4 12 5 16.5t5.5 13t11 11.5t16.5 3q17 0 28.5 -10.5t11.5 -27.5q0 -29 -17.5 -61t-41.5 -54q-61 -58 -163 -58q-114 0 -176 74.5t-62 190.5q0 119 59 195q69 88 184 88q101 0 164 -65t63 -166
q0 -38 -6.5 -46t-41.5 -8zM130 310h295q-4 64 -40.5 104.5t-100.5 40.5t-106.5 -40.5t-47.5 -104.5zM362 623l-139 -51q-21 -6 -22 -6q-13 0 -13 11q0 10 18 26l106 91q23 21 43 21q18 0 31.5 -14.5t13.5 -33.5q0 -29 -38 -44z" />
    <glyph glyph-name="ecircumflex" unicode="&#xea;" horiz-adv-x="540" 
d="M460 238h-339q-3 -81 39.5 -138t121.5 -57q52 0 88 25.5t50 73.5q4 12 5 16.5t5.5 13t11 11.5t16.5 3q17 0 28.5 -10.5t11.5 -27.5q0 -29 -17.5 -61t-41.5 -54q-61 -58 -163 -58q-114 0 -176 74.5t-62 190.5q0 119 59 195q69 88 184 88q101 0 164 -65t63 -166
q0 -38 -6.5 -46t-41.5 -8zM130 310h295q-4 64 -40.5 104.5t-100.5 40.5t-106.5 -40.5t-47.5 -104.5zM129 598l138 98q16 12 21 12q2 0 20 -12l140 -98q16 -11 16 -20q0 -12 -13 -12q-10 0 -75 23q-80 29 -91 35q-30 -14 -88.5 -36.5t-72.5 -22.5q-15 0 -15 13q0 3 2.5 6
t5.5 5.5t7 5t5 3.5z" />
    <glyph glyph-name="edieresis" unicode="&#xeb;" horiz-adv-x="540" 
d="M460 238h-339q-3 -81 39.5 -138t121.5 -57q52 0 88 25.5t50 73.5q4 12 5 16.5t5.5 13t11 11.5t16.5 3q17 0 28.5 -10.5t11.5 -27.5q0 -29 -17.5 -61t-41.5 -54q-61 -58 -163 -58q-114 0 -176 74.5t-62 190.5q0 119 59 195q69 88 184 88q101 0 164 -65t63 -166
q0 -38 -6.5 -46t-41.5 -8zM130 310h295q-4 64 -40.5 104.5t-100.5 40.5t-106.5 -40.5t-47.5 -104.5zM192 681q24 0 41 -17t17 -41t-17 -40.5t-41 -16.5q-23 0 -40 16.5t-17 40.5t16.5 41t40.5 17zM376 681q23 0 40 -17t17 -41t-17 -40.5t-40 -16.5q-24 0 -41 16.5t-17 40.5
t17 41t41 17z" />
    <glyph glyph-name="igrave" unicode="&#xec;" horiz-adv-x="320" 
d="M132 137v224q0 51 -6 67.5t-23 16.5q-9 0 -24 -3t-22 -3q-15 0 -24.5 9.5t-9.5 23.5q0 17 10 27t25 10q14 0 34 -5.5t32 -5.5q13 0 30.5 5.5t26.5 5.5q28 0 28 -43v-372q0 -41 26 -41q4 0 18 3.5t22 2.5q15 0 24.5 -9.5t9.5 -23.5q0 -16 -13 -26.5t-30 -10.5
q-16 0 -48 5.5t-55 5.5q-22 0 -55.5 -5.5t-50.5 -5.5q-13 0 -23.5 11.5t-10.5 25.5t9.5 23.5t24.5 9.5q7 0 22 -3t24 -3q17 0 23 18.5t6 65.5zM106 694l106 -91q19 -17 19 -26q0 -11 -14 -11q-1 0 -22 6l-138 51q-38 14 -38 44q0 19 13 33.5t32 14.5t42 -21z" />
    <glyph glyph-name="iacute" unicode="&#xed;" horiz-adv-x="320" 
d="M132 137v224q0 51 -6 67.5t-23 16.5q-9 0 -24 -3t-22 -3q-15 0 -24.5 9.5t-9.5 23.5q0 17 10 27t25 10q14 0 34 -5.5t32 -5.5q13 0 30.5 5.5t26.5 5.5q28 0 28 -43v-372q0 -41 26 -41q4 0 18 3.5t22 2.5q15 0 24.5 -9.5t9.5 -23.5q0 -16 -13 -26.5t-30 -10.5
q-16 0 -48 5.5t-55 5.5q-22 0 -55.5 -5.5t-50.5 -5.5q-13 0 -23.5 11.5t-10.5 25.5t9.5 23.5t24.5 9.5q7 0 22 -3t24 -3q17 0 23 18.5t6 65.5zM252 623l-139 -51q-21 -6 -22 -6q-13 0 -13 11q0 10 18 26l106 91q23 21 43 21q18 0 31.5 -14.5t13.5 -33.5q0 -29 -38 -44z" />
    <glyph glyph-name="icircumflex" unicode="&#xee;" horiz-adv-x="320" 
d="M132 137v224q0 51 -6 67.5t-23 16.5q-9 0 -24 -3t-22 -3q-15 0 -24.5 9.5t-9.5 23.5q0 17 10 27t25 10q14 0 34 -5.5t32 -5.5q13 0 30.5 5.5t26.5 5.5q28 0 28 -43v-372q0 -41 26 -41q4 0 18 3.5t22 2.5q15 0 24.5 -9.5t9.5 -23.5q0 -16 -13 -26.5t-30 -10.5
q-16 0 -48 5.5t-55 5.5q-22 0 -55.5 -5.5t-50.5 -5.5q-13 0 -23.5 11.5t-10.5 25.5t9.5 23.5t24.5 9.5q7 0 22 -3t24 -3q17 0 23 18.5t6 65.5zM-11 598l138 98q16 12 21 12q2 0 20 -12l140 -98q16 -11 16 -20q0 -12 -13 -12q-10 0 -75 23q-80 29 -91 35q-30 -14 -88.5 -36.5
t-72.5 -22.5q-15 0 -15 13q0 3 2.5 6t5.5 5.5t7 5t5 3.5z" />
    <glyph glyph-name="idieresis" unicode="&#xef;" horiz-adv-x="320" 
d="M132 137v224q0 51 -6 67.5t-23 16.5q-9 0 -24 -3t-22 -3q-15 0 -24.5 9.5t-9.5 23.5q0 17 10 27t25 10q14 0 34 -5.5t32 -5.5q13 0 30.5 5.5t26.5 5.5q28 0 28 -43v-372q0 -41 26 -41q4 0 18 3.5t22 2.5q15 0 24.5 -9.5t9.5 -23.5q0 -16 -13 -26.5t-30 -10.5
q-16 0 -48 5.5t-55 5.5q-22 0 -55.5 -5.5t-50.5 -5.5q-13 0 -23.5 11.5t-10.5 25.5t9.5 23.5t24.5 9.5q7 0 22 -3t24 -3q17 0 23 18.5t6 65.5zM47 681q24 0 41 -17t17 -41t-17 -40.5t-41 -16.5q-23 0 -40 16.5t-17 40.5t16.5 41t40.5 17zM231 681q23 0 40 -17t17 -41
t-17 -40.5t-40 -16.5q-24 0 -41 16.5t-17 40.5t17 41t41 17z" />
    <glyph glyph-name="eth" unicode="&#xf0;" horiz-adv-x="560" 
d="M38 248q0 118 61.5 197t176.5 78q50 0 88 -13l2 2q-22 33 -76 71l-128 -44q-31 -11 -45 7q-12 16 7 28q4 3 10 5l104 36q-36 22 -79 38q-32 13 -26 32t34 19q14 0 31 -7q75 -32 115 -57l132 45q30 11 42 -8q12 -17 -12 -30q-4 -2 -9 -4l-105 -36q161 -123 161 -356
q0 -119 -65 -197.5t-182 -78.5q-114 0 -175.5 78.5t-61.5 194.5zM276 43q85 0 124 60.5t39 150.5q0 88 -36 143q-37 58 -121 58q-87 0 -127 -68q-34 -58 -34 -137q0 -54 13.5 -98t50 -76.5t91.5 -32.5z" />
    <glyph glyph-name="ntilde" unicode="&#xf1;" 
d="M129 138v222q0 51 -6 68t-23 17q-9 0 -24 -3t-22 -3q-15 0 -24.5 9.5t-9.5 23.5q0 13 12 25t25 12q10 0 25 -5.5t29 -5.5q15 0 33 5.5t30 5.5q14 0 18 -13.5t4 -46.5h2q54 74 167 74q85 0 145 -54q30 -27 38 -60.5t8 -85.5v-186q0 -47 6 -66t23 -19q9 0 24 3t22 3
q15 0 24.5 -9.5t9.5 -23.5q0 -36 -43 -36q-15 0 -46.5 5.5t-55.5 5.5q-26 0 -58 -5.5t-49 -5.5q-43 0 -43 36q0 14 9.5 23.5t24.5 9.5q7 0 22 -3t24 -3q18 0 23.5 17.5t5.5 67.5v148q0 53 -2.5 73t-13.5 42q-14 27 -44.5 41t-64.5 14q-36 0 -70 -15t-52 -43
q-26 -41 -26 -141v-118q0 -47 6 -66t23 -19q9 0 24 3t22 3q15 0 24.5 -9.5t9.5 -23.5q0 -37 -43 -37q-15 0 -46.5 5.5t-55.5 5.5q-26 0 -58 -5.5t-49 -5.5q-43 0 -43 37q0 14 9.5 23.5t24.5 9.5q7 0 22 -3t24 -3q18 0 23.5 17.5t5.5 67.5zM365 654q43 -16 59 -16
q21 0 36.5 16.5t19.5 16.5q12 0 12 -14q0 -24 -15 -50q-27 -41 -80 -41q-25 0 -81.5 19.5t-79.5 19.5q-25 0 -40 -21q-11 -12 -14 -13q-13 0 -13 16q0 24 19 54q26 38 80 38q27 0 97 -25z" />
    <glyph glyph-name="ograve" unicode="&#xf2;" horiz-adv-x="560" 
d="M38 248q0 118 61.5 196.5t176.5 78.5q122 0 183 -76q63 -77 63 -196t-65 -197.5t-182 -78.5q-114 0 -175.5 78.5t-61.5 194.5zM121 251q0 -54 13.5 -98.5t50 -77t91.5 -32.5q85 0 124 61t39 151q0 87 -36 142q-37 58 -121 58q-87 0 -127 -68q-34 -58 -34 -136zM246 694
l106 -91q19 -17 19 -26q0 -11 -14 -11q-1 0 -22 6l-138 51q-38 14 -38 44q0 19 13 33.5t32 14.5t42 -21z" />
    <glyph glyph-name="oacute" unicode="&#xf3;" horiz-adv-x="560" 
d="M38 248q0 118 61.5 196.5t176.5 78.5q122 0 183 -76q63 -77 63 -196t-65 -197.5t-182 -78.5q-114 0 -175.5 78.5t-61.5 194.5zM121 251q0 -54 13.5 -98.5t50 -77t91.5 -32.5q85 0 124 61t39 151q0 87 -36 142q-37 58 -121 58q-87 0 -127 -68q-34 -58 -34 -136zM372 623
l-139 -51q-21 -6 -22 -6q-13 0 -13 11q0 10 18 26l106 91q23 21 43 21q18 0 31.5 -14.5t13.5 -33.5q0 -29 -38 -44z" />
    <glyph glyph-name="ocircumflex" unicode="&#xf4;" horiz-adv-x="560" 
d="M38 248q0 118 61.5 196.5t176.5 78.5q122 0 183 -76q63 -77 63 -196t-65 -197.5t-182 -78.5q-114 0 -175.5 78.5t-61.5 194.5zM121 251q0 -54 13.5 -98.5t50 -77t91.5 -32.5q85 0 124 61t39 151q0 87 -36 142q-37 58 -121 58q-87 0 -127 -68q-34 -58 -34 -136zM129 598
l138 98q16 12 21 12q2 0 20 -12l140 -98q16 -11 16 -20q0 -12 -13 -12q-10 0 -75 23q-80 29 -91 35q-30 -14 -88.5 -36.5t-72.5 -22.5q-15 0 -15 13q0 3 2.5 6t5.5 5.5t7 5t5 3.5z" />
    <glyph glyph-name="otilde" unicode="&#xf5;" horiz-adv-x="560" 
d="M38 248q0 118 61.5 196.5t176.5 78.5q122 0 183 -76q63 -77 63 -196t-65 -197.5t-182 -78.5q-114 0 -175.5 78.5t-61.5 194.5zM121 251q0 -54 13.5 -98.5t50 -77t91.5 -32.5q85 0 124 61t39 151q0 87 -36 142q-37 58 -121 58q-87 0 -127 -68q-34 -58 -34 -136zM315 654
q43 -16 59 -16q21 0 36.5 16.5t19.5 16.5q12 0 12 -14q0 -24 -15 -50q-27 -41 -80 -41q-25 0 -81.5 19.5t-79.5 19.5q-25 0 -40 -21q-11 -12 -14 -13q-13 0 -13 16q0 24 19 54q26 38 80 38q27 0 97 -25z" />
    <glyph glyph-name="odieresis" unicode="&#xf6;" horiz-adv-x="560" 
d="M38 248q0 118 61.5 196.5t176.5 78.5q122 0 183 -76q63 -77 63 -196t-65 -197.5t-182 -78.5q-114 0 -175.5 78.5t-61.5 194.5zM121 251q0 -54 13.5 -98.5t50 -77t91.5 -32.5q85 0 124 61t39 151q0 87 -36 142q-37 58 -121 58q-87 0 -127 -68q-34 -58 -34 -136zM192 681
q24 0 41 -17t17 -41t-17 -40.5t-41 -16.5q-23 0 -40 16.5t-17 40.5t16.5 41t40.5 17zM376 681q23 0 40 -17t17 -41t-17 -40.5t-40 -16.5q-24 0 -41 16.5t-17 40.5t17 41t41 17z" />
    <glyph glyph-name="divide" unicode="&#xf7;" horiz-adv-x="620" 
d="M51 233v76h504v-76h-504zM302 151q27 0 46 -19t19 -46t-19 -46t-46 -19t-46 19t-19 46t19 46t46 19zM302 521q27 0 46 -19t19 -46t-19 -46t-46 -19t-46 19t-19 46t19 46t46 19z" />
    <glyph glyph-name="oslash" unicode="&#xf8;" horiz-adv-x="560" 
d="M64 -50l51 84q-77 81 -77 195q0 77 26 142t83 108.5t135 43.5q76 0 116 -26l17 27q18 32 24 40q3 4 25 4q1 0 5 0.5t7.5 0t7.5 -1t6 -3t2 -6.5q0 -5 -9 -17l-44 -70q81 -74 81 -209q0 -124 -63.5 -205.5t-182.5 -81.5q-55 0 -118 29l-43 -69l-4 -5q-5 -5 -25 -5
q-1 0 -7 -0.5t-10 -0.5t-7.5 2t-3.5 7q0 4 8 17zM155 100l209 334q-36 21 -75 21q-86 0 -127 -61.5t-41 -152.5q0 -104 34 -141zM401 406l-209 -339q30 -24 88 -24q43 0 75 20t49 53.5t25 70.5t8 78q0 104 -36 141z" />
    <glyph glyph-name="ugrave" unicode="&#xf9;" horiz-adv-x="640" 
d="M106 147v214q0 84 -34 84q-9 0 -24 -3t-22 -3q-15 0 -24.5 9.5t-9.5 23.5q0 17 14 27t35 10q9 0 28.5 -5.5t29.5 -5.5q9 0 28 5.5t29 5.5q19 0 26 -10.5t7 -30.5q0 -44 -3 -93t-3 -81v-45q0 -97 11 -134q11 -36 42 -54t71 -18q47 0 82.5 21.5t48.5 64.5q16 50 16 164v68
q0 84 -36 84q-9 0 -24 -3t-22 -3q-15 0 -24.5 9.5t-9.5 23.5q0 17 13.5 27t33.5 10q12 0 32 -5.5t30 -5.5q9 0 28 5.5t29 5.5q30 0 30 -34q0 -25 -1.5 -74t-1.5 -76v-188q0 -50 7 -67t22 -17q9 0 24 3t22 3q15 0 24.5 -9.5t9.5 -23.5q0 -16 -13 -26.5t-30 -10.5
q-9 0 -28 5.5t-29 5.5t-29.5 -5.5t-28.5 -5.5q-26 0 -24 61h-2q-49 -75 -162 -75q-79 0 -133 41q-53 41 -55 131zM266 694l106 -91q19 -17 19 -26q0 -11 -14 -11q-1 0 -22 6l-138 51q-38 14 -38 44q0 19 13 33.5t32 14.5t42 -21z" />
    <glyph glyph-name="uacute" unicode="&#xfa;" horiz-adv-x="640" 
d="M106 147v214q0 84 -34 84q-9 0 -24 -3t-22 -3q-15 0 -24.5 9.5t-9.5 23.5q0 17 14 27t35 10q9 0 28.5 -5.5t29.5 -5.5q9 0 28 5.5t29 5.5q19 0 26 -10.5t7 -30.5q0 -44 -3 -93t-3 -81v-45q0 -97 11 -134q11 -36 42 -54t71 -18q47 0 82.5 21.5t48.5 64.5q16 50 16 164v68
q0 84 -36 84q-9 0 -24 -3t-22 -3q-15 0 -24.5 9.5t-9.5 23.5q0 17 13.5 27t33.5 10q12 0 32 -5.5t30 -5.5q9 0 28 5.5t29 5.5q30 0 30 -34q0 -25 -1.5 -74t-1.5 -76v-188q0 -50 7 -67t22 -17q9 0 24 3t22 3q15 0 24.5 -9.5t9.5 -23.5q0 -16 -13 -26.5t-30 -10.5
q-9 0 -28 5.5t-29 5.5t-29.5 -5.5t-28.5 -5.5q-26 0 -24 61h-2q-49 -75 -162 -75q-79 0 -133 41q-53 41 -55 131zM412 623l-139 -51q-21 -6 -22 -6q-13 0 -13 11q0 10 18 26l106 91q23 21 43 21q18 0 31.5 -14.5t13.5 -33.5q0 -29 -38 -44z" />
    <glyph glyph-name="ucircumflex" unicode="&#xfb;" horiz-adv-x="640" 
d="M106 147v214q0 84 -34 84q-9 0 -24 -3t-22 -3q-15 0 -24.5 9.5t-9.5 23.5q0 17 14 27t35 10q9 0 28.5 -5.5t29.5 -5.5q9 0 28 5.5t29 5.5q19 0 26 -10.5t7 -30.5q0 -44 -3 -93t-3 -81v-45q0 -97 11 -134q11 -36 42 -54t71 -18q47 0 82.5 21.5t48.5 64.5q16 50 16 164v68
q0 84 -36 84q-9 0 -24 -3t-22 -3q-15 0 -24.5 9.5t-9.5 23.5q0 17 13.5 27t33.5 10q12 0 32 -5.5t30 -5.5q9 0 28 5.5t29 5.5q30 0 30 -34q0 -25 -1.5 -74t-1.5 -76v-188q0 -50 7 -67t22 -17q9 0 24 3t22 3q15 0 24.5 -9.5t9.5 -23.5q0 -16 -13 -26.5t-30 -10.5
q-9 0 -28 5.5t-29 5.5t-29.5 -5.5t-28.5 -5.5q-26 0 -24 61h-2q-49 -75 -162 -75q-79 0 -133 41q-53 41 -55 131zM149 598l138 98q16 12 21 12q2 0 20 -12l140 -98q16 -11 16 -20q0 -12 -13 -12q-10 0 -75 23q-80 29 -91 35q-30 -14 -88.5 -36.5t-72.5 -22.5q-15 0 -15 13
q0 3 2.5 6t5.5 5.5t7 5t5 3.5z" />
    <glyph glyph-name="udieresis" unicode="&#xfc;" horiz-adv-x="640" 
d="M106 147v214q0 84 -34 84q-9 0 -24 -3t-22 -3q-15 0 -24.5 9.5t-9.5 23.5q0 17 14 27t35 10q9 0 28.5 -5.5t29.5 -5.5q9 0 28 5.5t29 5.5q19 0 26 -10.5t7 -30.5q0 -44 -3 -93t-3 -81v-45q0 -97 11 -134q11 -36 42 -54t71 -18q47 0 82.5 21.5t48.5 64.5q16 50 16 164v68
q0 84 -36 84q-9 0 -24 -3t-22 -3q-15 0 -24.5 9.5t-9.5 23.5q0 17 13.5 27t33.5 10q12 0 32 -5.5t30 -5.5q9 0 28 5.5t29 5.5q30 0 30 -34q0 -25 -1.5 -74t-1.5 -76v-188q0 -50 7 -67t22 -17q9 0 24 3t22 3q15 0 24.5 -9.5t9.5 -23.5q0 -16 -13 -26.5t-30 -10.5
q-9 0 -28 5.5t-29 5.5t-29.5 -5.5t-28.5 -5.5q-26 0 -24 61h-2q-49 -75 -162 -75q-79 0 -133 41q-53 41 -55 131zM217 681q24 0 41 -17t17 -41t-17 -40.5t-41 -16.5q-23 0 -40 16.5t-17 40.5t16.5 41t40.5 17zM401 681q23 0 40 -17t17 -41t-17 -40.5t-40 -16.5
q-24 0 -41 16.5t-17 40.5t17 41t41 17z" />
    <glyph glyph-name="yacute" unicode="&#xfd;" horiz-adv-x="640" 
d="M206 424l120 -359h2l121 331q9 25 9 35q0 17 -24 17q-6 0 -22 -4q-12 -5 -25 -5q-12 0 -21 9.5t-9 23.5q0 16 12.5 26.5t25.5 10.5q17 0 50.5 -5.5t55.5 -5.5q21 0 54 5.5t49 5.5q15 0 24.5 -9.5t9.5 -23.5t-10 -25.5t-21 -11.5q-10 0 -20 5q-12 4 -17 4q-12 0 -20 -12
t-23 -50l-127 -318q-19 -48 -33 -78.5t-39 -71t-51 -63.5t-65.5 -40t-86.5 -17q-54 0 -99.5 30t-45.5 81q0 29 18.5 50t47.5 21q24 0 40 -13.5t16 -36.5q0 -15 -8.5 -26.5t-21.5 -13.5q12 -25 57 -25q58 0 97 39q46 46 46 92q0 13 -4 28.5t-8.5 26.5t-12.5 29t-11 26
l-109 277q-15 39 -25 52.5t-21 13.5q-6 0 -22.5 -5t-29.5 -5q-11 0 -19.5 9.5t-8.5 23.5q0 16 12.5 26.5t26.5 10.5q17 0 51 -5.5t55 -5.5q20 0 53.5 5.5t49.5 5.5q17 0 30 -10.5t13 -26.5q0 -14 -8 -23.5t-18 -9.5q-11 0 -26 5q-18 4 -25 4q-17 0 -9 -24zM412 623l-139 -51
q-21 -6 -22 -6q-13 0 -13 11q0 10 18 26l106 91q23 21 43 21q18 0 31.5 -14.5t13.5 -33.5q0 -29 -38 -44z" />
    <glyph glyph-name="thorn" unicode="&#xfe;" horiz-adv-x="620" 
d="M206 665v-216h2q58 74 149 74q113 0 171 -73t58 -190q0 -116 -51 -190q-31 -46 -81 -70.5t-107 -24.5q-97 0 -139 62h-2v-79q0 -48 7 -65t22 -17q9 0 24 3t22 3q15 0 24.5 -9.5t9.5 -23.5q0 -17 -13.5 -27t-30.5 -10q-19 0 -54 5.5t-52 5.5q-19 0 -53 -5.5t-48 -5.5
q-17 0 -30.5 10t-13.5 27q0 14 9.5 23.5t24.5 9.5q7 0 22 -3t24 -3q17 0 23 17.5t6 66.5v585q0 37 -4.5 56.5t-9.5 23.5t-15 4q-9 0 -24 -3t-22 -3q-15 0 -24.5 9.5t-9.5 23.5q0 16 12.5 26.5t25.5 10.5q8 0 28.5 -5.5t36.5 -5.5q15 0 37.5 5.5t24.5 5.5q14 0 17.5 -5
t3.5 -23zM356 455q-44 0 -80.5 -22t-52.5 -61q-17 -41 -17 -148q0 -30 1 -46.5t7 -39.5t19 -41q37 -54 110 -54q85 0 122.5 59t37.5 150q0 40 -7 73.5t-22.5 64t-45.5 48t-72 17.5z" />
    <glyph glyph-name="ydieresis" unicode="&#xff;" horiz-adv-x="640" 
d="M206 424l120 -359h2l121 331q9 25 9 35q0 17 -24 17q-6 0 -22 -4q-12 -5 -25 -5q-12 0 -21 9.5t-9 23.5q0 16 12.5 26.5t25.5 10.5q17 0 50.5 -5.5t55.5 -5.5q21 0 54 5.5t49 5.5q15 0 24.5 -9.5t9.5 -23.5t-10 -25.5t-21 -11.5q-10 0 -20 5q-12 4 -17 4q-12 0 -20 -12
t-23 -50l-127 -318q-19 -48 -33 -78.5t-39 -71t-51 -63.5t-65.5 -40t-86.5 -17q-54 0 -99.5 30t-45.5 81q0 29 18.5 50t47.5 21q24 0 40 -13.5t16 -36.5q0 -15 -8.5 -26.5t-21.5 -13.5q12 -25 57 -25q58 0 97 39q46 46 46 92q0 13 -4 28.5t-8.5 26.5t-12.5 29t-11 26
l-109 277q-15 39 -25 52.5t-21 13.5q-6 0 -22.5 -5t-29.5 -5q-11 0 -19.5 9.5t-8.5 23.5q0 16 12.5 26.5t26.5 10.5q17 0 51 -5.5t55 -5.5q20 0 53.5 5.5t49.5 5.5q17 0 30 -10.5t13 -26.5q0 -14 -8 -23.5t-18 -9.5q-11 0 -26 5q-18 4 -25 4q-17 0 -9 -24zM227 681
q24 0 41 -17t17 -41t-17 -40.5t-41 -16.5q-23 0 -40 16.5t-17 40.5t16.5 41t40.5 17zM411 681q23 0 40 -17t17 -41t-17 -40.5t-40 -16.5q-24 0 -41 16.5t-17 40.5t17 41t41 17z" />
    <glyph glyph-name="dotlessi" unicode="&#x131;" horiz-adv-x="320" 
d="M132 137v224q0 51 -6 67.5t-23 16.5q-9 0 -24 -3t-22 -3q-15 0 -24.5 9.5t-9.5 23.5q0 17 10 27t25 10q14 0 34 -5.5t32 -5.5q13 0 30.5 5.5t26.5 5.5q28 0 28 -43v-372q0 -41 26 -41q4 0 18 3.5t22 2.5q15 0 24.5 -9.5t9.5 -23.5q0 -16 -13 -26.5t-30 -10.5
q-16 0 -48 5.5t-55 5.5q-22 0 -55.5 -5.5t-50.5 -5.5q-13 0 -23.5 11.5t-10.5 25.5t9.5 23.5t24.5 9.5q7 0 22 -3t24 -3q17 0 23 18.5t6 65.5z" />
    <glyph glyph-name="Lslash" unicode="&#x141;" horiz-adv-x="600" 
d="M381 449l-143 -110v-208q0 -42 10.5 -59t34.5 -17h103q71 0 97 13q16 8 24 23t9 26.5t1 33.5q0 14 -2 42t-2 43q0 44 36 44q43 0 43 -40q0 -17 -4 -50.5t-4 -50.5q0 -16 4 -47t4 -46q0 -57 -56 -57q-58 0 -170.5 5t-146.5 6q-28 1 -78 -5t-79 -6q-45 0 -45 34
q0 15 9.5 25.5t23.5 10.5q8 0 24 -3.5t24 -3.5q34 0 44 33t10 130v68l-59 -45q-20 -16 -34 -16q-16 0 -25.5 10t-9.5 23q0 19 28 41l100 78v86q0 103 -5 124q-9 37 -49 37q-8 0 -24 -2.5t-24 -2.5q-14 0 -23 10t-9 24q0 36 39 36q24 0 66 -5.5t68 -5.5t68 5.5t66 5.5
q21 0 34 -9.5t13 -26.5q0 -14 -9 -24t-23 -10q-8 0 -24 2.5t-24 2.5q-39 0 -49 -37q-5 -21 -5 -124v-31l104 79q31 22 37 22q17 0 27.5 -10t10.5 -26q0 -18 -36 -45z" />
    <glyph glyph-name="lslash" unicode="&#x142;" horiz-adv-x="300" 
d="M112 137v189l-45 -34q-23 -17 -36 -17q-12 0 -21 11t-9 23q0 15 28 38l83 67v131q0 38 -5 58t-10 23t-14 3q-8 0 -25.5 -3t-29.5 -3q-15 0 -24.5 9.5t-9.5 23.5q0 17 13.5 27t32.5 10q17 0 37.5 -5.5t29.5 -5.5q14 0 29.5 5.5t24.5 5.5q18 0 23 -11.5t5 -40.5v-182l54 42
q19 15 30 15q14 0 24 -9.5t10 -22.5q0 -5 -1.5 -9t-3 -7t-5.5 -6.5t-5.5 -5t-7 -5.5t-6.5 -5l-89 -73v-236q0 -51 7 -67.5t22 -16.5q9 0 24 3t22 3q15 0 24.5 -9.5t9.5 -23.5q0 -16 -13 -26.5t-30 -10.5q-15 0 -46 5.5t-57 5.5q-24 0 -57 -5.5t-49 -5.5q-17 0 -30 10.5
t-13 26.5q0 14 9.5 23.5t24.5 9.5q7 0 22 -3t24 -3q17 0 23 19.5t6 64.5z" />
    <glyph glyph-name="OE" unicode="&#x152;" horiz-adv-x="1040" 
d="M612 536v-96q0 -26 7 -33.5t31 -7.5h66q49 0 49 45q0 11 -3 32.5t-3 32.5q0 40 37 40q35 0 35 -40q0 -18 -4.5 -61.5t-4.5 -77.5q0 -42 4.5 -89t4.5 -66q0 -17 -10.5 -27.5t-27.5 -10.5q-34 0 -34 43q0 11 2.5 33t2.5 32q0 46 -56 46h-55q-26 0 -33.5 -10t-7.5 -44v-162
q0 -33 13 -44.5t53 -11.5h165q54 0 74 22t20 65q0 14 -1.5 43t-1.5 43q0 29 8.5 40.5t26.5 11.5q39 0 39 -43q0 -17 -2 -50.5t-2 -50.5q0 -16 2 -50t2 -50q0 -29 -16 -40t-59 -11q-41 0 -111 5.5t-97 5.5q-36 0 -86.5 -5.5t-74.5 -5.5q-41 0 -41 32q0 18 9 56l-2 2
q-69 -100 -198 -100q-144 0 -221 101q-74 98 -74 251t64 250q37 57 98 88t130 31q131 0 207 -94l2 3q0 1 -5.5 19.5t-5.5 28.5q0 29 38 29q24 0 73.5 -5.5t81.5 -5.5q35 0 111 5.5t116 5.5q49 0 49 -46q0 -18 -3 -52t-3 -52q0 -17 3 -49t3 -48q0 -45 -37 -45
q-17 0 -27.5 12.5t-10.5 32.5q0 21 1 48.5t1 37.5q0 55 -23 71.5t-99 16.5h-96q-58 0 -75.5 -11.5t-17.5 -65.5zM336 53q56 0 96.5 27t61 73t29.5 93.5t9 99.5q0 53 -9 99.5t-30 90.5t-61 70t-96 26q-58 0 -100 -25.5t-64.5 -68.5t-33 -91.5t-10.5 -102.5q0 -55 10 -103
t32.5 -92t65 -70t100.5 -26z" />
    <glyph glyph-name="oe" unicode="&#x153;" horiz-adv-x="940" 
d="M857 240h-346v-29q0 -67 44.5 -117.5t110.5 -50.5q50 0 89 26t51 73q3 12 4.5 16.5t6 12t11.5 10.5t17 3q18 0 28.5 -11.5t10.5 -30.5q0 -27 -18.5 -57.5t-41.5 -51.5q-65 -58 -164 -58q-127 0 -195 111q-44 -111 -189 -111q-115 0 -176.5 75t-61.5 192q0 119 64.5 200
t178.5 81q139 0 192 -111q26 54 79.5 82.5t117.5 28.5q108 0 166 -68t58 -178q0 -24 -6.5 -30.5t-30.5 -6.5zM520 310h290v11q0 47 -33 90q-34 44 -105 44q-64 0 -105.5 -40.5t-46.5 -104.5zM282 455q-88 0 -128 -70q-33 -60 -33 -137q0 -85 38 -144.5t119 -60.5
q84 1 120 61t36 149q0 84 -37 143t-115 59z" />
    <glyph glyph-name="Scaron" unicode="&#x160;" horiz-adv-x="600" 
d="M317 388q116 -19 159 -46q78 -48 78 -150q0 -101 -72.5 -159t-175.5 -58q-126 0 -193 74l-2 -2l3 -35q0 -37 -37 -37q-21 0 -30.5 15.5t-9.5 54.5q0 25 4 60t4 49q0 18 -4 51t-4 48q0 20 10.5 33t29.5 13q40 0 40 -44q0 -8 -1 -22.5t-1 -22.5q0 -77 52 -121t130 -44
q72 0 115 28q26 17 41 46.5t15 61.5q0 34 -11 57t-35 36t-45.5 19t-57.5 12q-126 21 -173 45q-43 21 -67.5 61.5t-24.5 84.5q0 94 72 153q63 51 167 51q106 0 163 -64v14q0 41 31 41q36 0 36 -45q0 -17 -4 -50.5t-4 -50.5t4 -47t4 -41q0 -50 -39 -50q-18 0 -29 11.5
t-11 29.5q0 8 1.5 24.5t1.5 25.5q0 66 -45 99t-114 33q-61 0 -104.5 -31.5t-43.5 -90.5q0 -54 39 -79t138 -41zM458 853l-140 -98q-18 -12 -20 -12q-5 0 -21 12l-138 98q-1 1 -5 3.5t-7 5t-5.5 5.5t-2.5 6q0 12 15 12q14 0 73 -22.5t88 -35.5q11 6 91 35q65 23 75 23
q13 0 13 -12q0 -9 -16 -20z" />
    <glyph glyph-name="scaron" unicode="&#x161;" horiz-adv-x="520" 
d="M283 213q-33 4 -50.5 6.5t-48 9t-47.5 16.5t-36 25t-27.5 38t-8.5 53q0 76 58 119t137 43q77 0 118 -35q-5 42 32 42q34 0 34 -33q0 -13 -3 -37t-3 -37t3 -37.5t3 -36.5q0 -16 -9.5 -26.5t-26.5 -10.5q-32 0 -32 48q0 28 -4 38.5t-18 20.5q-49 36 -94 36q-44 0 -78 -23
t-34 -65q0 -36 26.5 -52.5t92.5 -24.5q111 -15 159 -46t48 -105q0 -79 -61.5 -121.5t-145.5 -42.5q-89 0 -146 47q4 -26 -6 -41t-28 -15q-19 0 -28.5 12t-9.5 30q0 15 4 42.5t4 41.5q0 13 -4 39.5t-4 40.5q0 36 35 36q30 0 31 -33q3 -36 4.5 -47t6.5 -22t16 -21
q23 -20 61 -31t72 -11q53 0 82 23q34 27 34 65q0 42 -30 59t-78 23zM423 676l-140 -98q-18 -12 -20 -12q-5 0 -21 12l-138 98q-1 1 -5 3.5t-7 5t-5.5 5.5t-2.5 6q0 12 15 12q14 0 73 -22.5t88 -35.5q11 6 91 35q65 23 75 23q13 0 13 -12q0 -9 -16 -20z" />
    <glyph glyph-name="Ydieresis" unicode="&#x178;" horiz-adv-x="760" 
d="M237 586l152 -258l154 258q12 19 12 27q0 9 -24 9q-13 0 -38 -3t-38 -3q-14 0 -23 10t-9 24q0 15 12.5 25.5t32.5 10.5q24 0 66 -5.5t68 -5.5q27 0 71.5 5.5t62.5 5.5q43 0 43 -36q0 -14 -9 -24t-23 -10q-9 0 -29 3.5t-27 3.5q-13 0 -22.5 -5t-14 -10t-13.5 -19
l-213 -335v-44q0 -89 5 -119q7 -37 49 -37q8 0 24 2.5t24 2.5q18 0 30.5 -9.5t12.5 -26.5q0 -14 -9 -24t-23 -10q-21 0 -68.5 5.5t-87.5 5.5q-33 0 -74.5 -5.5t-64.5 -5.5q-49 0 -49 34q0 17 12.5 26.5t30.5 9.5q9 0 25.5 -2.5t25.5 -2.5q17 0 29.5 9t15.5 24q6 28 6 113v48
l-207 328q-27 44 -56 44q-8 0 -26.5 -2t-30.5 -2q-14 0 -23 10t-9 24q0 15 11.5 25.5t30.5 10.5q21 0 64.5 -5.5t69.5 -5.5t69.5 5.5t64.5 5.5q43 0 43 -36q0 -14 -9 -24t-23 -10q-16 0 -38 3t-28 3q-21 0 -21 -10q0 -3 13 -26zM292 858q24 0 41 -17t17 -41t-17 -40.5
t-41 -16.5q-23 0 -40 16.5t-17 40.5t16.5 41t40.5 17zM476 858q23 0 40 -17t17 -41t-17 -40.5t-40 -16.5q-24 0 -41 16.5t-17 40.5t17 41t41 17z" />
    <glyph glyph-name="Zcaron" unicode="&#x17d;" horiz-adv-x="620" 
d="M59 121l423 500h-237q-69 0 -95.5 -19.5t-26.5 -86.5q0 -12 1 -35t1 -34q0 -41 -40 -41q-37 0 -37 46q0 17 4 49t4 49q0 15 -4 44t-4 43q0 50 58 50h404q47 0 62.5 -11t15.5 -40q0 -15 -4.5 -24t-24.5 -33l-443 -517h242q81 0 111 9q45 13 45 77q0 14 -3.5 43.5
t-3.5 44.5q0 41 40 41q37 0 37 -46q0 -16 -4 -49t-4 -49q0 -15 4 -44t4 -43q0 -50 -58 -50h-417q-46 0 -64 14t-18 43q0 30 32 69zM468 853l-140 -98q-18 -12 -20 -12q-5 0 -21 12l-138 98q-1 1 -5 3.5t-7 5t-5.5 5.5t-2.5 6q0 12 15 12q14 0 73 -22.5t88 -35.5q11 6 91 35
q65 23 75 23q13 0 13 -12q0 -9 -16 -20z" />
    <glyph glyph-name="zcaron" unicode="&#x17e;" horiz-adv-x="540" 
d="M68 112l327 327h-236q-38 0 -38 -27q0 -10 3.5 -32t3.5 -33q0 -17 -8.5 -29t-24.5 -12q-37 0 -37 44q0 13 3 37t3 36q0 10 -3 29.5t-3 28.5q0 17 9.5 22.5t41.5 5.5h329q35 0 48.5 -10.5t13.5 -35.5q0 -15 -8 -27.5t-38 -42.5l-327 -328h256q27 0 39 9t12 36q0 12 -2 38
t-2 39q0 18 10.5 30t27.5 12q31 0 31 -42q0 -14 -2.5 -43.5t-2.5 -44.5q0 -11 2.5 -33t2.5 -33q0 -38 -50 -38h-344q-71 0 -71 55q0 17 7 29t27 33zM428 676l-140 -98q-18 -12 -20 -12q-5 0 -21 12l-138 98q-1 1 -5 3.5t-7 5t-5.5 5.5t-2.5 6q0 12 15 12q14 0 73 -22.5
t88 -35.5q11 6 91 35q65 23 75 23q13 0 13 -12q0 -9 -16 -20z" />
    <glyph glyph-name="florin" unicode="&#x192;" 
d="M458 572h55q50 0 50 -34q0 -18 -9.5 -26.5t-18.5 -9.5t-29 -1h-59q-22 0 -26.5 -4t-7.5 -23q-1 -5 -1 -8l-56 -311q-24 -136 -60 -196q-27 -47 -70.5 -74t-97.5 -27q-50 0 -93 24t-43 70q0 22 13.5 37.5t34.5 15.5t36.5 -13t15.5 -35q0 -9 -4 -21q29 -12 50 -12
q30 0 54.5 20t39 45.5t27.5 66.5t18 64.5t11 57.5l49 299q2 9 0.5 16.5t-10.5 7.5h-12q-23 0 -34.5 7.5t-11.5 29.5q0 34 45 34q31 0 37 7q4 7 11 43q13 66 48 98t101 32q60 0 101 -23q56 -34 56 -83q0 -25 -14 -40t-39 -15q-19 0 -31 12.5t-12 31.5q0 14 14 32
q-22 26 -61 26q-52 0 -73 -43q-21 -34 -21 -63q0 -3 0.5 -5.5t1.5 -4t3 -2.5t3.5 -1.5t4.5 -1t4 -0.5h5h5z" />
    <glyph glyph-name="circumflex" unicode="&#x2c6;" horiz-adv-x="500" 
d="M89 598l138 98q16 12 21 12q2 0 20 -12l140 -98q16 -11 16 -20q0 -12 -13 -12q-10 0 -75 23q-80 29 -91 35q-30 -14 -88.5 -36.5t-72.5 -22.5q-15 0 -15 13q0 3 2.5 6t5.5 5.5t7 5t5 3.5z" />
    <glyph glyph-name="caron" unicode="&#x2c7;" horiz-adv-x="500" 
d="M408 676l-140 -98q-18 -12 -20 -12q-5 0 -21 12l-138 98q-1 1 -5 3.5t-7 5t-5.5 5.5t-2.5 6q0 12 15 12q14 0 73 -22.5t88 -35.5q11 6 91 35q65 23 75 23q13 0 13 -12q0 -9 -16 -20z" />
    <glyph glyph-name="uni02C9" unicode="&#x2c9;" horiz-adv-x="460" 
d="M122 643h220q52 0 52 -38q0 -39 -52 -39h-220q-53 0 -53 38q0 39 53 39z" />
    <glyph glyph-name="breve" unicode="&#x2d8;" horiz-adv-x="520" 
d="M261 653q44 0 98 25q25 11 60 46q11 11 21 11q14 0 14 -18q0 -20 -14 -46t-30 -43q-59 -62 -149 -62q-84 0 -144 58q-18 18 -33 45t-15 49q0 17 14 17q10 0 21 -11q26 -27 51 -42q52 -29 106 -29z" />
    <glyph glyph-name="dotaccent" unicode="&#x2d9;" horiz-adv-x="260" 
d="M126 681q24 0 41 -17t17 -41t-17 -40.5t-41 -16.5t-40.5 16.5t-16.5 40.5t16.5 41t40.5 17z" />
    <glyph glyph-name="ring" unicode="&#x2da;" horiz-adv-x="300" 
d="M149 727q33 0 56.5 -23.5t23.5 -56.5q0 -34 -23.5 -57.5t-56.5 -23.5t-56.5 23.5t-23.5 57.5q0 33 23.5 56.5t56.5 23.5zM149 688q-17 0 -29.5 -12t-12.5 -29q0 -18 12.5 -30t29.5 -12t29.5 12t12.5 30q0 17 -12.5 29t-29.5 12z" />
    <glyph glyph-name="ogonek" unicode="&#x2db;" horiz-adv-x="340" 
d="M134 -104q0 -25 18 -38t43 -13q12 0 30 4.5t26 4.5q7 0 13 -6.5t6 -13.5q0 -19 -26.5 -27t-50.5 -8q-50 0 -81 20q-43 29 -43 75q0 61 76 101h60l-5 -4q-66 -54 -66 -95z" />
    <glyph glyph-name="tilde" unicode="&#x2dc;" horiz-adv-x="460" 
d="M265 654q43 -16 59 -16q21 0 36.5 16.5t19.5 16.5q12 0 12 -14q0 -24 -15 -50q-27 -41 -80 -41q-25 0 -81.5 19.5t-79.5 19.5q-25 0 -40 -21q-11 -12 -14 -13q-13 0 -13 16q0 24 19 54q26 38 80 38q27 0 97 -25z" />
    <glyph glyph-name="hungarumlaut" unicode="&#x2dd;" horiz-adv-x="420" 
d="M76 610l40 126q15 50 46 50q16 0 29 -13t13 -29q0 -20 -25 -52l-75 -104q-1 -1 -4 -6t-5 -8t-6 -5.5t-7 -2.5q-13 0 -13 15q0 6 7 29zM230 610l41 126q5 15 8.5 24t13.5 17.5t23 8.5q16 0 29.5 -13t13.5 -29q0 -20 -25 -52l-75 -104q-1 -1 -4 -6t-5 -8t-6 -5.5t-8 -2.5
q-13 0 -13 15q0 6 7 29z" />
    <glyph glyph-name="uni03A9" unicode="&#x3a9;" horiz-adv-x="862" 
d="M237 63v3q-70 48 -116 126.5t-46 179.5q0 145 103 241t256 96q154 0 253 -100t99 -234q0 -104 -47.5 -184t-116.5 -125v-3h181v-63h-286v47q80 42 133 121.5t53 194.5q0 69 -30 132.5t-93 107.5t-146 44q-122 0 -198.5 -83.5t-76.5 -203.5q0 -109 54 -191.5t132 -121.5
v-47h-286v63h178z" />
    <glyph glyph-name="uni03BC" unicode="&#x3bc;" horiz-adv-x="640" 
d="M531 325v-188q0 -50 7 -67t22 -17q9 0 24 3t22 3q15 0 24.5 -9.5t9.5 -23.5q0 -16 -13 -26.5t-30 -10.5q-9 0 -28 5.5t-29 5.5t-29.5 -5.5t-28.5 -5.5q-26 0 -24 61h-2q-49 -75 -162 -75q-60 0 -107 25q0 -28 0.5 -78.5t0.5 -70.5q0 -53 -43 -53t-43 56q0 44 2 143t2 150
v214q0 84 -34 84q-9 0 -24 -3t-22 -3q-15 0 -24.5 9.5t-9.5 23.5q0 17 14 27t35 10q9 0 28.5 -5.5t29.5 -5.5q9 0 28 5.5t29 5.5q19 0 26 -10.5t7 -30.5q0 -44 -3 -93t-3 -81v-45q0 -97 11 -134q11 -36 42 -54t71 -18q47 0 82.5 21.5t48.5 64.5q16 50 16 164v68q0 84 -36 84
q-9 0 -24 -3t-22 -3q-15 0 -24.5 9.5t-9.5 23.5q0 17 13.5 27t33.5 10q12 0 32 -5.5t30 -5.5q9 0 28 5.5t29 5.5q30 0 30 -34q0 -25 -1.5 -74t-1.5 -76z" />
    <glyph glyph-name="pi" unicode="&#x3c0;" horiz-adv-x="666" 
d="M637 454h-97v-296q0 -105 17 -158h-81q-19 28 -19 148v306h-218q-6 -109 -31 -251.5t-55 -202.5h-82q31 74 55.5 210.5t29.5 243.5q-92 0 -135 -15l-12 52q48 28 166 28h470z" />
    <glyph glyph-name="endash" unicode="&#x2013;" horiz-adv-x="500" 
d="M13 307h474q53 0 53 -37t-53 -37h-474q-53 0 -53 37t53 37z" />
    <glyph glyph-name="emdash" unicode="&#x2014;" horiz-adv-x="1000" 
d="M13 307h974q53 0 53 -37t-53 -37h-974q-53 0 -53 37t53 37z" />
    <glyph glyph-name="quoteleft" unicode="&#x2018;" horiz-adv-x="320" 
d="M180 529q28 -1 44.5 -17.5t16.5 -44.5q0 -31 -21 -50t-52 -19q-38 0 -59 31.5t-21 71.5q0 72 48 144q1 1 4.5 6.5t5 8t5.5 8t6.5 8t6.5 7t7.5 7t7.5 5.5t8 4t8 1q7 0 12.5 -6t5.5 -14q0 -6 -11 -23q-16 -21 -34.5 -56t-18.5 -54q0 -9 4.5 -13t9 -4.5t13.5 -0.5h4z" />
    <glyph glyph-name="quoteright" unicode="&#x2019;" horiz-adv-x="320" 
d="M149 570q-28 1 -44.5 17.5t-16.5 44.5q0 31 21 49.5t52 18.5q38 0 59 -31t21 -71q0 -72 -48 -144q0 -1 -4.5 -8t-7 -10t-7.5 -10t-9 -11t-9 -8.5t-10 -6.5t-10 -2q-8 0 -14 6.5t-6 14.5q0 7 11 23q16 21 34.5 56t18.5 54q0 5 -1.5 8.5t-3 5t-5.5 2.5l-6 1.5t-7.5 0.5
h-7.5z" />
    <glyph glyph-name="quotesinglbase" unicode="&#x201a;" horiz-adv-x="340" 
d="M149 -22q-28 1 -44.5 17.5t-16.5 44.5q0 31 21 49.5t52 18.5q38 0 59 -31t21 -71q0 -72 -48 -144q-1 -1 -3.5 -5t-4 -6.5t-4.5 -7t-5.5 -7.5t-6 -7t-6.5 -7t-6.5 -6t-6.5 -5t-7 -3t-7 -1q-8 0 -14 6t-6 14q0 7 11 23q16 21 34.5 56t18.5 54q0 9 -4.5 13t-9 4.5t-13.5 0.5
h-4z" />
    <glyph glyph-name="quotedblleft" unicode="&#x201c;" horiz-adv-x="520" 
d="M369 528q27 -1 44 -17.5t17 -44.5q0 -31 -21 -49.5t-52 -18.5q-38 0 -59 31t-21 71q0 71 47 144q0 1 5.5 8.5t7.5 10.5t7.5 10.5t9 10.5t9 7.5t10.5 6.5t10 2q7 0 13 -6.5t6 -14.5q0 -9 -12 -23q-16 -21 -34.5 -56t-18.5 -54q0 -6 1.5 -9.5t6 -5t6.5 -2.5t9.5 -1h8.5z
M180 529q28 -2 44.5 -18.5t16.5 -44.5q0 -31 -20.5 -49.5t-51.5 -18.5q-39 0 -60 31t-21 72q0 72 48 144q1 2 6.5 10t8.5 12t9.5 11.5t11 11.5t11 7t12.5 3q7 0 12.5 -6.5t5.5 -13.5q0 -9 -11 -23q-16 -21 -34.5 -56t-18.5 -54q0 -9 4.5 -13t9 -4.5t13.5 -0.5h4z" />
    <glyph glyph-name="quotedblright" unicode="&#x201d;" horiz-adv-x="520" 
d="M149 569q-28 2 -44.5 18.5t-16.5 44.5q0 31 21 49.5t52 18.5q38 0 59 -31.5t21 -71.5q0 -72 -48 -144q-36 -55 -58 -55q-7 0 -13 6.5t-6 13.5q0 11 12 23q16 21 34.5 56t18.5 54q0 3 -0.5 6t-2 4.5t-2.5 3t-3.5 2.5t-4 1.5t-5 0.5h-4.5h-5h-5zM337 569q-28 2 -44.5 18.5
t-16.5 44.5q0 31 21 49.5t52 18.5q38 0 59 -31.5t21 -71.5q0 -72 -48 -144q-36 -55 -58 -55q-7 0 -13 6.5t-6 13.5q0 11 12 23q16 21 34.5 56t18.5 54q0 3 -0.5 6t-2 4.5t-2.5 3t-3.5 2.5t-4 1.5t-5 0.5h-4.5h-5h-5z" />
    <glyph glyph-name="quotedblbase" unicode="&#x201e;" horiz-adv-x="520" 
d="M149 -22q-28 1 -44.5 17.5t-16.5 44.5q0 31 21 49.5t52 18.5q38 0 59 -31t21 -71q0 -72 -48 -144q-1 -1 -3.5 -5t-4 -6.5t-4.5 -7t-5.5 -7.5t-6 -7t-6.5 -7t-6.5 -6t-6.5 -5t-7 -3t-7 -1q-8 0 -14 6t-6 14q0 7 11 23q16 21 34.5 56t18.5 54q0 9 -4.5 13t-9 4.5t-13.5 0.5
h-4zM337 -21q-27 1 -44 17.5t-17 44.5q0 31 21 49.5t52 18.5q38 0 59 -31t21 -72q0 -72 -48 -144q-36 -55 -58 -55q-7 0 -13 6.5t-6 13.5q0 10 12 24q16 20 34.5 55t18.5 54q0 4 -1 7t-3 5l-3.5 3.5t-5.5 2t-6 1t-6.5 0.5h-6.5z" />
    <glyph glyph-name="dagger" unicode="&#x2020;" 
d="M295 414l15 46l-20 -7q-10 -2 -35.5 -9t-45 -11t-36.5 -4q-63 0 -63 46q0 24 16 36t40 12q37 0 103 -16l42 -9q-2 8 -16 60t-14 80q0 26 12.5 44t36.5 18t36 -18t12 -44q0 -21 -5 -45t-13 -52t-11 -43l36 7q72 18 109 18q24 0 40 -12.5t16 -35.5q0 -45 -64 -45
q-27 0 -110 22l-26 8l15 -46q17 -49 17 -75q0 -10 -2 -32l-24 -470q-1 -11 -2 -16t-7 -10t-17 -5t-17 5t-7 10t-2 16l-24 470q-2 22 -2 32q0 26 17 75z" />
    <glyph glyph-name="daggerdbl" unicode="&#x2021;" 
d="M284 218q0 33 33 87q-104 -31 -146 -31q-24 0 -42 13.5t-18 36.5q0 20 17 32.5t37 12.5q18 0 40 -4t36 -8t40 -12t34 -10l2 2q-26 32 -26 64q0 36 26 81l-39 -11l-40 -11q-40 -9 -60 -9q-28 0 -47.5 11.5t-19.5 37.5q0 44 61 44q38 0 99 -17l46 -14l-13 38q-19 55 -19 84
q0 26 10.5 45.5t34.5 19.5t34.5 -19.5t10.5 -45.5q0 -31 -19 -84l-13 -38l46 14q61 17 99 17q61 0 61 -44q0 -49 -68 -49q-18 0 -53 8l-85 23q26 -43 26 -75q0 -37 -26 -70l2 -2l35 10.5t39.5 11.5t36 8t39.5 4q21 0 37.5 -13.5t16.5 -34.5q0 -22 -19 -34.5t-41 -12.5
q-39 0 -146 31q33 -54 33 -87q0 -4 -0.5 -11t-0.5 -10l-19 -360q-1 -11 -2 -16t-7 -10t-17 -5t-17 5t-7 10t-2 16l-19 360q0 3 -0.5 10t-0.5 11z" />
    <glyph glyph-name="bullet" unicode="&#x2022;" horiz-adv-x="600" 
d="M304 513q71 0 121.5 -50.5t50.5 -123.5q0 -71 -50.5 -121.5t-121.5 -50.5q-73 0 -123.5 50.5t-50.5 121.5q0 73 50.5 123.5t123.5 50.5z" />
    <glyph glyph-name="ellipsis" unicode="&#x2026;" horiz-adv-x="1000" 
d="M167 117q26 0 45 -19t19 -45q0 -27 -19 -46t-45 -19q-27 0 -46 19t-19 46q0 26 19 45t46 19zM499 117q27 0 46 -19t19 -45q0 -27 -19 -46t-46 -19q-26 0 -45 19t-19 46q0 26 19 45t45 19zM833 117q26 0 45 -19t19 -45q0 -27 -19 -46t-45 -19q-27 0 -46 19t-19 46
q0 26 19 45t46 19z" />
    <glyph glyph-name="perthousand" unicode="&#x2030;" horiz-adv-x="1260" 
d="M664 370q-114 0 -114 -180q0 -64 25.5 -112.5t83.5 -48.5q44 0 72 29t37 66t9 82q0 44 -9 78.5t-35.5 60t-68.5 25.5zM670 424q83 0 125.5 -63t42.5 -152q0 -98 -35 -155q-23 -38 -61 -58.5t-82 -20.5q-87 0 -129.5 63.5t-42.5 157.5q0 99 45 163.5t137 64.5zM669 687
l-418 -692q-11 -18 -15 -19q-3 -1 -18 -1q-1 0 -5.5 -0.5t-8 -0.5t-7.5 0.5t-6 2.5t-2 6q0 5 8 18l416 686q10 17 13.5 19.5t21.5 2.5h9h8t5.5 -0.5t4 -2t1 -4t-1.5 -6t-5 -9.5zM207 700q83 0 126 -63t43 -153q0 -95 -35 -155q-23 -37 -61 -57.5t-82 -20.5q-87 0 -129.5 63
t-42.5 157q0 99 44.5 164t136.5 65zM201 646q-113 0 -113 -180q0 -65 25.5 -113t83.5 -48q44 0 72 29t37 66t9 82q0 70 -26 117t-88 47zM1072 424q83 0 125.5 -63t42.5 -152q0 -98 -35 -155q-22 -38 -60 -58.5t-82 -20.5q-87 0 -130 63.5t-43 157.5q0 99 45 163.5t137 64.5z
M1066 370q-114 0 -114 -180q0 -64 25.5 -112.5t83.5 -48.5q44 0 72 29t37 66t9 82q0 44 -9 78.5t-35.5 60t-68.5 25.5z" />
    <glyph glyph-name="guilsinglleft" unicode="&#x2039;" horiz-adv-x="220" 
d="M97 271l51 -149q0 -2 3.5 -11t3.5 -14q0 -14 -15 -14q-10 0 -22 20l-92 150q-9 13 -9 18q0 2 2 6t4.5 8t3.5 5l90 143q12 21 21 21q17 0 17 -15q0 -2 -10 -27z" />
    <glyph glyph-name="guilsinglright" unicode="&#x203a;" horiz-adv-x="220" 
d="M126 271l-49 141q-1 2 -5 11.5t-4 15.5q0 15 17 15q9 0 21 -21l90 -143q1 -1 3.5 -5t4.5 -8t2 -6q0 -5 -9 -18l-92 -150q-1 -1 -2.5 -4t-2.5 -4.5t-2.5 -3.5t-3 -3t-3.5 -2.5t-4 -2t-5 -0.5q-14 0 -14 14q0 6 7 25z" />
    <glyph glyph-name="fraction" unicode="&#x2044;" horiz-adv-x="60" 
d="M267 666l-418 -653q-2 -2 -4 -6q-6 -9 -9 -10.5t-17 -1.5h-3t-5.5 -0.5t-8 -0.5t-7.5 0.5t-6 2.5t-2 6q0 3 8 16l416 647q10 16 13.5 18t21.5 2q25 0 27 -3q2 -4 -6 -17z" />
    <glyph glyph-name="Euro" unicode="&#x20ac;" 
d="M439 272q0 -31 -36 -31h-206q23 -199 182 -199q66 0 109 38t49 115q5 47 38 47q41 0 41 -47q0 -90 -64.5 -155t-183.5 -65q-118 0 -183 76.5t-77 189.5h-50q-32 0 -32 29q0 31 30 31h48q-1 10 -1 29q0 33 1 49h-46q-32 0 -32 29q0 31 30 31h55q19 118 82 189.5t179 71.5
q107 0 164 -79q0 8 -2 22t-2 20q0 35 32 35q34 0 34 -43q0 -18 -4 -53.5t-4 -53.5t3 -48t3 -38q0 -45 -36 -45q-37 0 -37 49q0 75 -40 120.5t-111 45.5q-148 0 -174 -193h206q35 0 35 -29q0 -31 -36 -31h-210q-1 -14 -1 -40q0 -25 1 -38h211q35 0 35 -29z" />
    <glyph glyph-name="afii61289" unicode="&#x2113;" horiz-adv-x="565" 
d="M496 152l41 -35q-79 -137 -221 -137q-88 0 -135.5 51.5t-54.5 128.5v11q-12 -8 -35.5 -26t-30.5 -23l-26 46q9 7 42 31.5t49 38.5v272q0 131 51 189.5t125 58.5q72 0 109.5 -48.5t37.5 -119.5q0 -91 -62.5 -181t-182.5 -194v-23q1 -73 39 -111t91 -38q52 0 95 32.5
t68 76.5zM203 524v-234q88 85 135.5 156.5t47.5 140.5q0 114 -85 114q-39 0 -68.5 -43t-29.5 -134z" />
    <glyph glyph-name="trademark" unicode="&#x2122;" horiz-adv-x="920" 
d="M930 686v-18h-21q-27 0 -27 -20v-299q0 -30 8 -37.5t40 -9.5v-20h-155v20h11q26 1 33 10t7 36v298h-2l-150 -364h-8l-151 364h-2v-310v-5.5v-4.5t0.5 -3.5t1.5 -4t2.5 -3.5t4.5 -4q9 -7 34 -9h7v-20h-123v20q36 1 43 9q6 7 5 24v296v9.5v7.5v6t-1 5t-2 3t-3 2.5t-5 1.5
t-6.5 1.5t-8.5 0.5h-14v18h109l129 -308l132 308h112zM294 282h-182v20q40 0 52 6q11 6 11 38v316h-41q-45 0 -61 -14.5t-16 -57.5h-23v30v66h338v-66v-30h-23q0 43 -16 57.5t-61 14.5h-41v-316q0 -32 11 -38q12 -6 52 -6v-20z" />
    <glyph glyph-name="Omega" unicode="&#x2126;" horiz-adv-x="862" 
d="M237 63v3q-70 48 -116 126.5t-46 179.5q0 145 103 241t256 96q154 0 253 -100t99 -234q0 -104 -47.5 -184t-116.5 -125v-3h181v-63h-286v47q80 42 133 121.5t53 194.5q0 69 -30 132.5t-93 107.5t-146 44q-122 0 -198.5 -83.5t-76.5 -203.5q0 -109 54 -191.5t132 -121.5
v-47h-286v63h178z" />
    <glyph glyph-name="estimated" unicode="&#x212e;" horiz-adv-x="874" 
d="M839 327h-652q-5 0 -5 -4v-197q0 -12 8 -23q104 -106 247 -106q156 0 260 119h58q-55 -65 -139 -102.5t-180 -37.5q-166 0 -284 106t-118 255q0 151 117.5 256.5t284.5 105.5t285 -105.5t118 -256.5v-10zM691 353v198q0 15 -9 24q-106 103 -245 103q-140 0 -246 -106
q-9 -10 -9 -25v-194q0 -6 5 -6h500q4 0 4 6z" />
    <glyph glyph-name="partialdiff" unicode="&#x2202;" horiz-adv-x="634" 
d="M116 656l-29 54q79 59 195 59q122 0 208 -102.5t86 -279.5q0 -109 -33 -200t-104 -150t-167 -59q-56 0 -100.5 22t-71 57t-40 75t-13.5 81q0 111 71 181t173 70q75 0 128.5 -38.5t73.5 -74.5h1q2 13 2 49q0 136 -65 220.5t-157 84.5q-89 0 -158 -49zM279 41h1
q80 0 134.5 70.5t68.5 168.5q-16 42 -64.5 82.5t-112.5 40.5q-73 0 -125.5 -55t-52.5 -133q0 -73 42.5 -123.5t108.5 -50.5z" />
    <glyph glyph-name="Delta" unicode="&#x2206;" horiz-adv-x="763" 
d="M34 0v54l300 664h97l296 -664v-54h-693zM120 64h515l-175 390q-7 17 -25 59t-32.5 77t-21.5 54h-5q-6 -18 -34.5 -84t-36.5 -86z" />
    <glyph glyph-name="product" unicode="&#x220f;" horiz-adv-x="814" 
d="M786 628h-133v-724h-79v724h-334v-724h-80v724h-133v69h759v-69z" />
    <glyph glyph-name="summation" unicode="&#x2211;" horiz-adv-x="646" 
d="M620 -96h-596v49l315 345l-300 346v53h564v-68h-447v-3l278 -319l-298 -328v-3h484v-72z" />
    <glyph glyph-name="minus" unicode="&#x2212;" horiz-adv-x="620" 
d="M51 232v76h504v-76h-504z" />
    <glyph glyph-name="uni2215" unicode="&#x2215;" horiz-adv-x="60" 
d="M267 666l-418 -653q-2 -2 -4 -6q-6 -9 -9 -10.5t-17 -1.5h-3t-5.5 -0.5t-8 -0.5t-7.5 0.5t-6 2.5t-2 6q0 3 8 16l416 647q10 16 13.5 18t21.5 2q25 0 27 -3q2 -4 -6 -17z" />
    <glyph glyph-name="uni2219" unicode="&#x2219;" horiz-adv-x="340" 
d="M165 334q26 0 45 -19t19 -46q0 -26 -19 -45t-45 -19q-27 0 -46 19t-19 45q0 27 19 46t46 19z" />
    <glyph glyph-name="radical" unicode="&#x221a;" horiz-adv-x="653" 
d="M660 826l-260 -977h-73l-186 464l-86 -33l-18 46l153 61l153 -393q10 -30 20 -65h1q2 11 8 35l8 32l217 830h63z" />
    <glyph glyph-name="infinity" unicode="&#x221e;" horiz-adv-x="861" 
d="M804 289v-1q0 -77 -50.5 -125t-118.5 -48q-49 0 -94.5 31.5t-108.5 101.5q-38 -43 -62 -66.5t-65 -45t-83 -21.5q-67 0 -116 49.5t-49 120.5q0 74 49.5 123.5t123.5 49.5q56 0 103.5 -35t102.5 -98l36 40t34 33.5t42 32.5t43 18t53 9q72 0 116 -47t44 -122zM229 165h1
q17 0 35 6t31 13.5t31 22.5t26.5 23.5t27 28t23.5 24.5q-59 70 -87 92q-46 35 -95 35q-51 0 -81.5 -37t-29.5 -89q0 -50 32.5 -84.5t85.5 -34.5zM638 410h-1q-26 0 -54.5 -15t-44.5 -29.5t-43.5 -43.5t-32.5 -34q63 -68 100 -95.5t78 -27.5q50 0 80.5 36.5t30.5 83.5
q0 58 -32 91.5t-81 33.5z" />
    <glyph glyph-name="integral" unicode="&#x222b;" horiz-adv-x="393" 
d="M380 836l-14 -52q-18 12 -43 12q-38 0 -58 -23q-40 -41 -40 -179q0 -77 8 -248.5t8 -253.5q0 -134 -48 -200q-35 -53 -108 -53q-46 0 -76 19l14 54q28 -14 54 -14q33 0 53 22q41 48 41 174q0 82 -8 256t-8 252q0 82 13.5 132t46.5 80q39 38 103 38q38 0 62 -16z" />
    <glyph glyph-name="approxequal" unicode="&#x2248;" horiz-adv-x="651" 
d="M563 444l32 -31q-58 -101 -146 -101q-23 0 -46.5 7t-39 14.5t-51.5 26.5q-68 36 -108 36q-37 0 -63 -21t-54 -60l-33 30q26 48 67.5 74.5t90.5 26.5q19 0 40 -5.5t30 -9.5t33 -17l24 -13q4 -2 15 -8t14.5 -7.5t12.5 -6t13 -6t12 -4t14 -3.5t14 -2t16 -1q35 0 61 19t52 62
zM563 255l32 -31q-59 -99 -147 -99q-23 0 -46.5 7t-37.5 13.5t-52 26.5q-70 37 -108 37q-37 0 -63 -21t-54 -61l-33 30q26 48 67.5 75t89.5 27q20 0 41 -5.5t30 -9.5t32.5 -16.5t24.5 -13.5q4 -2 17.5 -9.5t18.5 -10t16.5 -7.5t19 -6.5t18.5 -3.5t22 -2q34 0 59.5 19
t52.5 61z" />
    <glyph glyph-name="notequal" unicode="&#x2260;" horiz-adv-x="651" 
d="M460 528l-52 -111h184v-51h-207l-78 -164h285v-50h-308l-63 -136l-42 21l55 115h-176v50h199l77 164h-276v51h298l63 131z" />
    <glyph glyph-name="lessequal" unicode="&#x2264;" horiz-adv-x="651" 
d="M589 87l-524 243v54l524 244v-59l-467 -210v-2l467 -211v-59zM592 -8h-534v51h534v-51z" />
    <glyph glyph-name="greaterequal" unicode="&#x2265;" horiz-adv-x="651" 
d="M65 628l525 -244v-54l-525 -243v59l467 210v2l-467 211v59zM591 -8h-532v51h532v-51z" />
    <glyph glyph-name="lozenge" unicode="&#x25ca;" horiz-adv-x="654" 
d="M592 348l-234 -401h-64l-232 401l233 401h64zM518 346l-170 295q-14 24 -21 46h-3q-7 -19 -22 -46l-168 -291l172 -296q18 -37 20 -46h3q9 26 21 46z" />
    <glyph glyph-name="R.alt" unicode="&#xe000;" horiz-adv-x="740" 
d="M237 266v-51q0 -101 5 -124q9 -37 49 -37q8 0 24 2.5t24 2.5q14 0 23 -10t9 -24q0 -17 -12.5 -26.5t-30.5 -9.5q-19 0 -63 5.5t-71 5.5q-26 0 -67.5 -5.5t-66.5 -5.5q-18 0 -30.5 9.5t-12.5 26.5q0 14 9 24t23 10q8 0 24 -2.5t24 -2.5q40 0 49 37q5 21 5 124v245
q0 103 -5 124q-9 37 -49 37q-8 0 -24 -2.5t-24 -2.5q-14 0 -23 10t-9 24q0 17 12.5 26.5t30.5 9.5q30 0 83 -5.5t77 -5.5q48 0 108 5.5t77 5.5q106 0 153 -31q73 -47 73 -141q0 -75 -40 -113.5t-116 -51.5v-2q71 -8 96 -46t25 -103q0 -14 -1 -44.5t-1 -46.5q0 -45 31 -45
q20 0 30.5 16.5t10.5 61.5q0 16 -2 40.5t-2 33.5q0 15 10.5 24.5t27.5 9.5q39 0 39 -56q0 -118 -25 -160.5t-89 -42.5q-56 0 -86 28.5t-30 108.5v63q0 27 -1 42t-10 34.5t-26 30.5q-19 12 -43 15t-96 3q-55 0 -75.5 -9.5t-20.5 -38.5zM237 564v-153q0 -17 6 -22.5t31 -5.5
h76q97 0 138 21q51 26 51 103q0 121 -150 121q-89 0 -120.5 -13t-31.5 -51z" />
    <glyph glyph-name="ampersand.alt" unicode="&#xe001;" horiz-adv-x="860" 
d="M670 231q0 -32 -9.5 -65t-33 -68t-58.5 -62t-92 -44t-128 -17t-126 17.5t-88 43.5t-54 61.5t-28.5 68t-7.5 65.5q0 30 8.5 61.5t27 64.5t55 59t86.5 37v2q-63 31 -63 109q0 57 43.5 96.5t110.5 39.5q63 0 99 -32.5t36 -73.5q0 -37 -18.5 -59t-53.5 -22q-21 0 -35 10
t-14 28q0 15 9 26t22 11q4 0 10 -1.5t7 -1.5q5 0 5 10q0 12 -18.5 27.5t-48.5 15.5q-33 0 -57 -22.5t-24 -59.5q0 -41 24.5 -63t56.5 -22t32 -28q0 -29 -32 -29q-88 0 -136.5 -56.5t-48.5 -126.5q0 -74 57 -129t161 -55q113 0 177 55t64 129q0 67 -33.5 99.5t-75.5 32.5
q-39 0 -66 -21t-27 -52q0 -25 14.5 -40.5t33.5 -15.5q13 0 13 6q0 2 -6 8.5t-6 17.5q0 16 11 26.5t29 10.5q20 0 32.5 -16.5t12.5 -41.5q0 -33 -25 -54.5t-68 -21.5t-76 31.5t-33 81.5q0 65 42.5 104t124.5 39q76 0 136 3q147 8 147 113q0 44 -24 72.5t-60 28.5
q-29 0 -51.5 -17.5t-22.5 -46.5q0 -32 17 -32q7 0 7 9q0 15 10 23t25 8q14 0 23.5 -11.5t9.5 -31.5q0 -28 -18.5 -44t-54.5 -16t-60.5 24.5t-24.5 68.5q0 52 41.5 88t104.5 36q66 0 111 -44t45 -115q0 -77 -67 -128t-174 -43v-2q28 -19 47 -54t19 -83z" />
    <glyph glyph-name="dollar.alt" unicode="&#xe002;" 
d="M273 206v210q-67 16 -99 44t-32 84q0 64 41 103t90 46v63q0 34 19 34t19 -34v-58q22 2 26 2q18 0 25 -1v57q0 34 19 34t19 -34v-63q55 -12 89 -42.5t34 -71.5q0 -21 -12.5 -36t-33.5 -15q-17 0 -29 10.5t-12 26.5q0 17 19 27q-11 37 -55 48v-188q64 -16 90 -35
q53 -39 53 -107q0 -82 -66 -123q-38 -25 -77 -36v-65q0 -31 -19 -31t-19 31v60q-14 -2 -25 -2q-8 0 -26 2v-60q0 -31 -19 -31t-19 31v65q-68 11 -112.5 45.5t-44.5 94.5q0 30 15.5 51.5t45.5 21.5q19 0 32 -11.5t13 -30.5q0 -17 -13.5 -27t-30.5 -9q1 -61 95 -80zM362 202
v196l-51 11v-208q7 -1 26 -1q18 0 25 2zM400 389v-180q78 23 78 91q0 37 -17 56.5t-61 32.5zM362 460v186q-6 1 -25 1q-18 0 -26 -2v-173zM273 483v155q-67 -22 -67 -82q0 -52 67 -73z" />
    <glyph glyph-name="e.alt" unicode="&#xe003;" horiz-adv-x="540" 
d="M121 270l304 82q0 29 -37.5 66.5t-105.5 36.5q-76 -1 -121 -58t-40 -127zM479 286l-356 -96q4 -51 46.5 -99t117.5 -48q53 0 90 25.5t51 73.5q4 12 5 16.5t5.5 13t11.5 11.5t17 3q17 0 29 -10.5t12 -27.5q0 -29 -18 -61t-42 -54q-62 -58 -167 -58q-116 0 -179.5 74.5
t-63.5 190.5q0 120 60 195q34 42 82.5 65t101.5 23q61 0 107 -20t70.5 -51t36.5 -62.5t12 -61.5q0 -20 -5.5 -28t-23.5 -14z" />
    </font>
</defs>
</svg>
